<svg version="1.1" xmlns="http://www.w3.org/2000/svg" xmlns:xlink="http://www.w3.org/1999/xlink" width="114.2109375" height="123"><defs/><g><text fill="#eeeeee" stroke="none" font-family="Arial" font-size="24px" font-style="normal" font-weight="normal" text-decoration="none" x="0" y="0">UNREGISTERED</text><text fill="#eeeeee" stroke="none" font-family="Arial" font-size="24px" font-style="normal" font-weight="normal" text-decoration="none" x="0" y="30">UNREGISTERED</text><text fill="#eeeeee" stroke="none" font-family="Arial" font-size="24px" font-style="normal" font-weight="normal" text-decoration="none" x="0" y="60">UNREGISTERED</text><text fill="#eeeeee" stroke="none" font-family="Arial" font-size="24px" font-style="normal" font-weight="normal" text-decoration="none" x="0" y="90">UNREGISTERED</text><text fill="#eeeeee" stroke="none" font-family="Arial" font-size="24px" font-style="normal" font-weight="normal" text-decoration="none" x="0" y="120">UNREGISTERED</text><g transform="translate(-10,-10) scale(1,1)"><rect fill="#C0C0C0" stroke="none" x="27" y="106" width="94.2109375" height="24" opacity="0.2"/></g><g transform="translate(-10,-10) scale(1,1)"><rect fill="#ffffff" stroke="none" x="20" y="99" width="94.2109375" height="24"/></g><g transform="translate(-10,-10) scale(1,1)"><path fill="none" stroke="#000000" d="M 20 99 L 114.2109375 99 L 114.2109375 123 L 20 123 L 20 99 Z Z" stroke-miterlimit="10"/></g><g transform="translate(-10,-10) scale(1,1)"><g><path fill="none" stroke="none"/><text fill="#000000" stroke="none" font-family="Arial" font-size="13px" font-style="normal" font-weight="bold" text-decoration="none" x="27.721435546875" y="118.5">DefaultConfig</text></g></g><g transform="translate(-10,-10) scale(1,1)"><path fill="#C0C0C0" stroke="none" d="M 62.60546875 38.5 C 62.60546875 32.1487248 67.75419355 27 74.10546875 27 C 80.45674395 27 85.60546875 32.1487248 85.60546875 38.5 C 85.60546875 44.8512752 80.45674395 50 74.10546875 50 C 67.75419355 50 62.60546875 44.8512752 62.60546875 38.5 Z" opacity="0.2"/></g><g transform="translate(-10,-10) scale(1,1)"><path fill="#ffffff" stroke="none" d="M 55.60546875 31.5 C 55.60546875 25.1487248 60.75419355 20 67.10546875 20 C 73.45674395 20 78.60546875 25.1487248 78.60546875 31.5 C 78.60546875 37.8512752 73.45674395 43 67.10546875 43 C 60.75419355 43 55.60546875 37.8512752 55.60546875 31.5 Z"/></g><g transform="translate(-10,-10) scale(1,1)"><path fill="none" stroke="#000000" d="M 55.60546875 31.5 C 55.60546875 25.1487248 60.75419355 20 67.10546875 20 C 73.45674395 20 78.60546875 25.1487248 78.60546875 31.5 C 78.60546875 37.8512752 73.45674395 43 67.10546875 43 C 60.75419355 43 55.60546875 37.8512752 55.60546875 31.5 Z" stroke-miterlimit="10"/></g><g transform="translate(-10,-10) scale(1,1)"><g><path fill="none" stroke="none"/><text fill="#000000" stroke="none" font-family="Arial" font-size="13px" font-style="normal" font-weight="bold" text-decoration="none" x="30.254150390625" y="62.5">OPEXConfig</text></g></g><g transform="translate(-10,-10) scale(1,1)"><path fill="none" stroke="#000000" d="M 67 98 Q 68 84 67.3157894736842 43" stroke-miterlimit="10"/></g></g></svg>