<svg version="1.1" xmlns="http://www.w3.org/2000/svg" xmlns:xlink="http://www.w3.org/1999/xlink" width="756" height="380"><defs/><g><text fill="#eeeeee" stroke="none" font-family="Arial" font-size="24px" font-style="normal" font-weight="normal" text-decoration="none" x="0" y="0">UNREGISTERED</text><text fill="#eeeeee" stroke="none" font-family="Arial" font-size="24px" font-style="normal" font-weight="normal" text-decoration="none" x="0" y="30">UNREGISTERED</text><text fill="#eeeeee" stroke="none" font-family="Arial" font-size="24px" font-style="normal" font-weight="normal" text-decoration="none" x="0" y="60">UNREGISTERED</text><text fill="#eeeeee" stroke="none" font-family="Arial" font-size="24px" font-style="normal" font-weight="normal" text-decoration="none" x="0" y="90">UNREGISTERED</text><text fill="#eeeeee" stroke="none" font-family="Arial" font-size="24px" font-style="normal" font-weight="normal" text-decoration="none" x="0" y="120">UNREGISTERED</text><text fill="#eeeeee" stroke="none" font-family="Arial" font-size="24px" font-style="normal" font-weight="normal" text-decoration="none" x="0" y="150">UNREGISTERED</text><text fill="#eeeeee" stroke="none" font-family="Arial" font-size="24px" font-style="normal" font-weight="normal" text-decoration="none" x="0" y="180">UNREGISTERED</text><text fill="#eeeeee" stroke="none" font-family="Arial" font-size="24px" font-style="normal" font-weight="normal" text-decoration="none" x="0" y="210">UNREGISTERED</text><text fill="#eeeeee" stroke="none" font-family="Arial" font-size="24px" font-style="normal" font-weight="normal" text-decoration="none" x="0" y="240">UNREGISTERED</text><text fill="#eeeeee" stroke="none" font-family="Arial" font-size="24px" font-style="normal" font-weight="normal" text-decoration="none" x="0" y="270">UNREGISTERED</text><text fill="#eeeeee" stroke="none" font-family="Arial" font-size="24px" font-style="normal" font-weight="normal" text-decoration="none" x="0" y="300">UNREGISTERED</text><text fill="#eeeeee" stroke="none" font-family="Arial" font-size="24px" font-style="normal" font-weight="normal" text-decoration="none" x="0" y="330">UNREGISTERED</text><text fill="#eeeeee" stroke="none" font-family="Arial" font-size="24px" font-style="normal" font-weight="normal" text-decoration="none" x="0" y="360">UNREGISTERED</text><text fill="#eeeeee" stroke="none" font-family="Arial" font-size="24px" font-style="normal" font-weight="normal" text-decoration="none" x="200" y="0">UNREGISTERED</text><text fill="#eeeeee" stroke="none" font-family="Arial" font-size="24px" font-style="normal" font-weight="normal" text-decoration="none" x="200" y="30">UNREGISTERED</text><text fill="#eeeeee" stroke="none" font-family="Arial" font-size="24px" font-style="normal" font-weight="normal" text-decoration="none" x="200" y="60">UNREGISTERED</text><text fill="#eeeeee" stroke="none" font-family="Arial" font-size="24px" font-style="normal" font-weight="normal" text-decoration="none" x="200" y="90">UNREGISTERED</text><text fill="#eeeeee" stroke="none" font-family="Arial" font-size="24px" font-style="normal" font-weight="normal" text-decoration="none" x="200" y="120">UNREGISTERED</text><text fill="#eeeeee" stroke="none" font-family="Arial" font-size="24px" font-style="normal" font-weight="normal" text-decoration="none" x="200" y="150">UNREGISTERED</text><text fill="#eeeeee" stroke="none" font-family="Arial" font-size="24px" font-style="normal" font-weight="normal" text-decoration="none" x="200" y="180">UNREGISTERED</text><text fill="#eeeeee" stroke="none" font-family="Arial" font-size="24px" font-style="normal" font-weight="normal" text-decoration="none" x="200" y="210">UNREGISTERED</text><text fill="#eeeeee" stroke="none" font-family="Arial" font-size="24px" font-style="normal" font-weight="normal" text-decoration="none" x="200" y="240">UNREGISTERED</text><text fill="#eeeeee" stroke="none" font-family="Arial" font-size="24px" font-style="normal" font-weight="normal" text-decoration="none" x="200" y="270">UNREGISTERED</text><text fill="#eeeeee" stroke="none" font-family="Arial" font-size="24px" font-style="normal" font-weight="normal" text-decoration="none" x="200" y="300">UNREGISTERED</text><text fill="#eeeeee" stroke="none" font-family="Arial" font-size="24px" font-style="normal" font-weight="normal" text-decoration="none" x="200" y="330">UNREGISTERED</text><text fill="#eeeeee" stroke="none" font-family="Arial" font-size="24px" font-style="normal" font-weight="normal" text-decoration="none" x="200" y="360">UNREGISTERED</text><text fill="#eeeeee" stroke="none" font-family="Arial" font-size="24px" font-style="normal" font-weight="normal" text-decoration="none" x="400" y="0">UNREGISTERED</text><text fill="#eeeeee" stroke="none" font-family="Arial" font-size="24px" font-style="normal" font-weight="normal" text-decoration="none" x="400" y="30">UNREGISTERED</text><text fill="#eeeeee" stroke="none" font-family="Arial" font-size="24px" font-style="normal" font-weight="normal" text-decoration="none" x="400" y="60">UNREGISTERED</text><text fill="#eeeeee" stroke="none" font-family="Arial" font-size="24px" font-style="normal" font-weight="normal" text-decoration="none" x="400" y="90">UNREGISTERED</text><text fill="#eeeeee" stroke="none" font-family="Arial" font-size="24px" font-style="normal" font-weight="normal" text-decoration="none" x="400" y="120">UNREGISTERED</text><text fill="#eeeeee" stroke="none" font-family="Arial" font-size="24px" font-style="normal" font-weight="normal" text-decoration="none" x="400" y="150">UNREGISTERED</text><text fill="#eeeeee" stroke="none" font-family="Arial" font-size="24px" font-style="normal" font-weight="normal" text-decoration="none" x="400" y="180">UNREGISTERED</text><text fill="#eeeeee" stroke="none" font-family="Arial" font-size="24px" font-style="normal" font-weight="normal" text-decoration="none" x="400" y="210">UNREGISTERED</text><text fill="#eeeeee" stroke="none" font-family="Arial" font-size="24px" font-style="normal" font-weight="normal" text-decoration="none" x="400" y="240">UNREGISTERED</text><text fill="#eeeeee" stroke="none" font-family="Arial" font-size="24px" font-style="normal" font-weight="normal" text-decoration="none" x="400" y="270">UNREGISTERED</text><text fill="#eeeeee" stroke="none" font-family="Arial" font-size="24px" font-style="normal" font-weight="normal" text-decoration="none" x="400" y="300">UNREGISTERED</text><text fill="#eeeeee" stroke="none" font-family="Arial" font-size="24px" font-style="normal" font-weight="normal" text-decoration="none" x="400" y="330">UNREGISTERED</text><text fill="#eeeeee" stroke="none" font-family="Arial" font-size="24px" font-style="normal" font-weight="normal" text-decoration="none" x="400" y="360">UNREGISTERED</text><text fill="#eeeeee" stroke="none" font-family="Arial" font-size="24px" font-style="normal" font-weight="normal" text-decoration="none" x="600" y="0">UNREGISTERED</text><text fill="#eeeeee" stroke="none" font-family="Arial" font-size="24px" font-style="normal" font-weight="normal" text-decoration="none" x="600" y="30">UNREGISTERED</text><text fill="#eeeeee" stroke="none" font-family="Arial" font-size="24px" font-style="normal" font-weight="normal" text-decoration="none" x="600" y="60">UNREGISTERED</text><text fill="#eeeeee" stroke="none" font-family="Arial" font-size="24px" font-style="normal" font-weight="normal" text-decoration="none" x="600" y="90">UNREGISTERED</text><text fill="#eeeeee" stroke="none" font-family="Arial" font-size="24px" font-style="normal" font-weight="normal" text-decoration="none" x="600" y="120">UNREGISTERED</text><text fill="#eeeeee" stroke="none" font-family="Arial" font-size="24px" font-style="normal" font-weight="normal" text-decoration="none" x="600" y="150">UNREGISTERED</text><text fill="#eeeeee" stroke="none" font-family="Arial" font-size="24px" font-style="normal" font-weight="normal" text-decoration="none" x="600" y="180">UNREGISTERED</text><text fill="#eeeeee" stroke="none" font-family="Arial" font-size="24px" font-style="normal" font-weight="normal" text-decoration="none" x="600" y="210">UNREGISTERED</text><text fill="#eeeeee" stroke="none" font-family="Arial" font-size="24px" font-style="normal" font-weight="normal" text-decoration="none" x="600" y="240">UNREGISTERED</text><text fill="#eeeeee" stroke="none" font-family="Arial" font-size="24px" font-style="normal" font-weight="normal" text-decoration="none" x="600" y="270">UNREGISTERED</text><text fill="#eeeeee" stroke="none" font-family="Arial" font-size="24px" font-style="normal" font-weight="normal" text-decoration="none" x="600" y="300">UNREGISTERED</text><text fill="#eeeeee" stroke="none" font-family="Arial" font-size="24px" font-style="normal" font-weight="normal" text-decoration="none" x="600" y="330">UNREGISTERED</text><text fill="#eeeeee" stroke="none" font-family="Arial" font-size="24px" font-style="normal" font-weight="normal" text-decoration="none" x="600" y="360">UNREGISTERED</text><g transform="translate(-542,-190) scale(1,1)"><rect fill="#ffffff" stroke="none" x="552" y="352" width="21" height="208"/></g><g transform="translate(-542,-190) scale(1,1)"><path fill="none" stroke="#000000" d="M 552 352 L 573 352 L 573 560 L 552 560 L 552 352 Z Z" stroke-miterlimit="10" stroke-width="2"/></g><g transform="translate(-542,-190) scale(1,1)"><path fill="none" stroke="#000000" d="M 1288 352 L 552 352 L 552 560 L 1288 560" stroke-miterlimit="10" stroke-width="2"/></g><g transform="translate(-542,-190) scale(1,1)"><g><path fill="none" stroke="none" transform="translate(556,456) rotate(-90,0,0)"/><text fill="#000000" stroke="none" font-family="Arial" font-size="13px" font-style="normal" font-weight="normal" text-decoration="none" x="-36.84814453125" y="13">registerHook</text></g></g><g transform="translate(-542,-190) scale(1,1)"><path fill="#C0C0C0" stroke="none" d="M 599 464.5 C 599 459.2532944 603.2532944 455 608.5 455 C 613.7467056 455 618 459.2532944 618 464.5 C 618 469.7467056 613.7467056 474 608.5 474 C 603.2532944 474 599 469.7467056 599 464.5 Z" opacity="0.2"/></g><g transform="translate(-542,-190) scale(1,1)"><path fill="#000000" stroke="none" d="M 592 457.5 C 592 452.2532944 596.2532944 448 601.5 448 C 606.7467056 448 611 452.2532944 611 457.5 C 611 462.7467056 606.7467056 467 601.5 467 C 596.2532944 467 592 462.7467056 592 457.5 Z"/></g><g transform="translate(-542,-190) scale(1,1)"><rect fill="#C0C0C0" stroke="none" x="631" y="519" width="89.18359375" height="24" opacity="0.2"/></g><g transform="translate(-542,-190) scale(1,1)"><rect fill="#ffffff" stroke="none" x="624" y="512" width="89.18359375" height="24"/></g><g transform="translate(-542,-190) scale(1,1)"><path fill="none" stroke="#000000" d="M 624 512 L 713.18359375 512 L 713.18359375 536 L 624 536 L 624 512 Z Z" stroke-miterlimit="10"/></g><g transform="translate(-542,-190) scale(1,1)"><rect fill="#ffffff" stroke="none" x="624" y="512" width="89.18359375" height="24"/></g><g transform="translate(-542,-190) scale(1,1)"><path fill="none" stroke="#000000" d="M 624 512 L 713.18359375 512 L 713.18359375 536 L 624 536 L 624 512 Z Z" stroke-miterlimit="10"/></g><g transform="translate(-542,-190) scale(1,1)"><g><path fill="none" stroke="none"/><text fill="#000000" stroke="none" font-family="Arial" font-size="13px" font-style="normal" font-weight="bold" text-decoration="none" x="651.253173828125" y="531.5">Name</text></g></g><g transform="translate(-542,-190) scale(1,1)"><rect fill="#C0C0C0" stroke="none" x="735" y="519" width="89.18359375" height="24" opacity="0.2"/></g><g transform="translate(-542,-190) scale(1,1)"><rect fill="#ffffff" stroke="none" x="728" y="512" width="89.18359375" height="24"/></g><g transform="translate(-542,-190) scale(1,1)"><path fill="none" stroke="#000000" d="M 728 512 L 817.18359375 512 L 817.18359375 536 L 728 536 L 728 512 Z Z" stroke-miterlimit="10"/></g><g transform="translate(-542,-190) scale(1,1)"><rect fill="#ffffff" stroke="none" x="728" y="512" width="89.18359375" height="24"/></g><g transform="translate(-542,-190) scale(1,1)"><path fill="none" stroke="#000000" d="M 728 512 L 817.18359375 512 L 817.18359375 536 L 728 536 L 728 512 Z Z" stroke-miterlimit="10"/></g><g transform="translate(-542,-190) scale(1,1)"><g><path fill="none" stroke="none"/><text fill="#000000" stroke="none" font-family="Arial" font-size="13px" font-style="normal" font-weight="bold" text-decoration="none" x="757.417724609375" y="531.5">Hook</text></g></g><g transform="translate(-542,-190) scale(1,1)"><path fill="#C0C0C0" stroke="none" d="M 1015 451.5 L 1035.5 431 L 1055 451.5 L 1035.5 471 L 1015 451.5" opacity="0.2"/></g><g transform="translate(-542,-190) scale(1,1)"><path fill="#ffffff" stroke="none" d="M 1008 444 L 1028 424 L 1048 444 L 1028 464 L 1008 444"/></g><g transform="translate(-542,-190) scale(1,1)"><path fill="none" stroke="#000000" d="M 1008 444 L 1028 424 L 1048 444 L 1028 464 L 1008 444 L 1008 444" stroke-miterlimit="10"/></g><g transform="translate(-542,-190) scale(1,1)"><path fill="none" stroke="#000000" d="M 1049 444 L 1095 444" stroke-miterlimit="10"/></g><g transform="translate(-542,-190) scale(1,1)"><path fill="none" stroke="#000000" d="M 1084.837325142376 448.209517756016 L 1095 444 L 1084.837325142376 439.790482243984" stroke-miterlimit="10"/></g><g transform="translate(-542,-190) scale(1,1)"><path fill="none" stroke="#000000" d="M 1149 431 L 926 238" stroke-miterlimit="10"/></g><g transform="translate(-542,-190) scale(1,1)"><path fill="none" stroke="#000000" d="M 936.4391360158073 241.46762732188367 L 926 238 L 930.9296010725744 247.83356666043778" stroke-miterlimit="10"/></g><g transform="translate(-542,-190) scale(1,1)"><rect fill="#C0C0C0" stroke="none" x="1103" y="439" width="136" height="24" opacity="0.2"/></g><g transform="translate(-542,-190) scale(1,1)"><rect fill="#ffffff" stroke="none" x="1096" y="432" width="136" height="24"/></g><g transform="translate(-542,-190) scale(1,1)"><path fill="none" stroke="#000000" d="M 1096 432 L 1232 432 L 1232 456 L 1096 456 L 1096 432 Z Z" stroke-miterlimit="10"/></g><g transform="translate(-542,-190) scale(1,1)"><rect fill="#ffffff" stroke="none" x="1096" y="432" width="136" height="24"/></g><g transform="translate(-542,-190) scale(1,1)"><path fill="none" stroke="#000000" d="M 1096 432 L 1232 432 L 1232 456 L 1096 456 L 1096 432 Z Z" stroke-miterlimit="10"/></g><g transform="translate(-542,-190) scale(1,1)"><g><path fill="none" stroke="none"/><text fill="#000000" stroke="none" font-family="Arial" font-size="13px" font-style="normal" font-weight="bold" text-decoration="none" x="1119.921875" y="451.5">registeredHook</text></g></g><g transform="translate(-542,-190) scale(1,1)"><rect fill="#C0C0C0" stroke="none" x="855" y="207" width="111.5908203125" height="37" opacity="0.2"/></g><g transform="translate(-542,-190) scale(1,1)"><rect fill="#ffffff" stroke="none" x="848" y="200" width="111.5908203125" height="37"/></g><g transform="translate(-542,-190) scale(1,1)"><path fill="none" stroke="#000000" d="M 848 200 L 959.5908203125 200 L 959.5908203125 237 L 848 237 L 848 200 Z Z" stroke-miterlimit="10"/></g><g transform="translate(-542,-190) scale(1,1)"><rect fill="#ffffff" stroke="none" x="848" y="200" width="111.5908203125" height="37"/></g><g transform="translate(-542,-190) scale(1,1)"><path fill="none" stroke="#000000" d="M 848 200 L 959.5908203125 200 L 959.5908203125 237 L 848 237 L 848 200 Z Z" stroke-miterlimit="10"/></g><g transform="translate(-542,-190) scale(1,1)"><g><path fill="none" stroke="none"/><text fill="#000000" stroke="none" font-family="Arial" font-size="13px" font-style="normal" font-weight="normal" text-decoration="none" x="869.464111328125" y="217.5">«datastore»</text></g></g><g transform="translate(-542,-190) scale(1,1)"><g><path fill="none" stroke="none"/><text fill="#000000" stroke="none" font-family="Arial" font-size="13px" font-style="normal" font-weight="bold" text-decoration="none" x="856.46728515625" y="232.5">registeredHooks</text></g></g><g transform="translate(-542,-190) scale(1,1)"><path fill="#C0C0C0" stroke="none" d="M 663 464.5 L 674.5 455 L 685 464.5 L 674.5 473 L 663 464.5" opacity="0.2"/></g><g transform="translate(-542,-190) scale(1,1)"><path fill="#ffffff" stroke="none" d="M 656 457 L 667 448 L 678 457 L 667 466 L 656 457"/></g><g transform="translate(-542,-190) scale(1,1)"><path fill="none" stroke="#000000" d="M 656 457 L 667 448 L 678 457 L 667 466 L 656 457 L 656 457" stroke-miterlimit="10"/></g><g transform="translate(-542,-190) scale(1,1)"><path fill="#C0C0C0" stroke="none" d="M 775 440.5 L 786.5 431 L 797 440.5 L 786.5 449 L 775 440.5" opacity="0.2"/></g><g transform="translate(-542,-190) scale(1,1)"><path fill="#ffffff" stroke="none" d="M 768 433 L 779 424 L 790 433 L 779 442 L 768 433"/></g><g transform="translate(-542,-190) scale(1,1)"><path fill="none" stroke="#000000" d="M 768 433 L 779 424 L 790 433 L 779 442 L 768 433 L 768 433" stroke-miterlimit="10"/></g><g transform="translate(-542,-190) scale(1,1)"><path fill="none" stroke="#000000" d="M 612 457 L 655 457" stroke-miterlimit="10"/></g><g transform="translate(-542,-190) scale(1,1)"><path fill="none" stroke="#000000" d="M 644.8373251423759 461.209517756016 L 655 457 L 644.8373251423758 452.790482243984" stroke-miterlimit="10"/></g><g transform="translate(-542,-190) scale(1,1)"><path fill="none" stroke="#000000" d="M 668 511 L 667 467" stroke-miterlimit="10"/></g><g transform="translate(-542,-190) scale(1,1)"><path fill="none" stroke="#000000" d="M 671.4393412630723 477.06440505693126 L 667 467 L 663.0224792467553 477.2556973754839" stroke-miterlimit="10"/></g><g transform="translate(-542,-190) scale(1,1)"><g><path fill="none" stroke="none"/><text fill="#000000" stroke="none" font-family="Arial" font-size="13px" font-style="normal" font-weight="normal" text-decoration="none" x="638.5" y="494.5">read</text></g></g></g></svg>