<svg version="1.1" xmlns="http://www.w3.org/2000/svg" xmlns:xlink="http://www.w3.org/1999/xlink" width="170.419921875" height="154"><defs/><g><text fill="#eeeeee" stroke="none" font-family="Arial" font-size="24px" font-style="normal" font-weight="normal" text-decoration="none" x="0" y="0">UNREGISTERED</text><text fill="#eeeeee" stroke="none" font-family="Arial" font-size="24px" font-style="normal" font-weight="normal" text-decoration="none" x="0" y="30">UNREGISTERED</text><text fill="#eeeeee" stroke="none" font-family="Arial" font-size="24px" font-style="normal" font-weight="normal" text-decoration="none" x="0" y="60">UNREGISTERED</text><text fill="#eeeeee" stroke="none" font-family="Arial" font-size="24px" font-style="normal" font-weight="normal" text-decoration="none" x="0" y="90">UNREGISTERED</text><text fill="#eeeeee" stroke="none" font-family="Arial" font-size="24px" font-style="normal" font-weight="normal" text-decoration="none" x="0" y="120">UNREGISTERED</text><text fill="#eeeeee" stroke="none" font-family="Arial" font-size="24px" font-style="normal" font-weight="normal" text-decoration="none" x="0" y="150">UNREGISTERED</text><g transform="translate(-8,-10) scale(1,1)"><rect fill="#C0C0C0" stroke="none" x="60.58544921875" y="137" width="81.2490234375" height="24" opacity="0.2"/></g><g transform="translate(-8,-10) scale(1,1)"><rect fill="#ffffff" stroke="none" x="53.58544921875" y="130" width="81.2490234375" height="24"/></g><g transform="translate(-8,-10) scale(1,1)"><path fill="none" stroke="#000000" d="M 53.58544921875 130 L 134.83447265625 130 L 134.83447265625 154 L 53.58544921875 154 L 53.58544921875 130 Z Z" stroke-miterlimit="10"/></g><g transform="translate(-8,-10) scale(1,1)"><g><path fill="none" stroke="none"/><text fill="#000000" stroke="none" font-family="Arial" font-size="13px" font-style="normal" font-weight="bold" text-decoration="none" x="60.246826171875" y="149.5">KeyHandler</text></g></g><g transform="translate(-8,-10) scale(1,1)"><rect fill="#C0C0C0" stroke="none" x="52.28271484375" y="27" width="97.8544921875" height="24" opacity="0.2"/></g><g transform="translate(-8,-10) scale(1,1)"><rect fill="#ffffff" stroke="none" x="45.28271484375" y="20" width="97.8544921875" height="24"/></g><g transform="translate(-8,-10) scale(1,1)"><path fill="none" stroke="#000000" d="M 45.28271484375 20 L 143.13720703125 20 L 143.13720703125 44 L 45.28271484375 44 L 45.28271484375 20 Z Z" stroke-miterlimit="10"/></g><g transform="translate(-8,-10) scale(1,1)"><g><path fill="none" stroke="none"/><text fill="#000000" stroke="none" font-family="Arial" font-size="13px" font-style="normal" font-weight="bold" text-decoration="none" x="51.937744140625" y="39.5">OPEXKeyBind</text></g></g><g transform="translate(-8,-10) scale(1,1)"><rect fill="#C0C0C0" stroke="none" x="27" y="82" width="148.419921875" height="24" opacity="0.2"/></g><g transform="translate(-8,-10) scale(1,1)"><rect fill="#ffffff" stroke="none" x="20" y="75" width="148.419921875" height="24"/></g><g transform="translate(-8,-10) scale(1,1)"><path fill="none" stroke="#000000" d="M 20 75 L 168.419921875 75 L 168.419921875 99 L 20 99 L 20 75 Z Z" stroke-miterlimit="10"/></g><g transform="translate(-8,-10) scale(1,1)"><g><path fill="none" stroke="none"/><text fill="#000000" stroke="none" font-family="Arial" font-size="13px" font-style="normal" font-weight="bold" text-decoration="none" x="28.4482421875" y="94.5">OPEXKeyBindingSpec</text></g></g><g transform="translate(-8,-10) scale(1,1)"><path fill="none" stroke="#000000" d="M 94 129 Q 95 115 94 100" stroke-miterlimit="10"/></g><g transform="translate(-8,-10) scale(1,1)"><path fill="none" stroke="#000000" d="M 98.8762054144906 109.86015318114747 L 94 100 L 90.47581673711738 110.42017909297235" stroke-miterlimit="10"/></g><g transform="translate(-8,-10) scale(1,1)"><g><path fill="none" stroke="none"/><text fill="#000000" stroke="none" font-family="Arial" font-size="13px" font-style="normal" font-weight="normal" text-decoration="none" x="64.5" y="132.5">-spec</text></g></g><g transform="translate(-8,-10) scale(1,1)"><path fill="none" stroke="#000000" d="M 94 74 Q 95 60 94 45" stroke-miterlimit="10"/></g><g transform="translate(-8,-10) scale(1,1)"><path fill="none" stroke="#000000" d="M 98.8762054144906 54.86015318114747 L 94 45 L 90.47581673711738 55.42017909297235" stroke-miterlimit="10"/></g><g transform="translate(-8,-10) scale(1,1)"><g><path fill="none" stroke="none"/><text fill="#000000" stroke="none" font-family="Arial" font-size="13px" font-style="normal" font-weight="normal" text-decoration="none" x="62.5" y="77.5">-binds</text></g></g><g transform="translate(-8,-10) scale(1,1)"><g><path fill="none" stroke="none"/><text fill="#000000" stroke="none" font-family="Arial" font-size="13px" font-style="normal" font-weight="normal" text-decoration="none" x="17.5" y="81.5">{collection="List"}</text></g></g><g transform="translate(-8,-10) scale(1,1)"><g><path fill="none" stroke="none"/><text fill="#000000" stroke="none" font-family="Arial" font-size="13px" font-style="normal" font-weight="normal" text-decoration="none" x="104.5" y="71.5">*</text></g></g></g></svg>