<svg version="1.1" xmlns="http://www.w3.org/2000/svg" xmlns:xlink="http://www.w3.org/1999/xlink" width="1860.833740234375" height="199"><defs/><g><text fill="#eeeeee" stroke="none" font-family="Arial" font-size="24px" font-style="normal" font-weight="normal" text-decoration="none" x="0" y="0">UNREGISTERED</text><text fill="#eeeeee" stroke="none" font-family="Arial" font-size="24px" font-style="normal" font-weight="normal" text-decoration="none" x="0" y="30">UNREGISTERED</text><text fill="#eeeeee" stroke="none" font-family="Arial" font-size="24px" font-style="normal" font-weight="normal" text-decoration="none" x="0" y="60">UNREGISTERED</text><text fill="#eeeeee" stroke="none" font-family="Arial" font-size="24px" font-style="normal" font-weight="normal" text-decoration="none" x="0" y="90">UNREGISTERED</text><text fill="#eeeeee" stroke="none" font-family="Arial" font-size="24px" font-style="normal" font-weight="normal" text-decoration="none" x="0" y="120">UNREGISTERED</text><text fill="#eeeeee" stroke="none" font-family="Arial" font-size="24px" font-style="normal" font-weight="normal" text-decoration="none" x="0" y="150">UNREGISTERED</text><text fill="#eeeeee" stroke="none" font-family="Arial" font-size="24px" font-style="normal" font-weight="normal" text-decoration="none" x="0" y="180">UNREGISTERED</text><text fill="#eeeeee" stroke="none" font-family="Arial" font-size="24px" font-style="normal" font-weight="normal" text-decoration="none" x="200" y="0">UNREGISTERED</text><text fill="#eeeeee" stroke="none" font-family="Arial" font-size="24px" font-style="normal" font-weight="normal" text-decoration="none" x="200" y="30">UNREGISTERED</text><text fill="#eeeeee" stroke="none" font-family="Arial" font-size="24px" font-style="normal" font-weight="normal" text-decoration="none" x="200" y="60">UNREGISTERED</text><text fill="#eeeeee" stroke="none" font-family="Arial" font-size="24px" font-style="normal" font-weight="normal" text-decoration="none" x="200" y="90">UNREGISTERED</text><text fill="#eeeeee" stroke="none" font-family="Arial" font-size="24px" font-style="normal" font-weight="normal" text-decoration="none" x="200" y="120">UNREGISTERED</text><text fill="#eeeeee" stroke="none" font-family="Arial" font-size="24px" font-style="normal" font-weight="normal" text-decoration="none" x="200" y="150">UNREGISTERED</text><text fill="#eeeeee" stroke="none" font-family="Arial" font-size="24px" font-style="normal" font-weight="normal" text-decoration="none" x="200" y="180">UNREGISTERED</text><text fill="#eeeeee" stroke="none" font-family="Arial" font-size="24px" font-style="normal" font-weight="normal" text-decoration="none" x="400" y="0">UNREGISTERED</text><text fill="#eeeeee" stroke="none" font-family="Arial" font-size="24px" font-style="normal" font-weight="normal" text-decoration="none" x="400" y="30">UNREGISTERED</text><text fill="#eeeeee" stroke="none" font-family="Arial" font-size="24px" font-style="normal" font-weight="normal" text-decoration="none" x="400" y="60">UNREGISTERED</text><text fill="#eeeeee" stroke="none" font-family="Arial" font-size="24px" font-style="normal" font-weight="normal" text-decoration="none" x="400" y="90">UNREGISTERED</text><text fill="#eeeeee" stroke="none" font-family="Arial" font-size="24px" font-style="normal" font-weight="normal" text-decoration="none" x="400" y="120">UNREGISTERED</text><text fill="#eeeeee" stroke="none" font-family="Arial" font-size="24px" font-style="normal" font-weight="normal" text-decoration="none" x="400" y="150">UNREGISTERED</text><text fill="#eeeeee" stroke="none" font-family="Arial" font-size="24px" font-style="normal" font-weight="normal" text-decoration="none" x="400" y="180">UNREGISTERED</text><text fill="#eeeeee" stroke="none" font-family="Arial" font-size="24px" font-style="normal" font-weight="normal" text-decoration="none" x="600" y="0">UNREGISTERED</text><text fill="#eeeeee" stroke="none" font-family="Arial" font-size="24px" font-style="normal" font-weight="normal" text-decoration="none" x="600" y="30">UNREGISTERED</text><text fill="#eeeeee" stroke="none" font-family="Arial" font-size="24px" font-style="normal" font-weight="normal" text-decoration="none" x="600" y="60">UNREGISTERED</text><text fill="#eeeeee" stroke="none" font-family="Arial" font-size="24px" font-style="normal" font-weight="normal" text-decoration="none" x="600" y="90">UNREGISTERED</text><text fill="#eeeeee" stroke="none" font-family="Arial" font-size="24px" font-style="normal" font-weight="normal" text-decoration="none" x="600" y="120">UNREGISTERED</text><text fill="#eeeeee" stroke="none" font-family="Arial" font-size="24px" font-style="normal" font-weight="normal" text-decoration="none" x="600" y="150">UNREGISTERED</text><text fill="#eeeeee" stroke="none" font-family="Arial" font-size="24px" font-style="normal" font-weight="normal" text-decoration="none" x="600" y="180">UNREGISTERED</text><text fill="#eeeeee" stroke="none" font-family="Arial" font-size="24px" font-style="normal" font-weight="normal" text-decoration="none" x="800" y="0">UNREGISTERED</text><text fill="#eeeeee" stroke="none" font-family="Arial" font-size="24px" font-style="normal" font-weight="normal" text-decoration="none" x="800" y="30">UNREGISTERED</text><text fill="#eeeeee" stroke="none" font-family="Arial" font-size="24px" font-style="normal" font-weight="normal" text-decoration="none" x="800" y="60">UNREGISTERED</text><text fill="#eeeeee" stroke="none" font-family="Arial" font-size="24px" font-style="normal" font-weight="normal" text-decoration="none" x="800" y="90">UNREGISTERED</text><text fill="#eeeeee" stroke="none" font-family="Arial" font-size="24px" font-style="normal" font-weight="normal" text-decoration="none" x="800" y="120">UNREGISTERED</text><text fill="#eeeeee" stroke="none" font-family="Arial" font-size="24px" font-style="normal" font-weight="normal" text-decoration="none" x="800" y="150">UNREGISTERED</text><text fill="#eeeeee" stroke="none" font-family="Arial" font-size="24px" font-style="normal" font-weight="normal" text-decoration="none" x="800" y="180">UNREGISTERED</text><text fill="#eeeeee" stroke="none" font-family="Arial" font-size="24px" font-style="normal" font-weight="normal" text-decoration="none" x="1000" y="0">UNREGISTERED</text><text fill="#eeeeee" stroke="none" font-family="Arial" font-size="24px" font-style="normal" font-weight="normal" text-decoration="none" x="1000" y="30">UNREGISTERED</text><text fill="#eeeeee" stroke="none" font-family="Arial" font-size="24px" font-style="normal" font-weight="normal" text-decoration="none" x="1000" y="60">UNREGISTERED</text><text fill="#eeeeee" stroke="none" font-family="Arial" font-size="24px" font-style="normal" font-weight="normal" text-decoration="none" x="1000" y="90">UNREGISTERED</text><text fill="#eeeeee" stroke="none" font-family="Arial" font-size="24px" font-style="normal" font-weight="normal" text-decoration="none" x="1000" y="120">UNREGISTERED</text><text fill="#eeeeee" stroke="none" font-family="Arial" font-size="24px" font-style="normal" font-weight="normal" text-decoration="none" x="1000" y="150">UNREGISTERED</text><text fill="#eeeeee" stroke="none" font-family="Arial" font-size="24px" font-style="normal" font-weight="normal" text-decoration="none" x="1000" y="180">UNREGISTERED</text><text fill="#eeeeee" stroke="none" font-family="Arial" font-size="24px" font-style="normal" font-weight="normal" text-decoration="none" x="1200" y="0">UNREGISTERED</text><text fill="#eeeeee" stroke="none" font-family="Arial" font-size="24px" font-style="normal" font-weight="normal" text-decoration="none" x="1200" y="30">UNREGISTERED</text><text fill="#eeeeee" stroke="none" font-family="Arial" font-size="24px" font-style="normal" font-weight="normal" text-decoration="none" x="1200" y="60">UNREGISTERED</text><text fill="#eeeeee" stroke="none" font-family="Arial" font-size="24px" font-style="normal" font-weight="normal" text-decoration="none" x="1200" y="90">UNREGISTERED</text><text fill="#eeeeee" stroke="none" font-family="Arial" font-size="24px" font-style="normal" font-weight="normal" text-decoration="none" x="1200" y="120">UNREGISTERED</text><text fill="#eeeeee" stroke="none" font-family="Arial" font-size="24px" font-style="normal" font-weight="normal" text-decoration="none" x="1200" y="150">UNREGISTERED</text><text fill="#eeeeee" stroke="none" font-family="Arial" font-size="24px" font-style="normal" font-weight="normal" text-decoration="none" x="1200" y="180">UNREGISTERED</text><text fill="#eeeeee" stroke="none" font-family="Arial" font-size="24px" font-style="normal" font-weight="normal" text-decoration="none" x="1400" y="0">UNREGISTERED</text><text fill="#eeeeee" stroke="none" font-family="Arial" font-size="24px" font-style="normal" font-weight="normal" text-decoration="none" x="1400" y="30">UNREGISTERED</text><text fill="#eeeeee" stroke="none" font-family="Arial" font-size="24px" font-style="normal" font-weight="normal" text-decoration="none" x="1400" y="60">UNREGISTERED</text><text fill="#eeeeee" stroke="none" font-family="Arial" font-size="24px" font-style="normal" font-weight="normal" text-decoration="none" x="1400" y="90">UNREGISTERED</text><text fill="#eeeeee" stroke="none" font-family="Arial" font-size="24px" font-style="normal" font-weight="normal" text-decoration="none" x="1400" y="120">UNREGISTERED</text><text fill="#eeeeee" stroke="none" font-family="Arial" font-size="24px" font-style="normal" font-weight="normal" text-decoration="none" x="1400" y="150">UNREGISTERED</text><text fill="#eeeeee" stroke="none" font-family="Arial" font-size="24px" font-style="normal" font-weight="normal" text-decoration="none" x="1400" y="180">UNREGISTERED</text><text fill="#eeeeee" stroke="none" font-family="Arial" font-size="24px" font-style="normal" font-weight="normal" text-decoration="none" x="1600" y="0">UNREGISTERED</text><text fill="#eeeeee" stroke="none" font-family="Arial" font-size="24px" font-style="normal" font-weight="normal" text-decoration="none" x="1600" y="30">UNREGISTERED</text><text fill="#eeeeee" stroke="none" font-family="Arial" font-size="24px" font-style="normal" font-weight="normal" text-decoration="none" x="1600" y="60">UNREGISTERED</text><text fill="#eeeeee" stroke="none" font-family="Arial" font-size="24px" font-style="normal" font-weight="normal" text-decoration="none" x="1600" y="90">UNREGISTERED</text><text fill="#eeeeee" stroke="none" font-family="Arial" font-size="24px" font-style="normal" font-weight="normal" text-decoration="none" x="1600" y="120">UNREGISTERED</text><text fill="#eeeeee" stroke="none" font-family="Arial" font-size="24px" font-style="normal" font-weight="normal" text-decoration="none" x="1600" y="150">UNREGISTERED</text><text fill="#eeeeee" stroke="none" font-family="Arial" font-size="24px" font-style="normal" font-weight="normal" text-decoration="none" x="1600" y="180">UNREGISTERED</text><text fill="#eeeeee" stroke="none" font-family="Arial" font-size="24px" font-style="normal" font-weight="normal" text-decoration="none" x="1800" y="0">UNREGISTERED</text><text fill="#eeeeee" stroke="none" font-family="Arial" font-size="24px" font-style="normal" font-weight="normal" text-decoration="none" x="1800" y="30">UNREGISTERED</text><text fill="#eeeeee" stroke="none" font-family="Arial" font-size="24px" font-style="normal" font-weight="normal" text-decoration="none" x="1800" y="60">UNREGISTERED</text><text fill="#eeeeee" stroke="none" font-family="Arial" font-size="24px" font-style="normal" font-weight="normal" text-decoration="none" x="1800" y="90">UNREGISTERED</text><text fill="#eeeeee" stroke="none" font-family="Arial" font-size="24px" font-style="normal" font-weight="normal" text-decoration="none" x="1800" y="120">UNREGISTERED</text><text fill="#eeeeee" stroke="none" font-family="Arial" font-size="24px" font-style="normal" font-weight="normal" text-decoration="none" x="1800" y="150">UNREGISTERED</text><text fill="#eeeeee" stroke="none" font-family="Arial" font-size="24px" font-style="normal" font-weight="normal" text-decoration="none" x="1800" y="180">UNREGISTERED</text><g transform="translate(-10,-10) scale(1,1)"><rect fill="#C0C0C0" stroke="none" x="370.088623046875" y="27" width="19.600000000000023" height="15" opacity="0.2"/></g><g transform="translate(-10,-10) scale(1,1)"><rect fill="#C0C0C0" stroke="none" x="370.088623046875" y="41" width="49" height="25" opacity="0.2"/></g><g transform="translate(-10,-10) scale(1,1)"><rect fill="#ffffff" stroke="none" x="363.088623046875" y="35" width="49" height="24"/></g><g transform="translate(-10,-10) scale(1,1)"><path fill="none" stroke="#000000" d="M 363.088623046875 35 L 412.088623046875 35 L 412.088623046875 59 L 363.088623046875 59 L 363.088623046875 35 Z Z" stroke-miterlimit="10"/></g><g transform="translate(-10,-10) scale(1,1)"><rect fill="#ffffff" stroke="none" x="363.088623046875" y="20" width="19.600000000000023" height="15"/></g><g transform="translate(-10,-10) scale(1,1)"><path fill="none" stroke="#000000" d="M 363.088623046875 20 L 382.688623046875 20 L 382.688623046875 35 L 363.088623046875 35 L 363.088623046875 20 Z Z" stroke-miterlimit="10"/></g><g transform="translate(-10,-10) scale(1,1)"><rect fill="#ffffff" stroke="none" x="363.088623046875" y="34" width="49" height="25"/></g><g transform="translate(-10,-10) scale(1,1)"><path fill="none" stroke="#000000" d="M 363.088623046875 34 L 412.088623046875 34 L 412.088623046875 59 L 363.088623046875 59 L 363.088623046875 34 Z Z" stroke-miterlimit="10"/></g><g transform="translate(-10,-10) scale(1,1)"><g><path fill="none" stroke="none"/><text fill="#000000" stroke="none" font-family="Arial" font-size="13px" font-style="normal" font-weight="bold" text-decoration="none" x="375.66455078125" y="54.5">java</text></g></g><g transform="translate(-10,-10) scale(1,1)"><rect fill="#C0C0C0" stroke="none" x="176.05908203125" y="97" width="19.599999999999994" height="15" opacity="0.2"/></g><g transform="translate(-10,-10) scale(1,1)"><rect fill="#C0C0C0" stroke="none" x="176.05908203125" y="111" width="49" height="25" opacity="0.2"/></g><g transform="translate(-10,-10) scale(1,1)"><rect fill="#ffffff" stroke="none" x="169.05908203125" y="105" width="49" height="24"/></g><g transform="translate(-10,-10) scale(1,1)"><path fill="none" stroke="#000000" d="M 169.05908203125 105 L 218.05908203125 105 L 218.05908203125 129 L 169.05908203125 129 L 169.05908203125 105 Z Z" stroke-miterlimit="10"/></g><g transform="translate(-10,-10) scale(1,1)"><rect fill="#ffffff" stroke="none" x="169.05908203125" y="90" width="19.599999999999994" height="15"/></g><g transform="translate(-10,-10) scale(1,1)"><path fill="none" stroke="#000000" d="M 169.05908203125 90 L 188.65908203125 90 L 188.65908203125 105 L 169.05908203125 105 L 169.05908203125 90 Z Z" stroke-miterlimit="10"/></g><g transform="translate(-10,-10) scale(1,1)"><rect fill="#ffffff" stroke="none" x="169.05908203125" y="104" width="49" height="25"/></g><g transform="translate(-10,-10) scale(1,1)"><path fill="none" stroke="#000000" d="M 169.05908203125 104 L 218.05908203125 104 L 218.05908203125 129 L 169.05908203125 129 L 169.05908203125 104 Z Z" stroke-miterlimit="10"/></g><g transform="translate(-10,-10) scale(1,1)"><g><path fill="none" stroke="none"/><text fill="#000000" stroke="none" font-family="Arial" font-size="13px" font-style="normal" font-weight="bold" text-decoration="none" x="181.27001953125" y="124.5">lang</text></g></g><g transform="translate(-10,-10) scale(1,1)"><rect fill="#C0C0C0" stroke="none" x="27" y="167" width="30.173828125" height="15" opacity="0.2"/></g><g transform="translate(-10,-10) scale(1,1)"><rect fill="#C0C0C0" stroke="none" x="27" y="181" width="75.4345703125" height="25" opacity="0.2"/></g><g transform="translate(-10,-10) scale(1,1)"><rect fill="#ffffff" stroke="none" x="20" y="175" width="75.4345703125" height="24"/></g><g transform="translate(-10,-10) scale(1,1)"><path fill="none" stroke="#000000" d="M 20 175 L 95.4345703125 175 L 95.4345703125 199 L 20 199 L 20 175 Z Z" stroke-miterlimit="10"/></g><g transform="translate(-10,-10) scale(1,1)"><rect fill="#ffffff" stroke="none" x="20" y="160" width="30.173828125" height="15"/></g><g transform="translate(-10,-10) scale(1,1)"><path fill="none" stroke="#000000" d="M 20 160 L 50.173828125 160 L 50.173828125 175 L 20 175 L 20 160 Z Z" stroke-miterlimit="10"/></g><g transform="translate(-10,-10) scale(1,1)"><rect fill="#ffffff" stroke="none" x="20" y="174" width="75.4345703125" height="25"/></g><g transform="translate(-10,-10) scale(1,1)"><path fill="none" stroke="#000000" d="M 20 174 L 95.4345703125 174 L 95.4345703125 199 L 20 199 L 20 174 Z Z" stroke-miterlimit="10"/></g><g transform="translate(-10,-10) scale(1,1)"><g><path fill="none" stroke="none"/><text fill="#000000" stroke="none" font-family="Arial" font-size="13px" font-style="normal" font-weight="bold" text-decoration="none" x="27.3564453125" y="194.5">annotation</text></g></g><g transform="translate(-10,-10) scale(1,1)"><rect fill="#C0C0C0" stroke="none" x="133.4345703125" y="167" width="25.26835937499999" height="15" opacity="0.2"/></g><g transform="translate(-10,-10) scale(1,1)"><rect fill="#C0C0C0" stroke="none" x="133.4345703125" y="181" width="63.1708984375" height="25" opacity="0.2"/></g><g transform="translate(-10,-10) scale(1,1)"><rect fill="#ffffff" stroke="none" x="126.4345703125" y="175" width="63.1708984375" height="24"/></g><g transform="translate(-10,-10) scale(1,1)"><path fill="none" stroke="#000000" d="M 126.4345703125 175 L 189.60546875 175 L 189.60546875 199 L 126.4345703125 199 L 126.4345703125 175 Z Z" stroke-miterlimit="10"/></g><g transform="translate(-10,-10) scale(1,1)"><rect fill="#ffffff" stroke="none" x="126.4345703125" y="160" width="25.26835937499999" height="15"/></g><g transform="translate(-10,-10) scale(1,1)"><path fill="none" stroke="#000000" d="M 126.4345703125 160 L 151.7029296875 160 L 151.7029296875 175 L 126.4345703125 175 L 126.4345703125 160 Z Z" stroke-miterlimit="10"/></g><g transform="translate(-10,-10) scale(1,1)"><rect fill="#ffffff" stroke="none" x="126.4345703125" y="174" width="63.1708984375" height="25"/></g><g transform="translate(-10,-10) scale(1,1)"><path fill="none" stroke="#000000" d="M 126.4345703125 174 L 189.60546875 174 L 189.60546875 199 L 126.4345703125 199 L 126.4345703125 174 Z Z" stroke-miterlimit="10"/></g><g transform="translate(-10,-10) scale(1,1)"><g><path fill="none" stroke="none"/><text fill="#000000" stroke="none" font-family="Arial" font-size="13px" font-style="normal" font-weight="bold" text-decoration="none" x="133.4482421875" y="194.5">constant</text></g></g><g transform="translate(-10,-10) scale(1,1)"><rect fill="#C0C0C0" stroke="none" x="227.60546875" y="167" width="20.07343750000001" height="15" opacity="0.2"/></g><g transform="translate(-10,-10) scale(1,1)"><rect fill="#C0C0C0" stroke="none" x="227.60546875" y="181" width="50.18359375" height="25" opacity="0.2"/></g><g transform="translate(-10,-10) scale(1,1)"><rect fill="#ffffff" stroke="none" x="220.60546875" y="175" width="50.18359375" height="24"/></g><g transform="translate(-10,-10) scale(1,1)"><path fill="none" stroke="#000000" d="M 220.60546875 175 L 270.7890625 175 L 270.7890625 199 L 220.60546875 199 L 220.60546875 175 Z Z" stroke-miterlimit="10"/></g><g transform="translate(-10,-10) scale(1,1)"><rect fill="#ffffff" stroke="none" x="220.60546875" y="160" width="20.07343750000001" height="15"/></g><g transform="translate(-10,-10) scale(1,1)"><path fill="none" stroke="#000000" d="M 220.60546875 160 L 240.67890625 160 L 240.67890625 175 L 220.60546875 175 L 220.60546875 160 Z Z" stroke-miterlimit="10"/></g><g transform="translate(-10,-10) scale(1,1)"><rect fill="#ffffff" stroke="none" x="220.60546875" y="174" width="50.18359375" height="25"/></g><g transform="translate(-10,-10) scale(1,1)"><path fill="none" stroke="#000000" d="M 220.60546875 174 L 270.7890625 174 L 270.7890625 199 L 220.60546875 199 L 220.60546875 174 Z Z" stroke-miterlimit="10"/></g><g transform="translate(-10,-10) scale(1,1)"><g><path fill="none" stroke="none"/><text fill="#000000" stroke="none" font-family="Arial" font-size="13px" font-style="normal" font-weight="bold" text-decoration="none" x="226.908203125" y="194.5">invoke</text></g></g><g transform="translate(-10,-10) scale(1,1)"><rect fill="#C0C0C0" stroke="none" x="308.7890625" y="167" width="22.089453124999977" height="15" opacity="0.2"/></g><g transform="translate(-10,-10) scale(1,1)"><rect fill="#C0C0C0" stroke="none" x="308.7890625" y="181" width="55.2236328125" height="25" opacity="0.2"/></g><g transform="translate(-10,-10) scale(1,1)"><rect fill="#ffffff" stroke="none" x="301.7890625" y="175" width="55.2236328125" height="24"/></g><g transform="translate(-10,-10) scale(1,1)"><path fill="none" stroke="#000000" d="M 301.7890625 175 L 357.0126953125 175 L 357.0126953125 199 L 301.7890625 199 L 301.7890625 175 Z Z" stroke-miterlimit="10"/></g><g transform="translate(-10,-10) scale(1,1)"><rect fill="#ffffff" stroke="none" x="301.7890625" y="160" width="22.089453124999977" height="15"/></g><g transform="translate(-10,-10) scale(1,1)"><path fill="none" stroke="#000000" d="M 301.7890625 160 L 323.878515625 160 L 323.878515625 175 L 301.7890625 175 L 301.7890625 160 Z Z" stroke-miterlimit="10"/></g><g transform="translate(-10,-10) scale(1,1)"><rect fill="#ffffff" stroke="none" x="301.7890625" y="174" width="55.2236328125" height="25"/></g><g transform="translate(-10,-10) scale(1,1)"><path fill="none" stroke="#000000" d="M 301.7890625 174 L 357.0126953125 174 L 357.0126953125 199 L 301.7890625 199 L 301.7890625 174 Z Z" stroke-miterlimit="10"/></g><g transform="translate(-10,-10) scale(1,1)"><g><path fill="none" stroke="none"/><text fill="#000000" stroke="none" font-family="Arial" font-size="13px" font-style="normal" font-weight="bold" text-decoration="none" x="308.082275390625" y="194.5">module</text></g></g><g transform="translate(-10,-10) scale(1,1)"><rect fill="#C0C0C0" stroke="none" x="395.0126953125" y="167" width="19.600000000000023" height="15" opacity="0.2"/></g><g transform="translate(-10,-10) scale(1,1)"><rect fill="#C0C0C0" stroke="none" x="395.0126953125" y="181" width="49" height="25" opacity="0.2"/></g><g transform="translate(-10,-10) scale(1,1)"><rect fill="#ffffff" stroke="none" x="388.0126953125" y="175" width="49" height="24"/></g><g transform="translate(-10,-10) scale(1,1)"><path fill="none" stroke="#000000" d="M 388.0126953125 175 L 437.0126953125 175 L 437.0126953125 199 L 388.0126953125 199 L 388.0126953125 175 Z Z" stroke-miterlimit="10"/></g><g transform="translate(-10,-10) scale(1,1)"><rect fill="#ffffff" stroke="none" x="388.0126953125" y="160" width="19.600000000000023" height="15"/></g><g transform="translate(-10,-10) scale(1,1)"><path fill="none" stroke="#000000" d="M 388.0126953125 160 L 407.6126953125 160 L 407.6126953125 175 L 388.0126953125 175 L 388.0126953125 160 Z Z" stroke-miterlimit="10"/></g><g transform="translate(-10,-10) scale(1,1)"><rect fill="#ffffff" stroke="none" x="388.0126953125" y="174" width="49" height="25"/></g><g transform="translate(-10,-10) scale(1,1)"><path fill="none" stroke="#000000" d="M 388.0126953125 174 L 437.0126953125 174 L 437.0126953125 199 L 388.0126953125 199 L 388.0126953125 174 Z Z" stroke-miterlimit="10"/></g><g transform="translate(-10,-10) scale(1,1)"><g><path fill="none" stroke="none"/><text fill="#000000" stroke="none" font-family="Arial" font-size="13px" font-style="normal" font-weight="bold" text-decoration="none" x="404.92724609375" y="194.5">ref</text></g></g><g transform="translate(-10,-10) scale(1,1)"><rect fill="#C0C0C0" stroke="none" x="475.0126953125" y="167" width="19.600000000000023" height="15" opacity="0.2"/></g><g transform="translate(-10,-10) scale(1,1)"><rect fill="#C0C0C0" stroke="none" x="475.0126953125" y="181" width="49" height="25" opacity="0.2"/></g><g transform="translate(-10,-10) scale(1,1)"><rect fill="#ffffff" stroke="none" x="468.0126953125" y="175" width="49" height="24"/></g><g transform="translate(-10,-10) scale(1,1)"><path fill="none" stroke="#000000" d="M 468.0126953125 175 L 517.0126953125 175 L 517.0126953125 199 L 468.0126953125 199 L 468.0126953125 175 Z Z" stroke-miterlimit="10"/></g><g transform="translate(-10,-10) scale(1,1)"><rect fill="#ffffff" stroke="none" x="468.0126953125" y="160" width="19.600000000000023" height="15"/></g><g transform="translate(-10,-10) scale(1,1)"><path fill="none" stroke="#000000" d="M 468.0126953125 160 L 487.6126953125 160 L 487.6126953125 175 L 468.0126953125 175 L 468.0126953125 160 Z Z" stroke-miterlimit="10"/></g><g transform="translate(-10,-10) scale(1,1)"><rect fill="#ffffff" stroke="none" x="468.0126953125" y="174" width="49" height="25"/></g><g transform="translate(-10,-10) scale(1,1)"><path fill="none" stroke="#000000" d="M 468.0126953125 174 L 517.0126953125 174 L 517.0126953125 199 L 468.0126953125 199 L 468.0126953125 174 Z Z" stroke-miterlimit="10"/></g><g transform="translate(-10,-10) scale(1,1)"><g><path fill="none" stroke="none"/><text fill="#000000" stroke="none" font-family="Arial" font-size="13px" font-style="normal" font-weight="bold" text-decoration="none" x="474.812255859375" y="194.5">reflect</text></g></g><g transform="translate(-10,-10) scale(1,1)"><rect fill="#C0C0C0" stroke="none" x="555.0126953125" y="167" width="22.668359375000023" height="15" opacity="0.2"/></g><g transform="translate(-10,-10) scale(1,1)"><rect fill="#C0C0C0" stroke="none" x="555.0126953125" y="181" width="56.6708984375" height="25" opacity="0.2"/></g><g transform="translate(-10,-10) scale(1,1)"><rect fill="#ffffff" stroke="none" x="548.0126953125" y="175" width="56.6708984375" height="24"/></g><g transform="translate(-10,-10) scale(1,1)"><path fill="none" stroke="#000000" d="M 548.0126953125 175 L 604.68359375 175 L 604.68359375 199 L 548.0126953125 199 L 548.0126953125 175 Z Z" stroke-miterlimit="10"/></g><g transform="translate(-10,-10) scale(1,1)"><rect fill="#ffffff" stroke="none" x="548.0126953125" y="160" width="22.668359375000023" height="15"/></g><g transform="translate(-10,-10) scale(1,1)"><path fill="none" stroke="#000000" d="M 548.0126953125 160 L 570.6810546875 160 L 570.6810546875 175 L 548.0126953125 175 L 548.0126953125 160 Z Z" stroke-miterlimit="10"/></g><g transform="translate(-10,-10) scale(1,1)"><rect fill="#ffffff" stroke="none" x="548.0126953125" y="174" width="56.6708984375" height="25"/></g><g transform="translate(-10,-10) scale(1,1)"><path fill="none" stroke="#000000" d="M 548.0126953125 174 L 604.68359375 174 L 604.68359375 199 L 548.0126953125 199 L 548.0126953125 174 Z Z" stroke-miterlimit="10"/></g><g transform="translate(-10,-10) scale(1,1)"><g><path fill="none" stroke="none"/><text fill="#000000" stroke="none" font-family="Arial" font-size="13px" font-style="normal" font-weight="bold" text-decoration="none" x="554.674072265625" y="194.5">runtime</text></g></g><g transform="translate(-10,-10) scale(1,1)"><rect fill="#C0C0C0" stroke="none" x="391.4683837890625" y="97" width="23.544335937500023" height="15" opacity="0.2"/></g><g transform="translate(-10,-10) scale(1,1)"><rect fill="#C0C0C0" stroke="none" x="391.4683837890625" y="111" width="58.86083984375" height="25" opacity="0.2"/></g><g transform="translate(-10,-10) scale(1,1)"><rect fill="#ffffff" stroke="none" x="384.4683837890625" y="105" width="58.86083984375" height="24"/></g><g transform="translate(-10,-10) scale(1,1)"><path fill="none" stroke="#000000" d="M 384.4683837890625 105 L 443.3292236328125 105 L 443.3292236328125 129 L 384.4683837890625 129 L 384.4683837890625 105 Z Z" stroke-miterlimit="10"/></g><g transform="translate(-10,-10) scale(1,1)"><rect fill="#ffffff" stroke="none" x="384.4683837890625" y="90" width="23.544335937500023" height="15"/></g><g transform="translate(-10,-10) scale(1,1)"><path fill="none" stroke="#000000" d="M 384.4683837890625 90 L 408.0127197265625 90 L 408.0127197265625 105 L 384.4683837890625 105 L 384.4683837890625 90 Z Z" stroke-miterlimit="10"/></g><g transform="translate(-10,-10) scale(1,1)"><rect fill="#ffffff" stroke="none" x="384.4683837890625" y="104" width="58.86083984375" height="25"/></g><g transform="translate(-10,-10) scale(1,1)"><path fill="none" stroke="#000000" d="M 384.4683837890625 104 L 443.3292236328125 104 L 443.3292236328125 129 L 384.4683837890625 129 L 384.4683837890625 104 Z Z" stroke-miterlimit="10"/></g><g transform="translate(-10,-10) scale(1,1)"><g><path fill="none" stroke="none"/><text fill="#000000" stroke="none" font-family="Arial" font-size="13px" font-style="normal" font-weight="bold" text-decoration="none" x="391.5042724609375" y="124.5">security</text></g></g><g transform="translate(-10,-10) scale(1,1)"><rect fill="#C0C0C0" stroke="none" x="481.3292236328125" y="97" width="19.600000000000023" height="15" opacity="0.2"/></g><g transform="translate(-10,-10) scale(1,1)"><rect fill="#C0C0C0" stroke="none" x="481.3292236328125" y="111" width="49" height="25" opacity="0.2"/></g><g transform="translate(-10,-10) scale(1,1)"><rect fill="#ffffff" stroke="none" x="474.3292236328125" y="105" width="49" height="24"/></g><g transform="translate(-10,-10) scale(1,1)"><path fill="none" stroke="#000000" d="M 474.3292236328125 105 L 523.3292236328125 105 L 523.3292236328125 129 L 474.3292236328125 129 L 474.3292236328125 105 Z Z" stroke-miterlimit="10"/></g><g transform="translate(-10,-10) scale(1,1)"><rect fill="#ffffff" stroke="none" x="474.3292236328125" y="90" width="19.600000000000023" height="15"/></g><g transform="translate(-10,-10) scale(1,1)"><path fill="none" stroke="#000000" d="M 474.3292236328125 90 L 493.9292236328125 90 L 493.9292236328125 105 L 474.3292236328125 105 L 474.3292236328125 90 Z Z" stroke-miterlimit="10"/></g><g transform="translate(-10,-10) scale(1,1)"><rect fill="#ffffff" stroke="none" x="474.3292236328125" y="104" width="49" height="25"/></g><g transform="translate(-10,-10) scale(1,1)"><path fill="none" stroke="#000000" d="M 474.3292236328125 104 L 523.3292236328125 104 L 523.3292236328125 129 L 474.3292236328125 129 L 474.3292236328125 104 Z Z" stroke-miterlimit="10"/></g><g transform="translate(-10,-10) scale(1,1)"><g><path fill="none" stroke="none"/><text fill="#000000" stroke="none" font-family="Arial" font-size="13px" font-style="normal" font-weight="bold" text-decoration="none" x="493.7701416015625" y="124.5">io</text></g></g><g transform="translate(-10,-10) scale(1,1)"><rect fill="#C0C0C0" stroke="none" x="561.3292236328125" y="97" width="19.600000000000023" height="15" opacity="0.2"/></g><g transform="translate(-10,-10) scale(1,1)"><rect fill="#C0C0C0" stroke="none" x="561.3292236328125" y="111" width="49" height="25" opacity="0.2"/></g><g transform="translate(-10,-10) scale(1,1)"><rect fill="#ffffff" stroke="none" x="554.3292236328125" y="105" width="49" height="24"/></g><g transform="translate(-10,-10) scale(1,1)"><path fill="none" stroke="#000000" d="M 554.3292236328125 105 L 603.3292236328125 105 L 603.3292236328125 129 L 554.3292236328125 129 L 554.3292236328125 105 Z Z" stroke-miterlimit="10"/></g><g transform="translate(-10,-10) scale(1,1)"><rect fill="#ffffff" stroke="none" x="554.3292236328125" y="90" width="19.600000000000023" height="15"/></g><g transform="translate(-10,-10) scale(1,1)"><path fill="none" stroke="#000000" d="M 554.3292236328125 90 L 573.9292236328125 90 L 573.9292236328125 105 L 554.3292236328125 105 L 554.3292236328125 90 Z Z" stroke-miterlimit="10"/></g><g transform="translate(-10,-10) scale(1,1)"><rect fill="#ffffff" stroke="none" x="554.3292236328125" y="104" width="49" height="25"/></g><g transform="translate(-10,-10) scale(1,1)"><path fill="none" stroke="#000000" d="M 554.3292236328125 104 L 603.3292236328125 104 L 603.3292236328125 129 L 554.3292236328125 129 L 554.3292236328125 104 Z Z" stroke-miterlimit="10"/></g><g transform="translate(-10,-10) scale(1,1)"><g><path fill="none" stroke="none"/><text fill="#000000" stroke="none" font-family="Arial" font-size="13px" font-style="normal" font-weight="bold" text-decoration="none" x="570.1551513671875" y="124.5">nio</text></g></g><g transform="translate(-10,-10) scale(1,1)"><rect fill="#C0C0C0" stroke="none" x="450.088623046875" y="27" width="44.646484375" height="15" opacity="0.2"/></g><g transform="translate(-10,-10) scale(1,1)"><rect fill="#C0C0C0" stroke="none" x="450.088623046875" y="41" width="111.6162109375" height="25" opacity="0.2"/></g><g transform="translate(-10,-10) scale(1,1)"><rect fill="#ffffff" stroke="none" x="443.088623046875" y="35" width="111.6162109375" height="24"/></g><g transform="translate(-10,-10) scale(1,1)"><path fill="none" stroke="#000000" d="M 443.088623046875 35 L 554.704833984375 35 L 554.704833984375 59 L 443.088623046875 59 L 443.088623046875 35 Z Z" stroke-miterlimit="10"/></g><g transform="translate(-10,-10) scale(1,1)"><rect fill="#ffffff" stroke="none" x="443.088623046875" y="20" width="44.646484375" height="15"/></g><g transform="translate(-10,-10) scale(1,1)"><path fill="none" stroke="#000000" d="M 443.088623046875 20 L 487.735107421875 20 L 487.735107421875 35 L 443.088623046875 35 L 443.088623046875 20 Z Z" stroke-miterlimit="10"/></g><g transform="translate(-10,-10) scale(1,1)"><rect fill="#ffffff" stroke="none" x="443.088623046875" y="34" width="111.6162109375" height="25"/></g><g transform="translate(-10,-10) scale(1,1)"><path fill="none" stroke="#000000" d="M 443.088623046875 34 L 554.704833984375 34 L 554.704833984375 59 L 443.088623046875 59 L 443.088623046875 34 Z Z" stroke-miterlimit="10"/></g><g transform="translate(-10,-10) scale(1,1)"><g><path fill="none" stroke="none"/><text fill="#000000" stroke="none" font-family="Arial" font-size="13px" font-style="normal" font-weight="bold" text-decoration="none" x="450.851318359375" y="54.5">ClassSpecializer</text></g></g><g transform="translate(-10,-10) scale(1,1)"><rect fill="#C0C0C0" stroke="none" x="592.704833984375" y="27" width="19.600000000000023" height="15" opacity="0.2"/></g><g transform="translate(-10,-10) scale(1,1)"><rect fill="#C0C0C0" stroke="none" x="592.704833984375" y="41" width="49" height="25" opacity="0.2"/></g><g transform="translate(-10,-10) scale(1,1)"><rect fill="#ffffff" stroke="none" x="585.704833984375" y="35" width="49" height="24"/></g><g transform="translate(-10,-10) scale(1,1)"><path fill="none" stroke="#000000" d="M 585.704833984375 35 L 634.704833984375 35 L 634.704833984375 59 L 585.704833984375 59 L 585.704833984375 35 Z Z" stroke-miterlimit="10"/></g><g transform="translate(-10,-10) scale(1,1)"><rect fill="#ffffff" stroke="none" x="585.704833984375" y="20" width="19.600000000000023" height="15"/></g><g transform="translate(-10,-10) scale(1,1)"><path fill="none" stroke="#000000" d="M 585.704833984375 20 L 605.304833984375 20 L 605.304833984375 35 L 585.704833984375 35 L 585.704833984375 20 Z Z" stroke-miterlimit="10"/></g><g transform="translate(-10,-10) scale(1,1)"><rect fill="#ffffff" stroke="none" x="585.704833984375" y="34" width="49" height="25"/></g><g transform="translate(-10,-10) scale(1,1)"><path fill="none" stroke="#000000" d="M 585.704833984375 34 L 634.704833984375 34 L 634.704833984375 59 L 585.704833984375 59 L 585.704833984375 34 Z Z" stroke-miterlimit="10"/></g><g transform="translate(-10,-10) scale(1,1)"><g><path fill="none" stroke="none"/><text fill="#000000" stroke="none" font-family="Arial" font-size="13px" font-style="normal" font-weight="bold" text-decoration="none" x="597.560302734375" y="54.5">Map</text></g></g><g transform="translate(-10,-10) scale(1,1)"><rect fill="#C0C0C0" stroke="none" x="672.704833984375" y="27" width="20.936718749999955" height="15" opacity="0.2"/></g><g transform="translate(-10,-10) scale(1,1)"><rect fill="#C0C0C0" stroke="none" x="672.704833984375" y="41" width="52.341796875" height="25" opacity="0.2"/></g><g transform="translate(-10,-10) scale(1,1)"><rect fill="#ffffff" stroke="none" x="665.704833984375" y="35" width="52.341796875" height="24"/></g><g transform="translate(-10,-10) scale(1,1)"><path fill="none" stroke="#000000" d="M 665.704833984375 35 L 718.046630859375 35 L 718.046630859375 59 L 665.704833984375 59 L 665.704833984375 35 Z Z" stroke-miterlimit="10"/></g><g transform="translate(-10,-10) scale(1,1)"><rect fill="#ffffff" stroke="none" x="665.704833984375" y="20" width="20.936718749999955" height="15"/></g><g transform="translate(-10,-10) scale(1,1)"><path fill="none" stroke="#000000" d="M 665.704833984375 20 L 686.641552734375 20 L 686.641552734375 35 L 665.704833984375 35 L 665.704833984375 20 Z Z" stroke-miterlimit="10"/></g><g transform="translate(-10,-10) scale(1,1)"><rect fill="#ffffff" stroke="none" x="665.704833984375" y="34" width="52.341796875" height="25"/></g><g transform="translate(-10,-10) scale(1,1)"><path fill="none" stroke="#000000" d="M 665.704833984375 34 L 718.046630859375 34 L 718.046630859375 59 L 665.704833984375 59 L 665.704833984375 34 Z Z" stroke-miterlimit="10"/></g><g transform="translate(-10,-10) scale(1,1)"><g><path fill="none" stroke="none"/><text fill="#000000" stroke="none" font-family="Arial" font-size="13px" font-style="normal" font-weight="bold" text-decoration="none" x="671.28076171875" y="54.5">Thread</text></g></g><g transform="translate(-10,-10) scale(1,1)"><rect fill="#C0C0C0" stroke="none" x="756.046630859375" y="27" width="19.600000000000023" height="15" opacity="0.2"/></g><g transform="translate(-10,-10) scale(1,1)"><rect fill="#C0C0C0" stroke="none" x="756.046630859375" y="41" width="49" height="25" opacity="0.2"/></g><g transform="translate(-10,-10) scale(1,1)"><rect fill="#ffffff" stroke="none" x="749.046630859375" y="35" width="49" height="24"/></g><g transform="translate(-10,-10) scale(1,1)"><path fill="none" stroke="#000000" d="M 749.046630859375 35 L 798.046630859375 35 L 798.046630859375 59 L 749.046630859375 59 L 749.046630859375 35 Z Z" stroke-miterlimit="10"/></g><g transform="translate(-10,-10) scale(1,1)"><rect fill="#ffffff" stroke="none" x="749.046630859375" y="20" width="19.600000000000023" height="15"/></g><g transform="translate(-10,-10) scale(1,1)"><path fill="none" stroke="#000000" d="M 749.046630859375 20 L 768.646630859375 20 L 768.646630859375 35 L 749.046630859375 35 L 749.046630859375 20 Z Z" stroke-miterlimit="10"/></g><g transform="translate(-10,-10) scale(1,1)"><rect fill="#ffffff" stroke="none" x="749.046630859375" y="34" width="49" height="25"/></g><g transform="translate(-10,-10) scale(1,1)"><path fill="none" stroke="#000000" d="M 749.046630859375 34 L 798.046630859375 34 L 798.046630859375 59 L 749.046630859375 59 L 749.046630859375 34 Z Z" stroke-miterlimit="10"/></g><g transform="translate(-10,-10) scale(1,1)"><g><path fill="none" stroke="none"/><text fill="#000000" stroke="none" font-family="Arial" font-size="13px" font-style="normal" font-weight="bold" text-decoration="none" x="765.237548828125" y="54.5">jdk</text></g></g><g transform="translate(-10,-10) scale(1,1)"><rect fill="#C0C0C0" stroke="none" x="752.56982421875" y="97" width="22.381445312499977" height="15" opacity="0.2"/></g><g transform="translate(-10,-10) scale(1,1)"><rect fill="#C0C0C0" stroke="none" x="752.56982421875" y="111" width="55.95361328125" height="25" opacity="0.2"/></g><g transform="translate(-10,-10) scale(1,1)"><rect fill="#ffffff" stroke="none" x="745.56982421875" y="105" width="55.95361328125" height="24"/></g><g transform="translate(-10,-10) scale(1,1)"><path fill="none" stroke="#000000" d="M 745.56982421875 105 L 801.5234375 105 L 801.5234375 129 L 745.56982421875 129 L 745.56982421875 105 Z Z" stroke-miterlimit="10"/></g><g transform="translate(-10,-10) scale(1,1)"><rect fill="#ffffff" stroke="none" x="745.56982421875" y="90" width="22.381445312499977" height="15"/></g><g transform="translate(-10,-10) scale(1,1)"><path fill="none" stroke="#000000" d="M 745.56982421875 90 L 767.95126953125 90 L 767.95126953125 105 L 745.56982421875 105 L 745.56982421875 90 Z Z" stroke-miterlimit="10"/></g><g transform="translate(-10,-10) scale(1,1)"><rect fill="#ffffff" stroke="none" x="745.56982421875" y="104" width="55.95361328125" height="25"/></g><g transform="translate(-10,-10) scale(1,1)"><path fill="none" stroke="#000000" d="M 745.56982421875 104 L 801.5234375 104 L 801.5234375 129 L 745.56982421875 129 L 745.56982421875 104 Z Z" stroke-miterlimit="10"/></g><g transform="translate(-10,-10) scale(1,1)"><g><path fill="none" stroke="none"/><text fill="#000000" stroke="none" font-family="Arial" font-size="13px" font-style="normal" font-weight="bold" text-decoration="none" x="752.22802734375" y="124.5">internal</text></g></g><g transform="translate(-10,-10) scale(1,1)"><rect fill="#C0C0C0" stroke="none" x="754.356689453125" y="167" width="20.951953125000045" height="15" opacity="0.2"/></g><g transform="translate(-10,-10) scale(1,1)"><rect fill="#C0C0C0" stroke="none" x="754.356689453125" y="181" width="52.3798828125" height="25" opacity="0.2"/></g><g transform="translate(-10,-10) scale(1,1)"><rect fill="#ffffff" stroke="none" x="747.356689453125" y="175" width="52.3798828125" height="24"/></g><g transform="translate(-10,-10) scale(1,1)"><path fill="none" stroke="#000000" d="M 747.356689453125 175 L 799.736572265625 175 L 799.736572265625 199 L 747.356689453125 199 L 747.356689453125 175 Z Z" stroke-miterlimit="10"/></g><g transform="translate(-10,-10) scale(1,1)"><rect fill="#ffffff" stroke="none" x="747.356689453125" y="160" width="20.951953125000045" height="15"/></g><g transform="translate(-10,-10) scale(1,1)"><path fill="none" stroke="#000000" d="M 747.356689453125 160 L 768.308642578125 160 L 768.308642578125 175 L 747.356689453125 175 L 747.356689453125 160 Z Z" stroke-miterlimit="10"/></g><g transform="translate(-10,-10) scale(1,1)"><rect fill="#ffffff" stroke="none" x="747.356689453125" y="174" width="52.3798828125" height="25"/></g><g transform="translate(-10,-10) scale(1,1)"><path fill="none" stroke="#000000" d="M 747.356689453125 174 L 799.736572265625 174 L 799.736572265625 199 L 747.356689453125 199 L 747.356689453125 174 Z Z" stroke-miterlimit="10"/></g><g transform="translate(-10,-10) scale(1,1)"><g><path fill="none" stroke="none"/><text fill="#000000" stroke="none" font-family="Arial" font-size="13px" font-style="normal" font-weight="bold" text-decoration="none" x="753.316650390625" y="194.5">access</text></g></g><g transform="translate(-10,-10) scale(1,1)"><rect fill="#C0C0C0" stroke="none" x="836.046630859375" y="27" width="42.31308593749998" height="15" opacity="0.2"/></g><g transform="translate(-10,-10) scale(1,1)"><rect fill="#C0C0C0" stroke="none" x="836.046630859375" y="41" width="105.78271484375" height="25" opacity="0.2"/></g><g transform="translate(-10,-10) scale(1,1)"><rect fill="#ffffff" stroke="none" x="829.046630859375" y="35" width="105.78271484375" height="24"/></g><g transform="translate(-10,-10) scale(1,1)"><path fill="none" stroke="#000000" d="M 829.046630859375 35 L 934.829345703125 35 L 934.829345703125 59 L 829.046630859375 59 L 829.046630859375 35 Z Z" stroke-miterlimit="10"/></g><g transform="translate(-10,-10) scale(1,1)"><rect fill="#ffffff" stroke="none" x="829.046630859375" y="20" width="42.31308593749998" height="15"/></g><g transform="translate(-10,-10) scale(1,1)"><path fill="none" stroke="#000000" d="M 829.046630859375 20 L 871.359716796875 20 L 871.359716796875 35 L 829.046630859375 35 L 829.046630859375 20 Z Z" stroke-miterlimit="10"/></g><g transform="translate(-10,-10) scale(1,1)"><rect fill="#ffffff" stroke="none" x="829.046630859375" y="34" width="105.78271484375" height="25"/></g><g transform="translate(-10,-10) scale(1,1)"><path fill="none" stroke="#000000" d="M 829.046630859375 34 L 934.829345703125 34 L 934.829345703125 59 L 829.046630859375 59 L 829.046630859375 34 Z Z" stroke-miterlimit="10"/></g><g transform="translate(-10,-10) scale(1,1)"><g><path fill="none" stroke="none"/><text fill="#000000" stroke="none" font-family="Arial" font-size="13px" font-style="normal" font-weight="bold" text-decoration="none" x="836.409423828125" y="54.5">MethodHandles</text></g></g><g transform="translate(-10,-10) scale(1,1)"><rect fill="#C0C0C0" stroke="none" x="972.829345703125" y="27" width="55.8818359375" height="15" opacity="0.2"/></g><g transform="translate(-10,-10) scale(1,1)"><rect fill="#C0C0C0" stroke="none" x="972.829345703125" y="41" width="139.70458984375" height="25" opacity="0.2"/></g><g transform="translate(-10,-10) scale(1,1)"><rect fill="#ffffff" stroke="none" x="965.829345703125" y="35" width="139.70458984375" height="24"/></g><g transform="translate(-10,-10) scale(1,1)"><path fill="none" stroke="#000000" d="M 965.829345703125 35 L 1105.533935546875 35 L 1105.533935546875 59 L 965.829345703125 59 L 965.829345703125 35 Z Z" stroke-miterlimit="10"/></g><g transform="translate(-10,-10) scale(1,1)"><rect fill="#ffffff" stroke="none" x="965.829345703125" y="20" width="55.8818359375" height="15"/></g><g transform="translate(-10,-10) scale(1,1)"><path fill="none" stroke="#000000" d="M 965.829345703125 20 L 1021.711181640625 20 L 1021.711181640625 35 L 965.829345703125 35 L 965.829345703125 20 Z Z" stroke-miterlimit="10"/></g><g transform="translate(-10,-10) scale(1,1)"><rect fill="#ffffff" stroke="none" x="965.829345703125" y="34" width="139.70458984375" height="25"/></g><g transform="translate(-10,-10) scale(1,1)"><path fill="none" stroke="#000000" d="M 965.829345703125 34 L 1105.533935546875 34 L 1105.533935546875 59 L 965.829345703125 59 L 965.829345703125 34 Z Z" stroke-miterlimit="10"/></g><g transform="translate(-10,-10) scale(1,1)"><g><path fill="none" stroke="none"/><text fill="#000000" stroke="none" font-family="Arial" font-size="13px" font-style="normal" font-weight="bold" text-decoration="none" x="974.607666015625" y="54.5">BoundMethodHandle</text></g></g><g transform="translate(-10,-10) scale(1,1)"><rect fill="#C0C0C0" stroke="none" x="1143.533935546875" y="27" width="36.53671875000009" height="15" opacity="0.2"/></g><g transform="translate(-10,-10) scale(1,1)"><rect fill="#C0C0C0" stroke="none" x="1143.533935546875" y="41" width="91.341796875" height="25" opacity="0.2"/></g><g transform="translate(-10,-10) scale(1,1)"><rect fill="#ffffff" stroke="none" x="1136.533935546875" y="35" width="91.341796875" height="24"/></g><g transform="translate(-10,-10) scale(1,1)"><path fill="none" stroke="#000000" d="M 1136.533935546875 35 L 1227.875732421875 35 L 1227.875732421875 59 L 1136.533935546875 59 L 1136.533935546875 35 Z Z" stroke-miterlimit="10"/></g><g transform="translate(-10,-10) scale(1,1)"><rect fill="#ffffff" stroke="none" x="1136.533935546875" y="20" width="36.53671875000009" height="15"/></g><g transform="translate(-10,-10) scale(1,1)"><path fill="none" stroke="#000000" d="M 1136.533935546875 20 L 1173.070654296875 20 L 1173.070654296875 35 L 1136.533935546875 35 L 1136.533935546875 20 Z Z" stroke-miterlimit="10"/></g><g transform="translate(-10,-10) scale(1,1)"><rect fill="#ffffff" stroke="none" x="1136.533935546875" y="34" width="91.341796875" height="25"/></g><g transform="translate(-10,-10) scale(1,1)"><path fill="none" stroke="#000000" d="M 1136.533935546875 34 L 1227.875732421875 34 L 1227.875732421875 59 L 1136.533935546875 59 L 1136.533935546875 34 Z Z" stroke-miterlimit="10"/></g><g transform="translate(-10,-10) scale(1,1)"><g><path fill="none" stroke="none"/><text fill="#000000" stroke="none" font-family="Arial" font-size="13px" font-style="normal" font-weight="bold" text-decoration="none" x="1143.55078125" y="54.5">LambdaForm</text></g></g><g transform="translate(-10,-10) scale(1,1)"><rect fill="#C0C0C0" stroke="none" x="1265.875732421875" y="27" width="29.03378906250009" height="15" opacity="0.2"/></g><g transform="translate(-10,-10) scale(1,1)"><rect fill="#C0C0C0" stroke="none" x="1265.875732421875" y="41" width="72.58447265625" height="25" opacity="0.2"/></g><g transform="translate(-10,-10) scale(1,1)"><rect fill="#ffffff" stroke="none" x="1258.875732421875" y="35" width="72.58447265625" height="24"/></g><g transform="translate(-10,-10) scale(1,1)"><path fill="none" stroke="#000000" d="M 1258.875732421875 35 L 1331.460205078125 35 L 1331.460205078125 59 L 1258.875732421875 59 L 1258.875732421875 35 Z Z" stroke-miterlimit="10"/></g><g transform="translate(-10,-10) scale(1,1)"><rect fill="#ffffff" stroke="none" x="1258.875732421875" y="20" width="29.03378906250009" height="15"/></g><g transform="translate(-10,-10) scale(1,1)"><path fill="none" stroke="#000000" d="M 1258.875732421875 20 L 1287.909521484375 20 L 1287.909521484375 35 L 1258.875732421875 35 L 1258.875732421875 20 Z Z" stroke-miterlimit="10"/></g><g transform="translate(-10,-10) scale(1,1)"><rect fill="#ffffff" stroke="none" x="1258.875732421875" y="34" width="72.58447265625" height="25"/></g><g transform="translate(-10,-10) scale(1,1)"><path fill="none" stroke="#000000" d="M 1258.875732421875 34 L 1331.460205078125 34 L 1331.460205078125 59 L 1258.875732421875 59 L 1258.875732421875 34 Z Z" stroke-miterlimit="10"/></g><g transform="translate(-10,-10) scale(1,1)"><g><path fill="none" stroke="none"/><text fill="#000000" stroke="none" font-family="Arial" font-size="13px" font-style="normal" font-weight="bold" text-decoration="none" x="1264.937255859375" y="54.5">VarHandle</text></g></g><g transform="translate(-10,-10) scale(1,1)"><rect fill="#C0C0C0" stroke="none" x="1369.460205078125" y="27" width="50.110546874999955" height="15" opacity="0.2"/></g><g transform="translate(-10,-10) scale(1,1)"><rect fill="#C0C0C0" stroke="none" x="1369.460205078125" y="41" width="125.2763671875" height="25" opacity="0.2"/></g><g transform="translate(-10,-10) scale(1,1)"><rect fill="#ffffff" stroke="none" x="1362.460205078125" y="35" width="125.2763671875" height="24"/></g><g transform="translate(-10,-10) scale(1,1)"><path fill="none" stroke="#000000" d="M 1362.460205078125 35 L 1487.736572265625 35 L 1487.736572265625 59 L 1362.460205078125 59 L 1362.460205078125 35 Z Z" stroke-miterlimit="10"/></g><g transform="translate(-10,-10) scale(1,1)"><rect fill="#ffffff" stroke="none" x="1362.460205078125" y="20" width="50.110546874999955" height="15"/></g><g transform="translate(-10,-10) scale(1,1)"><path fill="none" stroke="#000000" d="M 1362.460205078125 20 L 1412.570751953125 20 L 1412.570751953125 35 L 1362.460205078125 35 L 1362.460205078125 20 Z Z" stroke-miterlimit="10"/></g><g transform="translate(-10,-10) scale(1,1)"><rect fill="#ffffff" stroke="none" x="1362.460205078125" y="34" width="125.2763671875" height="25"/></g><g transform="translate(-10,-10) scale(1,1)"><path fill="none" stroke="#000000" d="M 1362.460205078125 34 L 1487.736572265625 34 L 1487.736572265625 59 L 1362.460205078125 59 L 1362.460205078125 34 Z Z" stroke-miterlimit="10"/></g><g transform="translate(-10,-10) scale(1,1)"><g><path fill="none" stroke="none"/><text fill="#000000" stroke="none" font-family="Arial" font-size="13px" font-style="normal" font-weight="bold" text-decoration="none" x="1370.540283203125" y="54.5">MethodHandleImpl</text></g></g><g transform="translate(-10,-10) scale(1,1)"><rect fill="#C0C0C0" stroke="none" x="1525.736572265625" y="27" width="19.59999999999991" height="15" opacity="0.2"/></g><g transform="translate(-10,-10) scale(1,1)"><rect fill="#C0C0C0" stroke="none" x="1525.736572265625" y="41" width="49" height="25" opacity="0.2"/></g><g transform="translate(-10,-10) scale(1,1)"><rect fill="#ffffff" stroke="none" x="1518.736572265625" y="35" width="49" height="24"/></g><g transform="translate(-10,-10) scale(1,1)"><path fill="none" stroke="#000000" d="M 1518.736572265625 35 L 1567.736572265625 35 L 1567.736572265625 59 L 1518.736572265625 59 L 1518.736572265625 35 Z Z" stroke-miterlimit="10"/></g><g transform="translate(-10,-10) scale(1,1)"><rect fill="#ffffff" stroke="none" x="1518.736572265625" y="20" width="19.59999999999991" height="15"/></g><g transform="translate(-10,-10) scale(1,1)"><path fill="none" stroke="#000000" d="M 1518.736572265625 20 L 1538.336572265625 20 L 1538.336572265625 35 L 1518.736572265625 35 L 1518.736572265625 20 Z Z" stroke-miterlimit="10"/></g><g transform="translate(-10,-10) scale(1,1)"><rect fill="#ffffff" stroke="none" x="1518.736572265625" y="34" width="49" height="25"/></g><g transform="translate(-10,-10) scale(1,1)"><path fill="none" stroke="#000000" d="M 1518.736572265625 34 L 1567.736572265625 34 L 1567.736572265625 59 L 1518.736572265625 59 L 1518.736572265625 34 Z Z" stroke-miterlimit="10"/></g><g transform="translate(-10,-10) scale(1,1)"><g><path fill="none" stroke="none"/><text fill="#000000" stroke="none" font-family="Arial" font-size="13px" font-style="normal" font-weight="bold" text-decoration="none" x="1525.16796875" y="54.5">Signal</text></g></g><g transform="translate(-10,-10) scale(1,1)"><rect fill="#C0C0C0" stroke="none" x="1605.736572265625" y="27" width="34.51816406250009" height="15" opacity="0.2"/></g><g transform="translate(-10,-10) scale(1,1)"><rect fill="#C0C0C0" stroke="none" x="1605.736572265625" y="41" width="86.29541015625" height="25" opacity="0.2"/></g><g transform="translate(-10,-10) scale(1,1)"><rect fill="#ffffff" stroke="none" x="1598.736572265625" y="35" width="86.29541015625" height="24"/></g><g transform="translate(-10,-10) scale(1,1)"><path fill="none" stroke="#000000" d="M 1598.736572265625 35 L 1685.031982421875 35 L 1685.031982421875 59 L 1598.736572265625 59 L 1598.736572265625 35 Z Z" stroke-miterlimit="10"/></g><g transform="translate(-10,-10) scale(1,1)"><rect fill="#ffffff" stroke="none" x="1598.736572265625" y="20" width="34.51816406250009" height="15"/></g><g transform="translate(-10,-10) scale(1,1)"><path fill="none" stroke="#000000" d="M 1598.736572265625 20 L 1633.254736328125 20 L 1633.254736328125 35 L 1598.736572265625 35 L 1598.736572265625 20 Z Z" stroke-miterlimit="10"/></g><g transform="translate(-10,-10) scale(1,1)"><rect fill="#ffffff" stroke="none" x="1598.736572265625" y="34" width="86.29541015625" height="25"/></g><g transform="translate(-10,-10) scale(1,1)"><path fill="none" stroke="#000000" d="M 1598.736572265625 34 L 1685.031982421875 34 L 1685.031982421875 59 L 1598.736572265625 59 L 1598.736572265625 34 Z Z" stroke-miterlimit="10"/></g><g transform="translate(-10,-10) scale(1,1)"><g><path fill="none" stroke="none"/><text fill="#000000" stroke="none" font-family="Arial" font-size="13px" font-style="normal" font-weight="bold" text-decoration="none" x="1605.750244140625" y="54.5">ThreadLocal</text></g></g><g transform="translate(-10,-10) scale(1,1)"><rect fill="#C0C0C0" stroke="none" x="1723.031982421875" y="27" width="57.920703125000045" height="15" opacity="0.2"/></g><g transform="translate(-10,-10) scale(1,1)"><rect fill="#C0C0C0" stroke="none" x="1723.031982421875" y="41" width="144.8017578125" height="25" opacity="0.2"/></g><g transform="translate(-10,-10) scale(1,1)"><rect fill="#ffffff" stroke="none" x="1716.031982421875" y="35" width="144.8017578125" height="24"/></g><g transform="translate(-10,-10) scale(1,1)"><path fill="none" stroke="#000000" d="M 1716.031982421875 35 L 1860.833740234375 35 L 1860.833740234375 59 L 1716.031982421875 59 L 1716.031982421875 35 Z Z" stroke-miterlimit="10"/></g><g transform="translate(-10,-10) scale(1,1)"><rect fill="#ffffff" stroke="none" x="1716.031982421875" y="20" width="57.920703125000045" height="15"/></g><g transform="translate(-10,-10) scale(1,1)"><path fill="none" stroke="#000000" d="M 1716.031982421875 20 L 1773.952685546875 20 L 1773.952685546875 35 L 1716.031982421875 35 L 1716.031982421875 20 Z Z" stroke-miterlimit="10"/></g><g transform="translate(-10,-10) scale(1,1)"><rect fill="#ffffff" stroke="none" x="1716.031982421875" y="34" width="144.8017578125" height="25"/></g><g transform="translate(-10,-10) scale(1,1)"><path fill="none" stroke="#000000" d="M 1716.031982421875 34 L 1860.833740234375 34 L 1860.833740234375 59 L 1716.031982421875 59 L 1716.031982421875 34 Z Z" stroke-miterlimit="10"/></g><g transform="translate(-10,-10) scale(1,1)"><g><path fill="none" stroke="none"/><text fill="#000000" stroke="none" font-family="Arial" font-size="13px" font-style="normal" font-weight="bold" text-decoration="none" x="1724.480224609375" y="54.5">MethodHandleNatives</text></g></g><g transform="translate(-10,-10) scale(1,1)"><path fill="none" stroke="#000000" d="M 194 89 Q 194 75 362 44" stroke-miterlimit="10"/></g><g transform="translate(-10,-10) scale(1,1)"><path fill="#FFFFFF" stroke="none" d="M 348.11621222156606 45.27022274483007 C 348.11621222156606 41.40422914483007 351.25021862156603 38.27022274483007 355.11621222156606 38.27022274483007 C 358.9822058215661 38.27022274483007 362.11621222156606 41.40422914483007 362.11621222156606 45.27022274483007 C 362.11621222156606 49.136216344830075 358.9822058215661 52.27022274483007 355.11621222156606 52.27022274483007 C 351.25021862156603 52.27022274483007 348.11621222156606 49.136216344830075 348.11621222156606 45.27022274483007 Z"/></g><g transform="translate(-10,-10) scale(1,1)"><path fill="none" stroke="#000000" d="M 348.11621222156606 45.27022274483007 C 348.11621222156606 41.40422914483007 351.25021862156603 38.27022274483007 355.11621222156606 38.27022274483007 C 358.9822058215661 38.27022274483007 362.11621222156606 41.40422914483007 362.11621222156606 45.27022274483007 C 362.11621222156606 49.136216344830075 358.9822058215661 52.27022274483007 355.11621222156606 52.27022274483007 C 351.25021862156603 52.27022274483007 348.11621222156606 49.136216344830075 348.11621222156606 45.27022274483007 Z" stroke-miterlimit="10"/></g><g transform="translate(-10,-10) scale(1,1)"><path fill="none" stroke="#000000" d="M 348.2324244431321 46.540445489660144 L 362 44" stroke-miterlimit="10"/></g><g transform="translate(-10,-10) scale(1,1)"><path fill="none" stroke="#000000" d="M 356.3864349663961 52.154010523264006 L 353.845989476736 38.38643496639614" stroke-miterlimit="10"/></g><g transform="translate(-10,-10) scale(1,1)"><path fill="none" stroke="#000000" d="M 58 159 Q 58 145 168 116" stroke-miterlimit="10"/></g><g transform="translate(-10,-10) scale(1,1)"><path fill="#FFFFFF" stroke="none" d="M 154.23127598741686 117.78448178513555 C 154.23127598741686 113.91848818513556 157.36528238741687 110.78448178513555 161.23127598741686 110.78448178513555 C 165.09726958741686 110.78448178513555 168.23127598741686 113.91848818513556 168.23127598741686 117.78448178513555 C 168.23127598741686 121.65047538513555 165.09726958741686 124.78448178513555 161.23127598741686 124.78448178513555 C 157.36528238741687 124.78448178513555 154.23127598741686 121.65047538513555 154.23127598741686 117.78448178513555 Z"/></g><g transform="translate(-10,-10) scale(1,1)"><path fill="none" stroke="#000000" d="M 154.23127598741686 117.78448178513555 C 154.23127598741686 113.91848818513556 157.36528238741687 110.78448178513555 161.23127598741686 110.78448178513555 C 165.09726958741686 110.78448178513555 168.23127598741686 113.91848818513556 168.23127598741686 117.78448178513555 C 168.23127598741686 121.65047538513555 165.09726958741686 124.78448178513555 161.23127598741686 124.78448178513555 C 157.36528238741687 124.78448178513555 154.23127598741686 121.65047538513555 154.23127598741686 117.78448178513555 Z" stroke-miterlimit="10"/></g><g transform="translate(-10,-10) scale(1,1)"><path fill="none" stroke="#000000" d="M 154.46255197483373 119.56896357027111 L 168 116" stroke-miterlimit="10"/></g><g transform="translate(-10,-10) scale(1,1)"><path fill="none" stroke="#000000" d="M 163.0157577725524 124.55320579771868 L 159.44679420228132 111.01575777255243" stroke-miterlimit="10"/></g><g transform="translate(-10,-10) scale(1,1)"><path fill="none" stroke="#000000" d="M 159 159 Q 159 145 173 130" stroke-miterlimit="10"/></g><g transform="translate(-10,-10) scale(1,1)"><path fill="#FFFFFF" stroke="none" d="M 161.22377224747993 135.11738687770008 C 161.22377224747993 131.2513932777001 164.35777864747993 128.11738687770008 168.22377224747993 128.11738687770008 C 172.08976584747992 128.11738687770008 175.22377224747993 131.2513932777001 175.22377224747993 135.11738687770008 C 175.22377224747993 138.98338047770008 172.08976584747992 142.11738687770008 168.22377224747993 142.11738687770008 C 164.35777864747993 142.11738687770008 161.22377224747993 138.98338047770008 161.22377224747993 135.11738687770008 Z"/></g><g transform="translate(-10,-10) scale(1,1)"><path fill="none" stroke="#000000" d="M 161.22377224747993 135.11738687770008 C 161.22377224747993 131.2513932777001 164.35777864747993 128.11738687770008 168.22377224747993 128.11738687770008 C 172.08976584747992 128.11738687770008 175.22377224747993 131.2513932777001 175.22377224747993 135.11738687770008 C 175.22377224747993 138.98338047770008 172.08976584747992 142.11738687770008 168.22377224747993 142.11738687770008 C 164.35777864747993 142.11738687770008 161.22377224747993 138.98338047770008 161.22377224747993 135.11738687770008 Z" stroke-miterlimit="10"/></g><g transform="translate(-10,-10) scale(1,1)"><path fill="none" stroke="#000000" d="M 163.44754449495986 140.23477375540017 L 173 130" stroke-miterlimit="10"/></g><g transform="translate(-10,-10) scale(1,1)"><path fill="none" stroke="#000000" d="M 173.34115912518 139.89361463022016 L 163.10638536977984 130.34115912518" stroke-miterlimit="10"/></g><g transform="translate(-10,-10) scale(1,1)"><path fill="none" stroke="#000000" d="M 246 159 Q 246 145 219 127" stroke-miterlimit="10"/></g><g transform="translate(-10,-10) scale(1,1)"><path fill="#FFFFFF" stroke="none" d="M 217.8243520603649 130.8829013735766 C 217.8243520603649 127.0169077735766 220.9583584603649 123.8829013735766 224.8243520603649 123.8829013735766 C 228.6903456603649 123.8829013735766 231.8243520603649 127.0169077735766 231.8243520603649 130.8829013735766 C 231.8243520603649 134.7488949735766 228.6903456603649 137.8829013735766 224.8243520603649 137.8829013735766 C 220.9583584603649 137.8829013735766 217.8243520603649 134.7488949735766 217.8243520603649 130.8829013735766 Z"/></g><g transform="translate(-10,-10) scale(1,1)"><path fill="none" stroke="#000000" d="M 217.8243520603649 130.8829013735766 C 217.8243520603649 127.0169077735766 220.9583584603649 123.8829013735766 224.8243520603649 123.8829013735766 C 228.6903456603649 123.8829013735766 231.8243520603649 127.0169077735766 231.8243520603649 130.8829013735766 C 231.8243520603649 134.7488949735766 228.6903456603649 137.8829013735766 224.8243520603649 137.8829013735766 C 220.9583584603649 137.8829013735766 217.8243520603649 134.7488949735766 217.8243520603649 130.8829013735766 Z" stroke-miterlimit="10"/></g><g transform="translate(-10,-10) scale(1,1)"><path fill="none" stroke="#000000" d="M 230.6487041207298 134.7658027471532 L 219 127" stroke-miterlimit="10"/></g><g transform="translate(-10,-10) scale(1,1)"><path fill="none" stroke="#000000" d="M 228.7072534339415 125.0585493132117 L 220.9414506867883 136.7072534339415" stroke-miterlimit="10"/></g><g transform="translate(-10,-10) scale(1,1)"><path fill="none" stroke="#000000" d="M 330 159 Q 330 145 219 116" stroke-miterlimit="10"/></g><g transform="translate(-10,-10) scale(1,1)"><path fill="#FFFFFF" stroke="none" d="M 218.77267250374865 117.76943696043884 C 218.77267250374865 113.90344336043884 221.90667890374866 110.76943696043884 225.77267250374865 110.76943696043884 C 229.63866610374865 110.76943696043884 232.77267250374865 113.90344336043884 232.77267250374865 117.76943696043884 C 232.77267250374865 121.63543056043883 229.63866610374865 124.76943696043884 225.77267250374865 124.76943696043884 C 221.90667890374866 124.76943696043884 218.77267250374865 121.63543056043883 218.77267250374865 117.76943696043884 Z"/></g><g transform="translate(-10,-10) scale(1,1)"><path fill="none" stroke="#000000" d="M 218.77267250374865 117.76943696043884 C 218.77267250374865 113.90344336043884 221.90667890374866 110.76943696043884 225.77267250374865 110.76943696043884 C 229.63866610374865 110.76943696043884 232.77267250374865 113.90344336043884 232.77267250374865 117.76943696043884 C 232.77267250374865 121.63543056043883 229.63866610374865 124.76943696043884 225.77267250374865 124.76943696043884 C 221.90667890374866 124.76943696043884 218.77267250374865 121.63543056043883 218.77267250374865 117.76943696043884 Z" stroke-miterlimit="10"/></g><g transform="translate(-10,-10) scale(1,1)"><path fill="none" stroke="#000000" d="M 232.5453450074973 119.53887392087768 L 219 116" stroke-miterlimit="10"/></g><g transform="translate(-10,-10) scale(1,1)"><path fill="none" stroke="#000000" d="M 227.5421094641875 110.99676445669019 L 224.0032355433098 124.54210946418749" stroke-miterlimit="10"/></g><g transform="translate(-10,-10) scale(1,1)"><path fill="none" stroke="#000000" d="M 413 159 Q 413 145 219 113" stroke-miterlimit="10"/></g><g transform="translate(-10,-10) scale(1,1)"><path fill="#FFFFFF" stroke="none" d="M 218.90667221282104 114.13924490108388 C 218.90667221282104 110.27325130108389 222.04067861282104 107.13924490108388 225.90667221282104 107.13924490108388 C 229.77266581282103 107.13924490108388 232.90667221282104 110.27325130108389 232.90667221282104 114.13924490108388 C 232.90667221282104 118.00523850108388 229.77266581282103 121.13924490108388 225.90667221282104 121.13924490108388 C 222.04067861282104 121.13924490108388 218.90667221282104 118.00523850108388 218.90667221282104 114.13924490108388 Z"/></g><g transform="translate(-10,-10) scale(1,1)"><path fill="none" stroke="#000000" d="M 218.90667221282104 114.13924490108388 C 218.90667221282104 110.27325130108389 222.04067861282104 107.13924490108388 225.90667221282104 107.13924490108388 C 229.77266581282103 107.13924490108388 232.90667221282104 110.27325130108389 232.90667221282104 114.13924490108388 C 232.90667221282104 118.00523850108388 229.77266581282103 121.13924490108388 225.90667221282104 121.13924490108388 C 222.04067861282104 121.13924490108388 218.90667221282104 118.00523850108388 218.90667221282104 114.13924490108388 Z" stroke-miterlimit="10"/></g><g transform="translate(-10,-10) scale(1,1)"><path fill="none" stroke="#000000" d="M 232.8133444256421 115.27848980216777 L 219 113" stroke-miterlimit="10"/></g><g transform="translate(-10,-10) scale(1,1)"><path fill="none" stroke="#000000" d="M 227.04591711390492 107.23257268826283 L 224.76742731173715 121.04591711390493" stroke-miterlimit="10"/></g><g transform="translate(-10,-10) scale(1,1)"><path fill="none" stroke="#000000" d="M 493 159 Q 493 145 219 112" stroke-miterlimit="10"/></g><g transform="translate(-10,-10) scale(1,1)"><path fill="#FFFFFF" stroke="none" d="M 218.94977716281238 112.837016957565 C 218.94977716281238 108.971023357565 222.08378356281239 105.837016957565 225.94977716281238 105.837016957565 C 229.81577076281238 105.837016957565 232.94977716281238 108.971023357565 232.94977716281238 112.837016957565 C 232.94977716281238 116.703010557565 229.81577076281238 119.837016957565 225.94977716281238 119.837016957565 C 222.08378356281239 119.837016957565 218.94977716281238 116.703010557565 218.94977716281238 112.837016957565 Z"/></g><g transform="translate(-10,-10) scale(1,1)"><path fill="none" stroke="#000000" d="M 218.94977716281238 112.837016957565 C 218.94977716281238 108.971023357565 222.08378356281239 105.837016957565 225.94977716281238 105.837016957565 C 229.81577076281238 105.837016957565 232.94977716281238 108.971023357565 232.94977716281238 112.837016957565 C 232.94977716281238 116.703010557565 229.81577076281238 119.837016957565 225.94977716281238 119.837016957565 C 222.08378356281239 119.837016957565 218.94977716281238 116.703010557565 218.94977716281238 112.837016957565 Z" stroke-miterlimit="10"/></g><g transform="translate(-10,-10) scale(1,1)"><path fill="none" stroke="#000000" d="M 232.8995543256248 113.67403391513 L 219 112" stroke-miterlimit="10"/></g><g transform="translate(-10,-10) scale(1,1)"><path fill="none" stroke="#000000" d="M 226.78679412037738 105.8872397947526 L 225.11276020524738 119.7867941203774" stroke-miterlimit="10"/></g><g transform="translate(-10,-10) scale(1,1)"><path fill="none" stroke="#000000" d="M 577 159 Q 577 145 219 111" stroke-miterlimit="10"/></g><g transform="translate(-10,-10) scale(1,1)"><path fill="#FFFFFF" stroke="none" d="M 218.96864303661258 111.66182643364478 C 218.96864303661258 107.79583283364478 222.10264943661258 104.66182643364478 225.96864303661258 104.66182643364478 C 229.83463663661257 104.66182643364478 232.96864303661258 107.79583283364478 232.96864303661258 111.66182643364478 C 232.96864303661258 115.52782003364477 229.83463663661257 118.66182643364478 225.96864303661258 118.66182643364478 C 222.10264943661258 118.66182643364478 218.96864303661258 115.52782003364477 218.96864303661258 111.66182643364478 Z"/></g><g transform="translate(-10,-10) scale(1,1)"><path fill="none" stroke="#000000" d="M 218.96864303661258 111.66182643364478 C 218.96864303661258 107.79583283364478 222.10264943661258 104.66182643364478 225.96864303661258 104.66182643364478 C 229.83463663661257 104.66182643364478 232.96864303661258 107.79583283364478 232.96864303661258 111.66182643364478 C 232.96864303661258 115.52782003364477 229.83463663661257 118.66182643364478 225.96864303661258 118.66182643364478 C 222.10264943661258 118.66182643364478 218.96864303661258 115.52782003364477 218.96864303661258 111.66182643364478 Z" stroke-miterlimit="10"/></g><g transform="translate(-10,-10) scale(1,1)"><path fill="none" stroke="#000000" d="M 232.93728607322515 112.32365286728954 L 219 111" stroke-miterlimit="10"/></g><g transform="translate(-10,-10) scale(1,1)"><path fill="none" stroke="#000000" d="M 226.63046947025734 104.69318339703219 L 225.3068166029678 118.63046947025737" stroke-miterlimit="10"/></g><g transform="translate(-10,-10) scale(1,1)"><path fill="none" stroke="#000000" d="M 414 89 Q 414 75 403 60" stroke-miterlimit="10"/></g><g transform="translate(-10,-10) scale(1,1)"><path fill="#FFFFFF" stroke="none" d="M 400.1395456453926 65.64483497098993 C 400.1395456453926 61.77884137098993 403.2735520453926 58.64483497098993 407.1395456453926 58.64483497098993 C 411.00553924539264 58.64483497098993 414.1395456453926 61.77884137098993 414.1395456453926 65.64483497098993 C 414.1395456453926 69.51082857098993 411.00553924539264 72.64483497098993 407.1395456453926 72.64483497098993 C 403.2735520453926 72.64483497098993 400.1395456453926 69.51082857098993 400.1395456453926 65.64483497098993 Z"/></g><g transform="translate(-10,-10) scale(1,1)"><path fill="none" stroke="#000000" d="M 400.1395456453926 65.64483497098993 C 400.1395456453926 61.77884137098993 403.2735520453926 58.64483497098993 407.1395456453926 58.64483497098993 C 411.00553924539264 58.64483497098993 414.1395456453926 61.77884137098993 414.1395456453926 65.64483497098993 C 414.1395456453926 69.51082857098993 411.00553924539264 72.64483497098993 407.1395456453926 72.64483497098993 C 403.2735520453926 72.64483497098993 400.1395456453926 69.51082857098993 400.1395456453926 65.64483497098993 Z" stroke-miterlimit="10"/></g><g transform="translate(-10,-10) scale(1,1)"><path fill="none" stroke="#000000" d="M 411.27909129078523 71.28966994197988 L 403 60" stroke-miterlimit="10"/></g><g transform="translate(-10,-10) scale(1,1)"><path fill="none" stroke="#000000" d="M 412.7843806163826 61.50528932559731 L 401.49471067440265 69.78438061638255" stroke-miterlimit="10"/></g><g transform="translate(-10,-10) scale(1,1)"><path fill="none" stroke="#000000" d="M 499 89 Q 499 75 413 47" stroke-miterlimit="10"/></g><g transform="translate(-10,-10) scale(1,1)"><path fill="#FFFFFF" stroke="none" d="M 412.65610002040705 49.16710233222555 C 412.65610002040705 45.30110873222554 415.790106420407 42.16710233222555 419.65610002040705 42.16710233222555 C 423.5220936204071 42.16710233222555 426.65610002040705 45.30110873222554 426.65610002040705 49.16710233222555 C 426.65610002040705 53.03309593222555 423.5220936204071 56.16710233222555 419.65610002040705 56.16710233222555 C 415.790106420407 56.16710233222555 412.65610002040705 53.03309593222555 412.65610002040705 49.16710233222555 Z"/></g><g transform="translate(-10,-10) scale(1,1)"><path fill="none" stroke="#000000" d="M 412.65610002040705 49.16710233222555 C 412.65610002040705 45.30110873222554 415.790106420407 42.16710233222555 419.65610002040705 42.16710233222555 C 423.5220936204071 42.16710233222555 426.65610002040705 45.30110873222554 426.65610002040705 49.16710233222555 C 426.65610002040705 53.03309593222555 423.5220936204071 56.16710233222555 419.65610002040705 56.16710233222555 C 415.790106420407 56.16710233222555 412.65610002040705 53.03309593222555 412.65610002040705 49.16710233222555 Z" stroke-miterlimit="10"/></g><g transform="translate(-10,-10) scale(1,1)"><path fill="none" stroke="#000000" d="M 426.3122000408141 51.33420466445109 L 413 47" stroke-miterlimit="10"/></g><g transform="translate(-10,-10) scale(1,1)"><path fill="none" stroke="#000000" d="M 421.8232023526326 42.51100231181851 L 417.4889976881815 55.823202352632585" stroke-miterlimit="10"/></g><g transform="translate(-10,-10) scale(1,1)"><path fill="none" stroke="#000000" d="M 579 89 Q 579 75 413 44" stroke-miterlimit="10"/></g><g transform="translate(-10,-10) scale(1,1)"><path fill="#FFFFFF" stroke="none" d="M 412.8810420249014 45.28501387212014 C 412.8810420249014 41.419020272120136 416.01504842490135 38.28501387212014 419.8810420249014 38.28501387212014 C 423.7470356249014 38.28501387212014 426.8810420249014 41.419020272120136 426.8810420249014 45.28501387212014 C 426.8810420249014 49.15100747212014 423.7470356249014 52.28501387212014 419.8810420249014 52.28501387212014 C 416.01504842490135 52.28501387212014 412.8810420249014 49.15100747212014 412.8810420249014 45.28501387212014 Z"/></g><g transform="translate(-10,-10) scale(1,1)"><path fill="none" stroke="#000000" d="M 412.8810420249014 45.28501387212014 C 412.8810420249014 41.419020272120136 416.01504842490135 38.28501387212014 419.8810420249014 38.28501387212014 C 423.7470356249014 38.28501387212014 426.8810420249014 41.419020272120136 426.8810420249014 45.28501387212014 C 426.8810420249014 49.15100747212014 423.7470356249014 52.28501387212014 419.8810420249014 52.28501387212014 C 416.01504842490135 52.28501387212014 412.8810420249014 49.15100747212014 412.8810420249014 45.28501387212014 Z" stroke-miterlimit="10"/></g><g transform="translate(-10,-10) scale(1,1)"><path fill="none" stroke="#000000" d="M 426.76208404980275 46.57002774424027 L 413 44" stroke-miterlimit="10"/></g><g transform="translate(-10,-10) scale(1,1)"><path fill="none" stroke="#000000" d="M 421.1660558970215 38.40397184721876 L 418.59602815278123 52.166055897021515" stroke-miterlimit="10"/></g><g transform="translate(-10,-10) scale(1,1)"><path fill="none" stroke="#000000" d="M 774 89 Q 774 75 774 60" stroke-miterlimit="10"/></g><g transform="translate(-10,-10) scale(1,1)"><path fill="#FFFFFF" stroke="none" d="M 767 67 C 767 63.1340064 770.1340064 60 774 60 C 777.8659936 60 781 63.1340064 781 67 C 781 70.8659936 777.8659936 74 774 74 C 770.1340064 74 767 70.8659936 767 67 Z"/></g><g transform="translate(-10,-10) scale(1,1)"><path fill="none" stroke="#000000" d="M 767 67 C 767 63.1340064 770.1340064 60 774 60 C 777.8659936 60 781 63.1340064 781 67 C 781 70.8659936 777.8659936 74 774 74 C 770.1340064 74 767 70.8659936 767 67 Z" stroke-miterlimit="10"/></g><g transform="translate(-10,-10) scale(1,1)"><path fill="none" stroke="#000000" d="M 774 74 L 774 60" stroke-miterlimit="10"/></g><g transform="translate(-10,-10) scale(1,1)"><path fill="none" stroke="#000000" d="M 781 67 L 767 67" stroke-miterlimit="10"/></g><g transform="translate(-10,-10) scale(1,1)"><path fill="none" stroke="#000000" d="M 774 159 Q 774 145 774 130" stroke-miterlimit="10"/></g><g transform="translate(-10,-10) scale(1,1)"><path fill="#FFFFFF" stroke="none" d="M 767 137 C 767 133.1340064 770.1340064 130 774 130 C 777.8659936 130 781 133.1340064 781 137 C 781 140.8659936 777.8659936 144 774 144 C 770.1340064 144 767 140.8659936 767 137 Z"/></g><g transform="translate(-10,-10) scale(1,1)"><path fill="none" stroke="#000000" d="M 767 137 C 767 133.1340064 770.1340064 130 774 130 C 777.8659936 130 781 133.1340064 781 137 C 781 140.8659936 777.8659936 144 774 144 C 770.1340064 144 767 140.8659936 767 137 Z" stroke-miterlimit="10"/></g><g transform="translate(-10,-10) scale(1,1)"><path fill="none" stroke="#000000" d="M 774 144 L 774 130" stroke-miterlimit="10"/></g><g transform="translate(-10,-10) scale(1,1)"><path fill="none" stroke="#000000" d="M 781 137 L 767 137" stroke-miterlimit="10"/></g></g></svg>