<svg version="1.1" xmlns="http://www.w3.org/2000/svg" xmlns:xlink="http://www.w3.org/1999/xlink" width="311.29345703125" height="68"><defs/><g><text fill="#eeeeee" stroke="none" font-family="Arial" font-size="24px" font-style="normal" font-weight="normal" text-decoration="none" x="0" y="0">UNREGISTERED</text><text fill="#eeeeee" stroke="none" font-family="Arial" font-size="24px" font-style="normal" font-weight="normal" text-decoration="none" x="0" y="30">UNREGISTERED</text><text fill="#eeeeee" stroke="none" font-family="Arial" font-size="24px" font-style="normal" font-weight="normal" text-decoration="none" x="0" y="60">UNREGISTERED</text><text fill="#eeeeee" stroke="none" font-family="Arial" font-size="24px" font-style="normal" font-weight="normal" text-decoration="none" x="200" y="0">UNREGISTERED</text><text fill="#eeeeee" stroke="none" font-family="Arial" font-size="24px" font-style="normal" font-weight="normal" text-decoration="none" x="200" y="30">UNREGISTERED</text><text fill="#eeeeee" stroke="none" font-family="Arial" font-size="24px" font-style="normal" font-weight="normal" text-decoration="none" x="200" y="60">UNREGISTERED</text><g transform="translate(-10,-10) scale(1,1)"><path fill="#C0C0C0" stroke="none" d="M 36.614990234375 38.5 C 36.614990234375 32.1487248 41.763715034375 27 48.114990234375 27 C 54.466265434375 27 59.614990234375 32.1487248 59.614990234375 38.5 C 59.614990234375 44.8512752 54.466265434375 50 48.114990234375 50 C 41.763715034375 50 36.614990234375 44.8512752 36.614990234375 38.5 Z" opacity="0.2"/></g><g transform="translate(-10,-10) scale(1,1)"><path fill="#ffffff" stroke="none" d="M 29.614990234375 31.5 C 29.614990234375 25.1487248 34.763715034375 20 41.114990234375 20 C 47.466265434375 20 52.614990234375 25.1487248 52.614990234375 31.5 C 52.614990234375 37.8512752 47.466265434375 43 41.114990234375 43 C 34.763715034375 43 29.614990234375 37.8512752 29.614990234375 31.5 Z"/></g><g transform="translate(-10,-10) scale(1,1)"><path fill="none" stroke="#000000" d="M 29.614990234375 31.5 C 29.614990234375 25.1487248 34.763715034375 20 41.114990234375 20 C 47.466265434375 20 52.614990234375 25.1487248 52.614990234375 31.5 C 52.614990234375 37.8512752 47.466265434375 43 41.114990234375 43 C 34.763715034375 43 29.614990234375 37.8512752 29.614990234375 31.5 Z" stroke-miterlimit="10"/></g><g transform="translate(-10,-10) scale(1,1)"><g><path fill="none" stroke="none"/><text fill="#000000" stroke="none" font-family="Arial" font-size="13px" font-style="normal" font-weight="bold" text-decoration="none" x="25.944091796875" y="62.5">Entry</text></g></g><g transform="translate(-10,-10) scale(1,1)"><rect fill="#C0C0C0" stroke="none" x="100.22998046875" y="39" width="87.37451171875" height="24" opacity="0.2"/></g><g transform="translate(-10,-10) scale(1,1)"><rect fill="#ffffff" stroke="none" x="93.22998046875" y="32" width="87.37451171875" height="24"/></g><g transform="translate(-10,-10) scale(1,1)"><path fill="none" stroke="#000000" d="M 93.22998046875 32 L 180.6044921875 32 L 180.6044921875 56 L 93.22998046875 56 L 93.22998046875 32 Z Z" stroke-miterlimit="10"/></g><g transform="translate(-10,-10) scale(1,1)"><g><path fill="none" stroke="none"/><text fill="#000000" stroke="none" font-family="Arial" font-size="13px" font-style="normal" font-weight="bold" text-decoration="none" x="100.970458984375" y="51.5">Entry&lt;String</text></g></g><g transform="translate(-10,-10) scale(1,1)"><rect fill="#C0C0C0" stroke="none" x="218.6044921875" y="39" width="99.68896484375" height="24" opacity="0.2"/></g><g transform="translate(-10,-10) scale(1,1)"><rect fill="#ffffff" stroke="none" x="211.6044921875" y="32" width="99.68896484375" height="24"/></g><g transform="translate(-10,-10) scale(1,1)"><path fill="none" stroke="#000000" d="M 211.6044921875 32 L 311.29345703125 32 L 311.29345703125 56 L 211.6044921875 56 L 211.6044921875 32 Z Z" stroke-miterlimit="10"/></g><g transform="translate(-10,-10) scale(1,1)"><g><path fill="none" stroke="none"/><text fill="#000000" stroke="none" font-family="Arial" font-size="13px" font-style="normal" font-weight="bold" text-decoration="none" x="219.116455078125" y="51.5">Entry&lt;Variable</text></g></g></g></svg>