<svg version="1.1" xmlns="http://www.w3.org/2000/svg" xmlns:xlink="http://www.w3.org/1999/xlink" width="720.99169921875" height="731"><defs/><g><text fill="#eeeeee" stroke="none" font-family="Arial" font-size="24px" font-style="normal" font-weight="normal" text-decoration="none" x="0" y="0">UNREGISTERED</text><text fill="#eeeeee" stroke="none" font-family="Arial" font-size="24px" font-style="normal" font-weight="normal" text-decoration="none" x="0" y="30">UNREGISTERED</text><text fill="#eeeeee" stroke="none" font-family="Arial" font-size="24px" font-style="normal" font-weight="normal" text-decoration="none" x="0" y="60">UNREGISTERED</text><text fill="#eeeeee" stroke="none" font-family="Arial" font-size="24px" font-style="normal" font-weight="normal" text-decoration="none" x="0" y="90">UNREGISTERED</text><text fill="#eeeeee" stroke="none" font-family="Arial" font-size="24px" font-style="normal" font-weight="normal" text-decoration="none" x="0" y="120">UNREGISTERED</text><text fill="#eeeeee" stroke="none" font-family="Arial" font-size="24px" font-style="normal" font-weight="normal" text-decoration="none" x="0" y="150">UNREGISTERED</text><text fill="#eeeeee" stroke="none" font-family="Arial" font-size="24px" font-style="normal" font-weight="normal" text-decoration="none" x="0" y="180">UNREGISTERED</text><text fill="#eeeeee" stroke="none" font-family="Arial" font-size="24px" font-style="normal" font-weight="normal" text-decoration="none" x="0" y="210">UNREGISTERED</text><text fill="#eeeeee" stroke="none" font-family="Arial" font-size="24px" font-style="normal" font-weight="normal" text-decoration="none" x="0" y="240">UNREGISTERED</text><text fill="#eeeeee" stroke="none" font-family="Arial" font-size="24px" font-style="normal" font-weight="normal" text-decoration="none" x="0" y="270">UNREGISTERED</text><text fill="#eeeeee" stroke="none" font-family="Arial" font-size="24px" font-style="normal" font-weight="normal" text-decoration="none" x="0" y="300">UNREGISTERED</text><text fill="#eeeeee" stroke="none" font-family="Arial" font-size="24px" font-style="normal" font-weight="normal" text-decoration="none" x="0" y="330">UNREGISTERED</text><text fill="#eeeeee" stroke="none" font-family="Arial" font-size="24px" font-style="normal" font-weight="normal" text-decoration="none" x="0" y="360">UNREGISTERED</text><text fill="#eeeeee" stroke="none" font-family="Arial" font-size="24px" font-style="normal" font-weight="normal" text-decoration="none" x="0" y="390">UNREGISTERED</text><text fill="#eeeeee" stroke="none" font-family="Arial" font-size="24px" font-style="normal" font-weight="normal" text-decoration="none" x="0" y="420">UNREGISTERED</text><text fill="#eeeeee" stroke="none" font-family="Arial" font-size="24px" font-style="normal" font-weight="normal" text-decoration="none" x="0" y="450">UNREGISTERED</text><text fill="#eeeeee" stroke="none" font-family="Arial" font-size="24px" font-style="normal" font-weight="normal" text-decoration="none" x="0" y="480">UNREGISTERED</text><text fill="#eeeeee" stroke="none" font-family="Arial" font-size="24px" font-style="normal" font-weight="normal" text-decoration="none" x="0" y="510">UNREGISTERED</text><text fill="#eeeeee" stroke="none" font-family="Arial" font-size="24px" font-style="normal" font-weight="normal" text-decoration="none" x="0" y="540">UNREGISTERED</text><text fill="#eeeeee" stroke="none" font-family="Arial" font-size="24px" font-style="normal" font-weight="normal" text-decoration="none" x="0" y="570">UNREGISTERED</text><text fill="#eeeeee" stroke="none" font-family="Arial" font-size="24px" font-style="normal" font-weight="normal" text-decoration="none" x="0" y="600">UNREGISTERED</text><text fill="#eeeeee" stroke="none" font-family="Arial" font-size="24px" font-style="normal" font-weight="normal" text-decoration="none" x="0" y="630">UNREGISTERED</text><text fill="#eeeeee" stroke="none" font-family="Arial" font-size="24px" font-style="normal" font-weight="normal" text-decoration="none" x="0" y="660">UNREGISTERED</text><text fill="#eeeeee" stroke="none" font-family="Arial" font-size="24px" font-style="normal" font-weight="normal" text-decoration="none" x="0" y="690">UNREGISTERED</text><text fill="#eeeeee" stroke="none" font-family="Arial" font-size="24px" font-style="normal" font-weight="normal" text-decoration="none" x="0" y="720">UNREGISTERED</text><text fill="#eeeeee" stroke="none" font-family="Arial" font-size="24px" font-style="normal" font-weight="normal" text-decoration="none" x="200" y="0">UNREGISTERED</text><text fill="#eeeeee" stroke="none" font-family="Arial" font-size="24px" font-style="normal" font-weight="normal" text-decoration="none" x="200" y="30">UNREGISTERED</text><text fill="#eeeeee" stroke="none" font-family="Arial" font-size="24px" font-style="normal" font-weight="normal" text-decoration="none" x="200" y="60">UNREGISTERED</text><text fill="#eeeeee" stroke="none" font-family="Arial" font-size="24px" font-style="normal" font-weight="normal" text-decoration="none" x="200" y="90">UNREGISTERED</text><text fill="#eeeeee" stroke="none" font-family="Arial" font-size="24px" font-style="normal" font-weight="normal" text-decoration="none" x="200" y="120">UNREGISTERED</text><text fill="#eeeeee" stroke="none" font-family="Arial" font-size="24px" font-style="normal" font-weight="normal" text-decoration="none" x="200" y="150">UNREGISTERED</text><text fill="#eeeeee" stroke="none" font-family="Arial" font-size="24px" font-style="normal" font-weight="normal" text-decoration="none" x="200" y="180">UNREGISTERED</text><text fill="#eeeeee" stroke="none" font-family="Arial" font-size="24px" font-style="normal" font-weight="normal" text-decoration="none" x="200" y="210">UNREGISTERED</text><text fill="#eeeeee" stroke="none" font-family="Arial" font-size="24px" font-style="normal" font-weight="normal" text-decoration="none" x="200" y="240">UNREGISTERED</text><text fill="#eeeeee" stroke="none" font-family="Arial" font-size="24px" font-style="normal" font-weight="normal" text-decoration="none" x="200" y="270">UNREGISTERED</text><text fill="#eeeeee" stroke="none" font-family="Arial" font-size="24px" font-style="normal" font-weight="normal" text-decoration="none" x="200" y="300">UNREGISTERED</text><text fill="#eeeeee" stroke="none" font-family="Arial" font-size="24px" font-style="normal" font-weight="normal" text-decoration="none" x="200" y="330">UNREGISTERED</text><text fill="#eeeeee" stroke="none" font-family="Arial" font-size="24px" font-style="normal" font-weight="normal" text-decoration="none" x="200" y="360">UNREGISTERED</text><text fill="#eeeeee" stroke="none" font-family="Arial" font-size="24px" font-style="normal" font-weight="normal" text-decoration="none" x="200" y="390">UNREGISTERED</text><text fill="#eeeeee" stroke="none" font-family="Arial" font-size="24px" font-style="normal" font-weight="normal" text-decoration="none" x="200" y="420">UNREGISTERED</text><text fill="#eeeeee" stroke="none" font-family="Arial" font-size="24px" font-style="normal" font-weight="normal" text-decoration="none" x="200" y="450">UNREGISTERED</text><text fill="#eeeeee" stroke="none" font-family="Arial" font-size="24px" font-style="normal" font-weight="normal" text-decoration="none" x="200" y="480">UNREGISTERED</text><text fill="#eeeeee" stroke="none" font-family="Arial" font-size="24px" font-style="normal" font-weight="normal" text-decoration="none" x="200" y="510">UNREGISTERED</text><text fill="#eeeeee" stroke="none" font-family="Arial" font-size="24px" font-style="normal" font-weight="normal" text-decoration="none" x="200" y="540">UNREGISTERED</text><text fill="#eeeeee" stroke="none" font-family="Arial" font-size="24px" font-style="normal" font-weight="normal" text-decoration="none" x="200" y="570">UNREGISTERED</text><text fill="#eeeeee" stroke="none" font-family="Arial" font-size="24px" font-style="normal" font-weight="normal" text-decoration="none" x="200" y="600">UNREGISTERED</text><text fill="#eeeeee" stroke="none" font-family="Arial" font-size="24px" font-style="normal" font-weight="normal" text-decoration="none" x="200" y="630">UNREGISTERED</text><text fill="#eeeeee" stroke="none" font-family="Arial" font-size="24px" font-style="normal" font-weight="normal" text-decoration="none" x="200" y="660">UNREGISTERED</text><text fill="#eeeeee" stroke="none" font-family="Arial" font-size="24px" font-style="normal" font-weight="normal" text-decoration="none" x="200" y="690">UNREGISTERED</text><text fill="#eeeeee" stroke="none" font-family="Arial" font-size="24px" font-style="normal" font-weight="normal" text-decoration="none" x="200" y="720">UNREGISTERED</text><text fill="#eeeeee" stroke="none" font-family="Arial" font-size="24px" font-style="normal" font-weight="normal" text-decoration="none" x="400" y="0">UNREGISTERED</text><text fill="#eeeeee" stroke="none" font-family="Arial" font-size="24px" font-style="normal" font-weight="normal" text-decoration="none" x="400" y="30">UNREGISTERED</text><text fill="#eeeeee" stroke="none" font-family="Arial" font-size="24px" font-style="normal" font-weight="normal" text-decoration="none" x="400" y="60">UNREGISTERED</text><text fill="#eeeeee" stroke="none" font-family="Arial" font-size="24px" font-style="normal" font-weight="normal" text-decoration="none" x="400" y="90">UNREGISTERED</text><text fill="#eeeeee" stroke="none" font-family="Arial" font-size="24px" font-style="normal" font-weight="normal" text-decoration="none" x="400" y="120">UNREGISTERED</text><text fill="#eeeeee" stroke="none" font-family="Arial" font-size="24px" font-style="normal" font-weight="normal" text-decoration="none" x="400" y="150">UNREGISTERED</text><text fill="#eeeeee" stroke="none" font-family="Arial" font-size="24px" font-style="normal" font-weight="normal" text-decoration="none" x="400" y="180">UNREGISTERED</text><text fill="#eeeeee" stroke="none" font-family="Arial" font-size="24px" font-style="normal" font-weight="normal" text-decoration="none" x="400" y="210">UNREGISTERED</text><text fill="#eeeeee" stroke="none" font-family="Arial" font-size="24px" font-style="normal" font-weight="normal" text-decoration="none" x="400" y="240">UNREGISTERED</text><text fill="#eeeeee" stroke="none" font-family="Arial" font-size="24px" font-style="normal" font-weight="normal" text-decoration="none" x="400" y="270">UNREGISTERED</text><text fill="#eeeeee" stroke="none" font-family="Arial" font-size="24px" font-style="normal" font-weight="normal" text-decoration="none" x="400" y="300">UNREGISTERED</text><text fill="#eeeeee" stroke="none" font-family="Arial" font-size="24px" font-style="normal" font-weight="normal" text-decoration="none" x="400" y="330">UNREGISTERED</text><text fill="#eeeeee" stroke="none" font-family="Arial" font-size="24px" font-style="normal" font-weight="normal" text-decoration="none" x="400" y="360">UNREGISTERED</text><text fill="#eeeeee" stroke="none" font-family="Arial" font-size="24px" font-style="normal" font-weight="normal" text-decoration="none" x="400" y="390">UNREGISTERED</text><text fill="#eeeeee" stroke="none" font-family="Arial" font-size="24px" font-style="normal" font-weight="normal" text-decoration="none" x="400" y="420">UNREGISTERED</text><text fill="#eeeeee" stroke="none" font-family="Arial" font-size="24px" font-style="normal" font-weight="normal" text-decoration="none" x="400" y="450">UNREGISTERED</text><text fill="#eeeeee" stroke="none" font-family="Arial" font-size="24px" font-style="normal" font-weight="normal" text-decoration="none" x="400" y="480">UNREGISTERED</text><text fill="#eeeeee" stroke="none" font-family="Arial" font-size="24px" font-style="normal" font-weight="normal" text-decoration="none" x="400" y="510">UNREGISTERED</text><text fill="#eeeeee" stroke="none" font-family="Arial" font-size="24px" font-style="normal" font-weight="normal" text-decoration="none" x="400" y="540">UNREGISTERED</text><text fill="#eeeeee" stroke="none" font-family="Arial" font-size="24px" font-style="normal" font-weight="normal" text-decoration="none" x="400" y="570">UNREGISTERED</text><text fill="#eeeeee" stroke="none" font-family="Arial" font-size="24px" font-style="normal" font-weight="normal" text-decoration="none" x="400" y="600">UNREGISTERED</text><text fill="#eeeeee" stroke="none" font-family="Arial" font-size="24px" font-style="normal" font-weight="normal" text-decoration="none" x="400" y="630">UNREGISTERED</text><text fill="#eeeeee" stroke="none" font-family="Arial" font-size="24px" font-style="normal" font-weight="normal" text-decoration="none" x="400" y="660">UNREGISTERED</text><text fill="#eeeeee" stroke="none" font-family="Arial" font-size="24px" font-style="normal" font-weight="normal" text-decoration="none" x="400" y="690">UNREGISTERED</text><text fill="#eeeeee" stroke="none" font-family="Arial" font-size="24px" font-style="normal" font-weight="normal" text-decoration="none" x="400" y="720">UNREGISTERED</text><text fill="#eeeeee" stroke="none" font-family="Arial" font-size="24px" font-style="normal" font-weight="normal" text-decoration="none" x="600" y="0">UNREGISTERED</text><text fill="#eeeeee" stroke="none" font-family="Arial" font-size="24px" font-style="normal" font-weight="normal" text-decoration="none" x="600" y="30">UNREGISTERED</text><text fill="#eeeeee" stroke="none" font-family="Arial" font-size="24px" font-style="normal" font-weight="normal" text-decoration="none" x="600" y="60">UNREGISTERED</text><text fill="#eeeeee" stroke="none" font-family="Arial" font-size="24px" font-style="normal" font-weight="normal" text-decoration="none" x="600" y="90">UNREGISTERED</text><text fill="#eeeeee" stroke="none" font-family="Arial" font-size="24px" font-style="normal" font-weight="normal" text-decoration="none" x="600" y="120">UNREGISTERED</text><text fill="#eeeeee" stroke="none" font-family="Arial" font-size="24px" font-style="normal" font-weight="normal" text-decoration="none" x="600" y="150">UNREGISTERED</text><text fill="#eeeeee" stroke="none" font-family="Arial" font-size="24px" font-style="normal" font-weight="normal" text-decoration="none" x="600" y="180">UNREGISTERED</text><text fill="#eeeeee" stroke="none" font-family="Arial" font-size="24px" font-style="normal" font-weight="normal" text-decoration="none" x="600" y="210">UNREGISTERED</text><text fill="#eeeeee" stroke="none" font-family="Arial" font-size="24px" font-style="normal" font-weight="normal" text-decoration="none" x="600" y="240">UNREGISTERED</text><text fill="#eeeeee" stroke="none" font-family="Arial" font-size="24px" font-style="normal" font-weight="normal" text-decoration="none" x="600" y="270">UNREGISTERED</text><text fill="#eeeeee" stroke="none" font-family="Arial" font-size="24px" font-style="normal" font-weight="normal" text-decoration="none" x="600" y="300">UNREGISTERED</text><text fill="#eeeeee" stroke="none" font-family="Arial" font-size="24px" font-style="normal" font-weight="normal" text-decoration="none" x="600" y="330">UNREGISTERED</text><text fill="#eeeeee" stroke="none" font-family="Arial" font-size="24px" font-style="normal" font-weight="normal" text-decoration="none" x="600" y="360">UNREGISTERED</text><text fill="#eeeeee" stroke="none" font-family="Arial" font-size="24px" font-style="normal" font-weight="normal" text-decoration="none" x="600" y="390">UNREGISTERED</text><text fill="#eeeeee" stroke="none" font-family="Arial" font-size="24px" font-style="normal" font-weight="normal" text-decoration="none" x="600" y="420">UNREGISTERED</text><text fill="#eeeeee" stroke="none" font-family="Arial" font-size="24px" font-style="normal" font-weight="normal" text-decoration="none" x="600" y="450">UNREGISTERED</text><text fill="#eeeeee" stroke="none" font-family="Arial" font-size="24px" font-style="normal" font-weight="normal" text-decoration="none" x="600" y="480">UNREGISTERED</text><text fill="#eeeeee" stroke="none" font-family="Arial" font-size="24px" font-style="normal" font-weight="normal" text-decoration="none" x="600" y="510">UNREGISTERED</text><text fill="#eeeeee" stroke="none" font-family="Arial" font-size="24px" font-style="normal" font-weight="normal" text-decoration="none" x="600" y="540">UNREGISTERED</text><text fill="#eeeeee" stroke="none" font-family="Arial" font-size="24px" font-style="normal" font-weight="normal" text-decoration="none" x="600" y="570">UNREGISTERED</text><text fill="#eeeeee" stroke="none" font-family="Arial" font-size="24px" font-style="normal" font-weight="normal" text-decoration="none" x="600" y="600">UNREGISTERED</text><text fill="#eeeeee" stroke="none" font-family="Arial" font-size="24px" font-style="normal" font-weight="normal" text-decoration="none" x="600" y="630">UNREGISTERED</text><text fill="#eeeeee" stroke="none" font-family="Arial" font-size="24px" font-style="normal" font-weight="normal" text-decoration="none" x="600" y="660">UNREGISTERED</text><text fill="#eeeeee" stroke="none" font-family="Arial" font-size="24px" font-style="normal" font-weight="normal" text-decoration="none" x="600" y="690">UNREGISTERED</text><text fill="#eeeeee" stroke="none" font-family="Arial" font-size="24px" font-style="normal" font-weight="normal" text-decoration="none" x="600" y="720">UNREGISTERED</text><g transform="translate(-326,-14) scale(1,1)"><rect fill="#C0C0C0" stroke="none" x="567" y="375" width="33.35781250000002" height="15" opacity="0.2"/></g><g transform="translate(-326,-14) scale(1,1)"><rect fill="#C0C0C0" stroke="none" x="567" y="389" width="83.39453125" height="40" opacity="0.2"/></g><g transform="translate(-326,-14) scale(1,1)"><rect fill="#ffffff" stroke="none" x="560" y="383" width="83.39453125" height="39"/></g><g transform="translate(-326,-14) scale(1,1)"><path fill="none" stroke="#000000" d="M 560 383 L 643.39453125 383 L 643.39453125 422 L 560 422 L 560 383 Z Z" stroke-miterlimit="10"/></g><g transform="translate(-326,-14) scale(1,1)"><rect fill="#ffffff" stroke="none" x="560" y="368" width="33.35781250000002" height="15"/></g><g transform="translate(-326,-14) scale(1,1)"><path fill="none" stroke="#000000" d="M 560 368 L 593.3578125 368 L 593.3578125 383 L 560 383 L 560 368 Z Z" stroke-miterlimit="10"/></g><g transform="translate(-326,-14) scale(1,1)"><rect fill="#ffffff" stroke="none" x="560" y="382" width="83.39453125" height="40"/></g><g transform="translate(-326,-14) scale(1,1)"><path fill="none" stroke="#000000" d="M 560 382 L 643.39453125 382 L 643.39453125 422 L 560 422 L 560 382 Z Z" stroke-miterlimit="10"/></g><g transform="translate(-326,-14) scale(1,1)"><g><path fill="none" stroke="none"/><text fill="#000000" stroke="none" font-family="Arial" font-size="13px" font-style="normal" font-weight="bold" text-decoration="none" x="577.122314453125" y="402.5">backend</text></g></g><g transform="translate(-326,-14) scale(1,1)"><g><path fill="none" stroke="none"/><text fill="#000000" stroke="none" font-family="Arial" font-size="13px" font-style="normal" font-weight="normal" text-decoration="none" x="564.5" y="417.5">(from OPEX)</text></g></g><g transform="translate(-326,-14) scale(1,1)"><rect fill="#C0C0C0" stroke="none" x="671" y="239" width="27.5966796875" height="15" opacity="0.2"/></g><g transform="translate(-326,-14) scale(1,1)"><rect fill="#C0C0C0" stroke="none" x="671" y="253" width="68.99169921875" height="25" opacity="0.2"/></g><g transform="translate(-326,-14) scale(1,1)"><rect fill="#ffffff" stroke="none" x="664" y="247" width="68.99169921875" height="24"/></g><g transform="translate(-326,-14) scale(1,1)"><path fill="none" stroke="#000000" d="M 664 247 L 732.99169921875 247 L 732.99169921875 271 L 664 271 L 664 247 Z Z" stroke-miterlimit="10"/></g><g transform="translate(-326,-14) scale(1,1)"><rect fill="#ffffff" stroke="none" x="664" y="232" width="27.5966796875" height="15"/></g><g transform="translate(-326,-14) scale(1,1)"><path fill="none" stroke="#000000" d="M 664 232 L 691.5966796875 232 L 691.5966796875 247 L 664 247 L 664 232 Z Z" stroke-miterlimit="10"/></g><g transform="translate(-326,-14) scale(1,1)"><rect fill="#ffffff" stroke="none" x="664" y="246" width="68.99169921875" height="25"/></g><g transform="translate(-326,-14) scale(1,1)"><path fill="none" stroke="#000000" d="M 664 246 L 732.99169921875 246 L 732.99169921875 271 L 664 271 L 664 246 Z Z" stroke-miterlimit="10"/></g><g transform="translate(-326,-14) scale(1,1)"><g><path fill="none" stroke="none"/><text fill="#000000" stroke="none" font-family="Arial" font-size="13px" font-style="normal" font-weight="bold" text-decoration="none" x="676.82177734375" y="266.5">runtime</text></g></g><g transform="translate(-326,-14) scale(1,1)"><path fill="none" stroke="#000000" d="M 684 272 L 620 367" stroke-miterlimit="10"/></g><g transform="translate(-326,-14) scale(1,1)"><path fill="#FFFFFF" stroke="none" d="M 616.9110606095837 361.1945194076491 C 616.9110606095837 357.3285258076491 620.0450670095837 354.1945194076491 623.9110606095837 354.1945194076491 C 627.7770542095838 354.1945194076491 630.9110606095837 357.3285258076491 630.9110606095837 361.1945194076491 C 630.9110606095837 365.06051300764915 627.7770542095838 368.1945194076491 623.9110606095837 368.1945194076491 C 620.0450670095837 368.1945194076491 616.9110606095837 365.06051300764915 616.9110606095837 361.1945194076491 Z"/></g><g transform="translate(-326,-14) scale(1,1)"><path fill="none" stroke="#000000" d="M 616.9110606095837 361.1945194076491 C 616.9110606095837 357.3285258076491 620.0450670095837 354.1945194076491 623.9110606095837 354.1945194076491 C 627.7770542095838 354.1945194076491 630.9110606095837 357.3285258076491 630.9110606095837 361.1945194076491 C 630.9110606095837 365.06051300764915 627.7770542095838 368.1945194076491 623.9110606095837 368.1945194076491 C 620.0450670095837 368.1945194076491 616.9110606095837 365.06051300764915 616.9110606095837 361.1945194076491 Z" stroke-miterlimit="10"/></g><g transform="translate(-326,-14) scale(1,1)"><path fill="none" stroke="#000000" d="M 627.8221212191675 355.3890388152983 L 620 367" stroke-miterlimit="10"/></g><g transform="translate(-326,-14) scale(1,1)"><path fill="none" stroke="#000000" d="M 618.1055800172329 357.2834587980654 L 629.7165412019345 365.10558001723285" stroke-miterlimit="10"/></g><g transform="translate(-326,-14) scale(1,1)"><rect fill="#C0C0C0" stroke="none" x="607" y="31" width="27.5966796875" height="15" opacity="0.2"/></g><g transform="translate(-326,-14) scale(1,1)"><rect fill="#C0C0C0" stroke="none" x="607" y="45" width="68.99169921875" height="25" opacity="0.2"/></g><g transform="translate(-326,-14) scale(1,1)"><rect fill="#ffffff" stroke="none" x="600" y="39" width="68.99169921875" height="24"/></g><g transform="translate(-326,-14) scale(1,1)"><path fill="none" stroke="#000000" d="M 600 39 L 668.99169921875 39 L 668.99169921875 63 L 600 63 L 600 39 Z Z" stroke-miterlimit="10"/></g><g transform="translate(-326,-14) scale(1,1)"><rect fill="#ffffff" stroke="none" x="600" y="24" width="27.5966796875" height="15"/></g><g transform="translate(-326,-14) scale(1,1)"><path fill="none" stroke="#000000" d="M 600 24 L 627.5966796875 24 L 627.5966796875 39 L 600 39 L 600 24 Z Z" stroke-miterlimit="10"/></g><g transform="translate(-326,-14) scale(1,1)"><rect fill="#ffffff" stroke="none" x="600" y="38" width="68.99169921875" height="25"/></g><g transform="translate(-326,-14) scale(1,1)"><path fill="none" stroke="#000000" d="M 600 38 L 668.99169921875 38 L 668.99169921875 63 L 600 63 L 600 38 Z Z" stroke-miterlimit="10"/></g><g transform="translate(-326,-14) scale(1,1)"><g><path fill="none" stroke="none"/><text fill="#000000" stroke="none" font-family="Arial" font-size="13px" font-style="normal" font-weight="bold" text-decoration="none" x="611.726806640625" y="58.5">hooking</text></g></g><g transform="translate(-326,-14) scale(1,1)"><path fill="none" stroke="#000000" d="M 640 64 L 692 231" stroke-miterlimit="10"/></g><g transform="translate(-326,-14) scale(1,1)"><path fill="#FFFFFF" stroke="none" d="M 682.9189124537671 224.31650730344424 C 682.9189124537671 220.45051370344424 686.0529188537671 217.31650730344424 689.9189124537671 217.31650730344424 C 693.7849060537671 217.31650730344424 696.9189124537671 220.45051370344424 696.9189124537671 224.31650730344424 C 696.9189124537671 228.18250090344424 693.7849060537671 231.31650730344424 689.9189124537671 231.31650730344424 C 686.0529188537671 231.31650730344424 682.9189124537671 228.18250090344424 682.9189124537671 224.31650730344424 Z"/></g><g transform="translate(-326,-14) scale(1,1)"><path fill="none" stroke="#000000" d="M 682.9189124537671 224.31650730344424 C 682.9189124537671 220.45051370344424 686.0529188537671 217.31650730344424 689.9189124537671 217.31650730344424 C 693.7849060537671 217.31650730344424 696.9189124537671 220.45051370344424 696.9189124537671 224.31650730344424 C 696.9189124537671 228.18250090344424 693.7849060537671 231.31650730344424 689.9189124537671 231.31650730344424 C 686.0529188537671 231.31650730344424 682.9189124537671 228.18250090344424 682.9189124537671 224.31650730344424 Z" stroke-miterlimit="10"/></g><g transform="translate(-326,-14) scale(1,1)"><path fill="none" stroke="#000000" d="M 687.8378249075341 217.63301460688848 L 692 231" stroke-miterlimit="10"/></g><g transform="translate(-326,-14) scale(1,1)"><path fill="none" stroke="#000000" d="M 683.2354197572114 226.39759484967718 L 696.6024051503229 222.2354197572113" stroke-miterlimit="10"/></g><g transform="translate(-326,-14) scale(1,1)"><rect fill="#C0C0C0" stroke="none" x="407" y="375" width="33.35781250000002" height="15" opacity="0.2"/></g><g transform="translate(-326,-14) scale(1,1)"><rect fill="#C0C0C0" stroke="none" x="407" y="389" width="83.39453125" height="40" opacity="0.2"/></g><g transform="translate(-326,-14) scale(1,1)"><rect fill="#ffffff" stroke="none" x="400" y="383" width="83.39453125" height="39"/></g><g transform="translate(-326,-14) scale(1,1)"><path fill="none" stroke="#000000" d="M 400 383 L 483.39453125 383 L 483.39453125 422 L 400 422 L 400 383 Z Z" stroke-miterlimit="10"/></g><g transform="translate(-326,-14) scale(1,1)"><rect fill="#ffffff" stroke="none" x="400" y="368" width="33.35781250000002" height="15"/></g><g transform="translate(-326,-14) scale(1,1)"><path fill="none" stroke="#000000" d="M 400 368 L 433.3578125 368 L 433.3578125 383 L 400 383 L 400 368 Z Z" stroke-miterlimit="10"/></g><g transform="translate(-326,-14) scale(1,1)"><rect fill="#ffffff" stroke="none" x="400" y="382" width="83.39453125" height="40"/></g><g transform="translate(-326,-14) scale(1,1)"><path fill="none" stroke="#000000" d="M 400 382 L 483.39453125 382 L 483.39453125 422 L 400 422 L 400 382 Z Z" stroke-miterlimit="10"/></g><g transform="translate(-326,-14) scale(1,1)"><path fill="none" stroke="#000000" d="M 424.3578125 371 L 418.3578125 378 L 430.3578125 378 L 424.3578125 371" stroke-miterlimit="10"/></g><g transform="translate(-326,-14) scale(1,1)"><g><path fill="none" stroke="none"/><text fill="#000000" stroke="none" font-family="Arial" font-size="13px" font-style="normal" font-weight="bold" text-decoration="none" x="423.635009765625" y="402.5">OPEX</text></g></g><g transform="translate(-326,-14) scale(1,1)"><g><path fill="none" stroke="none"/><text fill="#000000" stroke="none" font-family="Arial" font-size="13px" font-style="normal" font-weight="normal" text-decoration="none" x="404.5" y="417.5">(from OPEX)</text></g></g><g transform="translate(-326,-14) scale(1,1)"><path fill="none" stroke="#000000" d="M 559 395 L 484 395" stroke-miterlimit="10"/></g><g transform="translate(-326,-14) scale(1,1)"><path fill="#FFFFFF" stroke="none" d="M 484 395 C 484 391.1340064 487.1340064 388 491 388 C 494.8659936 388 498 391.1340064 498 395 C 498 398.8659936 494.8659936 402 491 402 C 487.1340064 402 484 398.8659936 484 395 Z"/></g><g transform="translate(-326,-14) scale(1,1)"><path fill="none" stroke="#000000" d="M 484 395 C 484 391.1340064 487.1340064 388 491 388 C 494.8659936 388 498 391.1340064 498 395 C 498 398.8659936 494.8659936 402 491 402 C 487.1340064 402 484 398.8659936 484 395 Z" stroke-miterlimit="10"/></g><g transform="translate(-326,-14) scale(1,1)"><path fill="none" stroke="#000000" d="M 498 395 L 484 395" stroke-miterlimit="10"/></g><g transform="translate(-326,-14) scale(1,1)"><path fill="none" stroke="#000000" d="M 491 388 L 491 402" stroke-miterlimit="10"/></g><g transform="translate(-326,-14) scale(1,1)"><rect fill="#C0C0C0" stroke="none" x="423" y="471" width="27.5966796875" height="15" opacity="0.2"/></g><g transform="translate(-326,-14) scale(1,1)"><rect fill="#C0C0C0" stroke="none" x="423" y="485" width="68.99169921875" height="25" opacity="0.2"/></g><g transform="translate(-326,-14) scale(1,1)"><rect fill="#ffffff" stroke="none" x="416" y="479" width="68.99169921875" height="24"/></g><g transform="translate(-326,-14) scale(1,1)"><path fill="none" stroke="#000000" d="M 416 479 L 484.99169921875 479 L 484.99169921875 503 L 416 503 L 416 479 Z Z" stroke-miterlimit="10"/></g><g transform="translate(-326,-14) scale(1,1)"><rect fill="#ffffff" stroke="none" x="416" y="464" width="27.5966796875" height="15"/></g><g transform="translate(-326,-14) scale(1,1)"><path fill="none" stroke="#000000" d="M 416 464 L 443.5966796875 464 L 443.5966796875 479 L 416 479 L 416 464 Z Z" stroke-miterlimit="10"/></g><g transform="translate(-326,-14) scale(1,1)"><rect fill="#ffffff" stroke="none" x="416" y="478" width="68.99169921875" height="25"/></g><g transform="translate(-326,-14) scale(1,1)"><path fill="none" stroke="#000000" d="M 416 478 L 484.99169921875 478 L 484.99169921875 503 L 416 503 L 416 478 Z Z" stroke-miterlimit="10"/></g><g transform="translate(-326,-14) scale(1,1)"><g><path fill="none" stroke="none"/><text fill="#000000" stroke="none" font-family="Arial" font-size="13px" font-style="normal" font-weight="bold" text-decoration="none" x="426.64453125" y="498.5">frontend</text></g></g><g transform="translate(-326,-14) scale(1,1)"><path fill="none" stroke="#000000" d="M 448 463 L 444 423" stroke-miterlimit="10"/></g><g transform="translate(-326,-14) scale(1,1)"><path fill="#FFFFFF" stroke="none" d="M 437.696526033147 429.96526033146995 C 437.696526033147 426.0992667314699 440.83053243314697 422.96526033146995 444.696526033147 422.96526033146995 C 448.562519633147 422.96526033146995 451.696526033147 426.0992667314699 451.696526033147 429.96526033146995 C 451.696526033147 433.83125393147 448.562519633147 436.96526033146995 444.696526033147 436.96526033146995 C 440.83053243314697 436.96526033146995 437.696526033147 433.83125393147 437.696526033147 429.96526033146995 Z"/></g><g transform="translate(-326,-14) scale(1,1)"><path fill="none" stroke="#000000" d="M 437.696526033147 429.96526033146995 C 437.696526033147 426.0992667314699 440.83053243314697 422.96526033146995 444.696526033147 422.96526033146995 C 448.562519633147 422.96526033146995 451.696526033147 426.0992667314699 451.696526033147 429.96526033146995 C 451.696526033147 433.83125393147 448.562519633147 436.96526033146995 444.696526033147 436.96526033146995 C 440.83053243314697 436.96526033146995 437.696526033147 433.83125393147 437.696526033147 429.96526033146995 Z" stroke-miterlimit="10"/></g><g transform="translate(-326,-14) scale(1,1)"><path fill="none" stroke="#000000" d="M 445.393052066294 436.93052066293984 L 444 423" stroke-miterlimit="10"/></g><g transform="translate(-326,-14) scale(1,1)"><path fill="none" stroke="#000000" d="M 451.66178636461694 429.26873429832295 L 437.73126570167705 430.66178636461694" stroke-miterlimit="10"/></g><g transform="translate(-326,-14) scale(1,1)"><rect fill="#C0C0C0" stroke="none" x="831" y="375" width="27.5966796875" height="15" opacity="0.2"/></g><g transform="translate(-326,-14) scale(1,1)"><rect fill="#C0C0C0" stroke="none" x="831" y="389" width="68.99169921875" height="25" opacity="0.2"/></g><g transform="translate(-326,-14) scale(1,1)"><rect fill="#ffffff" stroke="none" x="824" y="383" width="68.99169921875" height="24"/></g><g transform="translate(-326,-14) scale(1,1)"><path fill="none" stroke="#000000" d="M 824 383 L 892.99169921875 383 L 892.99169921875 407 L 824 407 L 824 383 Z Z" stroke-miterlimit="10"/></g><g transform="translate(-326,-14) scale(1,1)"><rect fill="#ffffff" stroke="none" x="824" y="368" width="27.5966796875" height="15"/></g><g transform="translate(-326,-14) scale(1,1)"><path fill="none" stroke="#000000" d="M 824 368 L 851.5966796875 368 L 851.5966796875 383 L 824 383 L 824 368 Z Z" stroke-miterlimit="10"/></g><g transform="translate(-326,-14) scale(1,1)"><rect fill="#ffffff" stroke="none" x="824" y="382" width="68.99169921875" height="25"/></g><g transform="translate(-326,-14) scale(1,1)"><path fill="none" stroke="#000000" d="M 824 382 L 892.99169921875 382 L 892.99169921875 407 L 824 407 L 824 382 Z Z" stroke-miterlimit="10"/></g><g transform="translate(-326,-14) scale(1,1)"><g><path fill="none" stroke="none"/><text fill="#000000" stroke="none" font-family="Arial" font-size="13px" font-style="normal" font-weight="bold" text-decoration="none" x="853.436767578125" y="402.5">io</text></g></g><g transform="translate(-326,-14) scale(1,1)"><path fill="none" stroke="#000000" d="M 823 388 L 644 394" stroke-miterlimit="10"/></g><g transform="translate(-326,-14) scale(1,1)"><path fill="#FFFFFF" stroke="none" d="M 643.9960708491353 393.76549483187256 C 643.9960708491353 389.89950123187253 647.1300772491353 386.76549483187256 650.9960708491353 386.76549483187256 C 654.8620644491353 386.76549483187256 657.9960708491353 389.89950123187253 657.9960708491353 393.76549483187256 C 657.9960708491353 397.6314884318726 654.8620644491353 400.76549483187256 650.9960708491353 400.76549483187256 C 647.1300772491353 400.76549483187256 643.9960708491353 397.6314884318726 643.9960708491353 393.76549483187256 Z"/></g><g transform="translate(-326,-14) scale(1,1)"><path fill="none" stroke="#000000" d="M 643.9960708491353 393.76549483187256 C 643.9960708491353 389.89950123187253 647.1300772491353 386.76549483187256 650.9960708491353 386.76549483187256 C 654.8620644491353 386.76549483187256 657.9960708491353 389.89950123187253 657.9960708491353 393.76549483187256 C 657.9960708491353 397.6314884318726 654.8620644491353 400.76549483187256 650.9960708491353 400.76549483187256 C 647.1300772491353 400.76549483187256 643.9960708491353 397.6314884318726 643.9960708491353 393.76549483187256 Z" stroke-miterlimit="10"/></g><g transform="translate(-326,-14) scale(1,1)"><path fill="none" stroke="#000000" d="M 657.9921416982708 393.5309896637451 L 644 394" stroke-miterlimit="10"/></g><g transform="translate(-326,-14) scale(1,1)"><path fill="none" stroke="#000000" d="M 650.7615656810078 386.7694239827372 L 651.2305760172628 400.76156568100794" stroke-miterlimit="10"/></g><g transform="translate(-326,-14) scale(1,1)"><rect fill="#C0C0C0" stroke="none" x="671" y="471" width="27.5966796875" height="15" opacity="0.2"/></g><g transform="translate(-326,-14) scale(1,1)"><rect fill="#C0C0C0" stroke="none" x="671" y="485" width="68.99169921875" height="25" opacity="0.2"/></g><g transform="translate(-326,-14) scale(1,1)"><rect fill="#ffffff" stroke="none" x="664" y="479" width="68.99169921875" height="24"/></g><g transform="translate(-326,-14) scale(1,1)"><path fill="none" stroke="#000000" d="M 664 479 L 732.99169921875 479 L 732.99169921875 503 L 664 503 L 664 479 Z Z" stroke-miterlimit="10"/></g><g transform="translate(-326,-14) scale(1,1)"><rect fill="#ffffff" stroke="none" x="664" y="464" width="27.5966796875" height="15"/></g><g transform="translate(-326,-14) scale(1,1)"><path fill="none" stroke="#000000" d="M 664 464 L 691.5966796875 464 L 691.5966796875 479 L 664 479 L 664 464 Z Z" stroke-miterlimit="10"/></g><g transform="translate(-326,-14) scale(1,1)"><rect fill="#ffffff" stroke="none" x="664" y="478" width="68.99169921875" height="25"/></g><g transform="translate(-326,-14) scale(1,1)"><path fill="none" stroke="#000000" d="M 664 478 L 732.99169921875 478 L 732.99169921875 503 L 664 503 L 664 478 Z Z" stroke-miterlimit="10"/></g><g transform="translate(-326,-14) scale(1,1)"><g><path fill="none" stroke="none"/><text fill="#000000" stroke="none" font-family="Arial" font-size="13px" font-style="normal" font-weight="bold" text-decoration="none" x="677.535888671875" y="498.5">toolbox</text></g></g><g transform="translate(-326,-14) scale(1,1)"><path fill="none" stroke="#000000" d="M 676 463 L 632 423" stroke-miterlimit="10"/></g><g transform="translate(-326,-14) scale(1,1)"><path fill="#FFFFFF" stroke="none" d="M 630.1795805137716 427.7087095579742 C 630.1795805137716 423.8427159579742 633.3135869137716 420.7087095579742 637.1795805137716 420.7087095579742 C 641.0455741137716 420.7087095579742 644.1795805137716 423.8427159579742 644.1795805137716 427.7087095579742 C 644.1795805137716 431.5747031579742 641.0455741137716 434.7087095579742 637.1795805137716 434.7087095579742 C 633.3135869137716 434.7087095579742 630.1795805137716 431.5747031579742 630.1795805137716 427.7087095579742 Z"/></g><g transform="translate(-326,-14) scale(1,1)"><path fill="none" stroke="#000000" d="M 630.1795805137716 427.7087095579742 C 630.1795805137716 423.8427159579742 633.3135869137716 420.7087095579742 637.1795805137716 420.7087095579742 C 641.0455741137716 420.7087095579742 644.1795805137716 423.8427159579742 644.1795805137716 427.7087095579742 C 644.1795805137716 431.5747031579742 641.0455741137716 434.7087095579742 637.1795805137716 434.7087095579742 C 633.3135869137716 434.7087095579742 630.1795805137716 431.5747031579742 630.1795805137716 427.7087095579742 Z" stroke-miterlimit="10"/></g><g transform="translate(-326,-14) scale(1,1)"><path fill="none" stroke="#000000" d="M 642.3591610275432 432.41741911594835 L 632 423" stroke-miterlimit="10"/></g><g transform="translate(-326,-14) scale(1,1)"><path fill="none" stroke="#000000" d="M 641.8882900717458 422.5291290442026 L 632.4708709557974 432.8882900717458" stroke-miterlimit="10"/></g><g transform="translate(-326,-14) scale(1,1)"><rect fill="#C0C0C0" stroke="none" x="687" y="31" width="28.734179687500045" height="15" opacity="0.2"/></g><g transform="translate(-326,-14) scale(1,1)"><rect fill="#C0C0C0" stroke="none" x="687" y="45" width="71.83544921875" height="25" opacity="0.2"/></g><g transform="translate(-326,-14) scale(1,1)"><rect fill="#ffffff" stroke="none" x="680" y="39" width="71.83544921875" height="24"/></g><g transform="translate(-326,-14) scale(1,1)"><path fill="none" stroke="#000000" d="M 680 39 L 751.83544921875 39 L 751.83544921875 63 L 680 63 L 680 39 Z Z" stroke-miterlimit="10"/></g><g transform="translate(-326,-14) scale(1,1)"><rect fill="#ffffff" stroke="none" x="680" y="24" width="28.734179687500045" height="15"/></g><g transform="translate(-326,-14) scale(1,1)"><path fill="none" stroke="#000000" d="M 680 24 L 708.7341796875 24 L 708.7341796875 39 L 680 39 L 680 24 Z Z" stroke-miterlimit="10"/></g><g transform="translate(-326,-14) scale(1,1)"><rect fill="#ffffff" stroke="none" x="680" y="38" width="71.83544921875" height="25"/></g><g transform="translate(-326,-14) scale(1,1)"><path fill="none" stroke="#000000" d="M 680 38 L 751.83544921875 38 L 751.83544921875 63 L 680 63 L 680 38 Z Z" stroke-miterlimit="10"/></g><g transform="translate(-326,-14) scale(1,1)"><g><path fill="none" stroke="none"/><text fill="#000000" stroke="none" font-family="Arial" font-size="13px" font-style="normal" font-weight="bold" text-decoration="none" x="688.813232421875" y="58.5">threading</text></g></g><g transform="translate(-326,-14) scale(1,1)"><rect fill="#C0C0C0" stroke="none" x="671" y="535" width="36.818554687499955" height="15" opacity="0.2"/></g><g transform="translate(-326,-14) scale(1,1)"><rect fill="#C0C0C0" stroke="none" x="671" y="549" width="92.04638671875" height="25" opacity="0.2"/></g><g transform="translate(-326,-14) scale(1,1)"><rect fill="#ffffff" stroke="none" x="664" y="543" width="92.04638671875" height="24"/></g><g transform="translate(-326,-14) scale(1,1)"><path fill="none" stroke="#000000" d="M 664 543 L 756.04638671875 543 L 756.04638671875 567 L 664 567 L 664 543 Z Z" stroke-miterlimit="10"/></g><g transform="translate(-326,-14) scale(1,1)"><rect fill="#ffffff" stroke="none" x="664" y="528" width="36.818554687499955" height="15"/></g><g transform="translate(-326,-14) scale(1,1)"><path fill="none" stroke="#000000" d="M 664 528 L 700.8185546875 528 L 700.8185546875 543 L 664 543 L 664 528 Z Z" stroke-miterlimit="10"/></g><g transform="translate(-326,-14) scale(1,1)"><rect fill="#ffffff" stroke="none" x="664" y="542" width="92.04638671875" height="25"/></g><g transform="translate(-326,-14) scale(1,1)"><path fill="none" stroke="#000000" d="M 664 542 L 756.04638671875 542 L 756.04638671875 567 L 664 567 L 664 542 Z Z" stroke-miterlimit="10"/></g><g transform="translate(-326,-14) scale(1,1)"><g><path fill="none" stroke="none"/><text fill="#000000" stroke="none" font-family="Arial" font-size="13px" font-style="normal" font-weight="bold" text-decoration="none" x="672.8037109375" y="562.5">configuration</text></g></g><g transform="translate(-326,-14) scale(1,1)"><path fill="none" stroke="#000000" d="M 713 64 L 700 231" stroke-miterlimit="10"/></g><g transform="translate(-326,-14) scale(1,1)"><path fill="#FFFFFF" stroke="none" d="M 693.5432666393086 224.02111317195826 C 693.5432666393086 220.15511957195827 696.6772730393086 217.02111317195826 700.5432666393086 217.02111317195826 C 704.4092602393087 217.02111317195826 707.5432666393086 220.15511957195827 707.5432666393086 224.02111317195826 C 707.5432666393086 227.88710677195826 704.4092602393087 231.02111317195826 700.5432666393086 231.02111317195826 C 696.6772730393086 231.02111317195826 693.5432666393086 227.88710677195826 693.5432666393086 224.02111317195826 Z"/></g><g transform="translate(-326,-14) scale(1,1)"><path fill="none" stroke="#000000" d="M 693.5432666393086 224.02111317195826 C 693.5432666393086 220.15511957195827 696.6772730393086 217.02111317195826 700.5432666393086 217.02111317195826 C 704.4092602393087 217.02111317195826 707.5432666393086 220.15511957195827 707.5432666393086 224.02111317195826 C 707.5432666393086 227.88710677195826 704.4092602393087 231.02111317195826 700.5432666393086 231.02111317195826 C 696.6772730393086 231.02111317195826 693.5432666393086 227.88710677195826 693.5432666393086 224.02111317195826 Z" stroke-miterlimit="10"/></g><g transform="translate(-326,-14) scale(1,1)"><path fill="none" stroke="#000000" d="M 701.0865332786173 217.04222634391655 L 700 231" stroke-miterlimit="10"/></g><g transform="translate(-326,-14) scale(1,1)"><path fill="none" stroke="#000000" d="M 693.5643798112669 223.47784653264964 L 707.5221534673503 224.5643798112669" stroke-miterlimit="10"/></g><g transform="translate(-326,-14) scale(1,1)"><rect fill="#C0C0C0" stroke="none" x="775" y="31" width="27.5966796875" height="15" opacity="0.2"/></g><g transform="translate(-326,-14) scale(1,1)"><rect fill="#C0C0C0" stroke="none" x="775" y="45" width="68.99169921875" height="25" opacity="0.2"/></g><g transform="translate(-326,-14) scale(1,1)"><rect fill="#ffffff" stroke="none" x="768" y="39" width="68.99169921875" height="24"/></g><g transform="translate(-326,-14) scale(1,1)"><path fill="none" stroke="#000000" d="M 768 39 L 836.99169921875 39 L 836.99169921875 63 L 768 63 L 768 39 Z Z" stroke-miterlimit="10"/></g><g transform="translate(-326,-14) scale(1,1)"><rect fill="#ffffff" stroke="none" x="768" y="24" width="27.5966796875" height="15"/></g><g transform="translate(-326,-14) scale(1,1)"><path fill="none" stroke="#000000" d="M 768 24 L 795.5966796875 24 L 795.5966796875 39 L 768 39 L 768 24 Z Z" stroke-miterlimit="10"/></g><g transform="translate(-326,-14) scale(1,1)"><rect fill="#ffffff" stroke="none" x="768" y="38" width="68.99169921875" height="25"/></g><g transform="translate(-326,-14) scale(1,1)"><path fill="none" stroke="#000000" d="M 768 38 L 836.99169921875 38 L 836.99169921875 63 L 768 63 L 768 38 Z Z" stroke-miterlimit="10"/></g><g transform="translate(-326,-14) scale(1,1)"><g><path fill="none" stroke="none"/><text fill="#000000" stroke="none" font-family="Arial" font-size="13px" font-style="normal" font-weight="bold" text-decoration="none" x="778.647705078125" y="58.5">Console</text></g></g><g transform="translate(-326,-14) scale(1,1)"><path fill="none" stroke="#000000" d="M 792 64 L 708 231" stroke-miterlimit="10"/></g><g transform="translate(-326,-14) scale(1,1)"><path fill="#FFFFFF" stroke="none" d="M 704.1454646130569 224.7465167811845 C 704.1454646130569 220.88052318118451 707.2794710130569 217.7465167811845 711.1454646130569 217.7465167811845 C 715.0114582130569 217.7465167811845 718.1454646130569 220.88052318118451 718.1454646130569 224.7465167811845 C 718.1454646130569 228.6125103811845 715.0114582130569 231.7465167811845 711.1454646130569 231.7465167811845 C 707.2794710130569 231.7465167811845 704.1454646130569 228.6125103811845 704.1454646130569 224.7465167811845 Z"/></g><g transform="translate(-326,-14) scale(1,1)"><path fill="none" stroke="#000000" d="M 704.1454646130569 224.7465167811845 C 704.1454646130569 220.88052318118451 707.2794710130569 217.7465167811845 711.1454646130569 217.7465167811845 C 715.0114582130569 217.7465167811845 718.1454646130569 220.88052318118451 718.1454646130569 224.7465167811845 C 718.1454646130569 228.6125103811845 715.0114582130569 231.7465167811845 711.1454646130569 231.7465167811845 C 707.2794710130569 231.7465167811845 704.1454646130569 228.6125103811845 704.1454646130569 224.7465167811845 Z" stroke-miterlimit="10"/></g><g transform="translate(-326,-14) scale(1,1)"><path fill="none" stroke="#000000" d="M 714.2909292261138 218.49303356236902 L 708 231" stroke-miterlimit="10"/></g><g transform="translate(-326,-14) scale(1,1)"><path fill="none" stroke="#000000" d="M 704.8919813942414 221.6010521681276 L 717.3989478318724 227.8919813942414" stroke-miterlimit="10"/></g><g transform="translate(-326,-14) scale(1,1)"><rect fill="#C0C0C0" stroke="none" x="791" y="239" width="38.39999999999998" height="15" opacity="0.2"/></g><g transform="translate(-326,-14) scale(1,1)"><rect fill="#C0C0C0" stroke="none" x="791" y="253" width="96" height="25" opacity="0.2"/></g><g transform="translate(-326,-14) scale(1,1)"><rect fill="#ffffff" stroke="none" x="784" y="247" width="96" height="24"/></g><g transform="translate(-326,-14) scale(1,1)"><path fill="none" stroke="#000000" d="M 784 247 L 880 247 L 880 271 L 784 271 L 784 247 Z Z" stroke-miterlimit="10"/></g><g transform="translate(-326,-14) scale(1,1)"><rect fill="#ffffff" stroke="none" x="784" y="232" width="38.39999999999998" height="15"/></g><g transform="translate(-326,-14) scale(1,1)"><path fill="none" stroke="#000000" d="M 784 232 L 822.4 232 L 822.4 247 L 784 247 L 784 232 Z Z" stroke-miterlimit="10"/></g><g transform="translate(-326,-14) scale(1,1)"><rect fill="#ffffff" stroke="none" x="784" y="246" width="96" height="25"/></g><g transform="translate(-326,-14) scale(1,1)"><path fill="none" stroke="#000000" d="M 784 246 L 880 246 L 880 271 L 784 271 L 784 246 Z Z" stroke-miterlimit="10"/></g><g transform="translate(-326,-14) scale(1,1)"><g><path fill="none" stroke="none"/><text fill="#000000" stroke="none" font-family="Arial" font-size="13px" font-style="normal" font-weight="bold" text-decoration="none" x="796.23095703125" y="266.5">environment</text></g></g><g transform="translate(-326,-14) scale(1,1)"><path fill="none" stroke="#000000" d="M 783 251 L 734 251" stroke-miterlimit="10"/></g><g transform="translate(-326,-14) scale(1,1)"><path fill="#FFFFFF" stroke="none" d="M 734 251 C 734 247.1340064 737.1340064 244 741 244 C 744.8659936 244 748 247.1340064 748 251 C 748 254.8659936 744.8659936 258 741 258 C 737.1340064 258 734 254.8659936 734 251 Z"/></g><g transform="translate(-326,-14) scale(1,1)"><path fill="none" stroke="#000000" d="M 734 251 C 734 247.1340064 737.1340064 244 741 244 C 744.8659936 244 748 247.1340064 748 251 C 748 254.8659936 744.8659936 258 741 258 C 737.1340064 258 734 254.8659936 734 251 Z" stroke-miterlimit="10"/></g><g transform="translate(-326,-14) scale(1,1)"><path fill="none" stroke="#000000" d="M 748 251 L 734 251" stroke-miterlimit="10"/></g><g transform="translate(-326,-14) scale(1,1)"><path fill="none" stroke="#000000" d="M 741 244 L 741 258" stroke-miterlimit="10"/></g><g transform="translate(-326,-14) scale(1,1)"><rect fill="#C0C0C0" stroke="none" x="455" y="31" width="47.81523437499999" height="15" opacity="0.2"/></g><g transform="translate(-326,-14) scale(1,1)"><rect fill="#C0C0C0" stroke="none" x="455" y="45" width="119.5380859375" height="25" opacity="0.2"/></g><g transform="translate(-326,-14) scale(1,1)"><rect fill="#ffffff" stroke="none" x="448" y="39" width="119.5380859375" height="24"/></g><g transform="translate(-326,-14) scale(1,1)"><path fill="none" stroke="#000000" d="M 448 39 L 567.5380859375 39 L 567.5380859375 63 L 448 63 L 448 39 Z Z" stroke-miterlimit="10"/></g><g transform="translate(-326,-14) scale(1,1)"><rect fill="#ffffff" stroke="none" x="448" y="24" width="47.81523437499999" height="15"/></g><g transform="translate(-326,-14) scale(1,1)"><path fill="none" stroke="#000000" d="M 448 24 L 495.815234375 24 L 495.815234375 39 L 448 39 L 448 24 Z Z" stroke-miterlimit="10"/></g><g transform="translate(-326,-14) scale(1,1)"><rect fill="#ffffff" stroke="none" x="448" y="38" width="119.5380859375" height="25"/></g><g transform="translate(-326,-14) scale(1,1)"><path fill="none" stroke="#000000" d="M 448 38 L 567.5380859375 38 L 567.5380859375 63 L 448 63 L 448 38 Z Z" stroke-miterlimit="10"/></g><g transform="translate(-326,-14) scale(1,1)"><g><path fill="none" stroke="none"/><text fill="#000000" stroke="none" font-family="Arial" font-size="13px" font-style="normal" font-weight="bold" text-decoration="none" x="456.10546875" y="58.5">errormanagement</text></g></g><g transform="translate(-326,-14) scale(1,1)"><path fill="none" stroke="#000000" d="M 526 64 L 680 231" stroke-miterlimit="10"/></g><g transform="translate(-326,-14) scale(1,1)"><path fill="#FFFFFF" stroke="none" d="M 668.2545995221494 225.85401376752566 C 668.2545995221494 221.98802016752566 671.3886059221494 218.85401376752566 675.2545995221494 218.85401376752566 C 679.1205931221494 218.85401376752566 682.2545995221494 221.98802016752566 682.2545995221494 225.85401376752566 C 682.2545995221494 229.72000736752565 679.1205931221494 232.85401376752566 675.2545995221494 232.85401376752566 C 671.3886059221494 232.85401376752566 668.2545995221494 229.72000736752565 668.2545995221494 225.85401376752566 Z"/></g><g transform="translate(-326,-14) scale(1,1)"><path fill="none" stroke="#000000" d="M 668.2545995221494 225.85401376752566 C 668.2545995221494 221.98802016752566 671.3886059221494 218.85401376752566 675.2545995221494 218.85401376752566 C 679.1205931221494 218.85401376752566 682.2545995221494 221.98802016752566 682.2545995221494 225.85401376752566 C 682.2545995221494 229.72000736752565 679.1205931221494 232.85401376752566 675.2545995221494 232.85401376752566 C 671.3886059221494 232.85401376752566 668.2545995221494 229.72000736752565 668.2545995221494 225.85401376752566 Z" stroke-miterlimit="10"/></g><g transform="translate(-326,-14) scale(1,1)"><path fill="none" stroke="#000000" d="M 670.5091990442988 220.70802753505131 L 680 231" stroke-miterlimit="10"/></g><g transform="translate(-326,-14) scale(1,1)"><path fill="none" stroke="#000000" d="M 670.1086132896751 230.59941424537624 L 680.4005857546238 221.10861328967508" stroke-miterlimit="10"/></g><g transform="translate(-326,-14) scale(1,1)"><rect fill="#C0C0C0" stroke="none" x="399" y="559" width="27.5966796875" height="15" opacity="0.2"/></g><g transform="translate(-326,-14) scale(1,1)"><rect fill="#C0C0C0" stroke="none" x="399" y="573" width="68.99169921875" height="25" opacity="0.2"/></g><g transform="translate(-326,-14) scale(1,1)"><rect fill="#ffffff" stroke="none" x="392" y="567" width="68.99169921875" height="24"/></g><g transform="translate(-326,-14) scale(1,1)"><path fill="none" stroke="#000000" d="M 392 567 L 460.99169921875 567 L 460.99169921875 591 L 392 591 L 392 567 Z Z" stroke-miterlimit="10"/></g><g transform="translate(-326,-14) scale(1,1)"><rect fill="#ffffff" stroke="none" x="392" y="552" width="27.5966796875" height="15"/></g><g transform="translate(-326,-14) scale(1,1)"><path fill="none" stroke="#000000" d="M 392 552 L 419.5966796875 552 L 419.5966796875 567 L 392 567 L 392 552 Z Z" stroke-miterlimit="10"/></g><g transform="translate(-326,-14) scale(1,1)"><rect fill="#ffffff" stroke="none" x="392" y="566" width="68.99169921875" height="25"/></g><g transform="translate(-326,-14) scale(1,1)"><path fill="none" stroke="#000000" d="M 392 566 L 460.99169921875 566 L 460.99169921875 591 L 392 591 L 392 566 Z Z" stroke-miterlimit="10"/></g><g transform="translate(-326,-14) scale(1,1)"><g><path fill="none" stroke="none"/><text fill="#000000" stroke="none" font-family="Arial" font-size="13px" font-style="normal" font-weight="bold" text-decoration="none" x="409.15087890625" y="586.5">scene</text></g></g><g transform="translate(-326,-14) scale(1,1)"><rect fill="#C0C0C0" stroke="none" x="975" y="343" width="27.5966796875" height="15" opacity="0.2"/></g><g transform="translate(-326,-14) scale(1,1)"><rect fill="#C0C0C0" stroke="none" x="975" y="357" width="68.99169921875" height="25" opacity="0.2"/></g><g transform="translate(-326,-14) scale(1,1)"><rect fill="#ffffff" stroke="none" x="968" y="351" width="68.99169921875" height="24"/></g><g transform="translate(-326,-14) scale(1,1)"><path fill="none" stroke="#000000" d="M 968 351 L 1036.99169921875 351 L 1036.99169921875 375 L 968 375 L 968 351 Z Z" stroke-miterlimit="10"/></g><g transform="translate(-326,-14) scale(1,1)"><rect fill="#ffffff" stroke="none" x="968" y="336" width="27.5966796875" height="15"/></g><g transform="translate(-326,-14) scale(1,1)"><path fill="none" stroke="#000000" d="M 968 336 L 995.5966796875 336 L 995.5966796875 351 L 968 351 L 968 336 Z Z" stroke-miterlimit="10"/></g><g transform="translate(-326,-14) scale(1,1)"><rect fill="#ffffff" stroke="none" x="968" y="350" width="68.99169921875" height="25"/></g><g transform="translate(-326,-14) scale(1,1)"><path fill="none" stroke="#000000" d="M 968 350 L 1036.99169921875 350 L 1036.99169921875 375 L 968 375 L 968 350 Z Z" stroke-miterlimit="10"/></g><g transform="translate(-326,-14) scale(1,1)"><g><path fill="none" stroke="none"/><text fill="#000000" stroke="none" font-family="Arial" font-size="13px" font-style="normal" font-weight="bold" text-decoration="none" x="988.40087890625" y="370.5">input</text></g></g><g transform="translate(-326,-14) scale(1,1)"><rect fill="#C0C0C0" stroke="none" x="975" y="407" width="27.5966796875" height="15" opacity="0.2"/></g><g transform="translate(-326,-14) scale(1,1)"><rect fill="#C0C0C0" stroke="none" x="975" y="421" width="68.99169921875" height="25" opacity="0.2"/></g><g transform="translate(-326,-14) scale(1,1)"><rect fill="#ffffff" stroke="none" x="968" y="415" width="68.99169921875" height="24"/></g><g transform="translate(-326,-14) scale(1,1)"><path fill="none" stroke="#000000" d="M 968 415 L 1036.99169921875 415 L 1036.99169921875 439 L 968 439 L 968 415 Z Z" stroke-miterlimit="10"/></g><g transform="translate(-326,-14) scale(1,1)"><rect fill="#ffffff" stroke="none" x="968" y="400" width="27.5966796875" height="15"/></g><g transform="translate(-326,-14) scale(1,1)"><path fill="none" stroke="#000000" d="M 968 400 L 995.5966796875 400 L 995.5966796875 415 L 968 415 L 968 400 Z Z" stroke-miterlimit="10"/></g><g transform="translate(-326,-14) scale(1,1)"><rect fill="#ffffff" stroke="none" x="968" y="414" width="68.99169921875" height="25"/></g><g transform="translate(-326,-14) scale(1,1)"><path fill="none" stroke="#000000" d="M 968 414 L 1036.99169921875 414 L 1036.99169921875 439 L 968 439 L 968 414 Z Z" stroke-miterlimit="10"/></g><g transform="translate(-326,-14) scale(1,1)"><g><path fill="none" stroke="none"/><text fill="#000000" stroke="none" font-family="Arial" font-size="13px" font-style="normal" font-weight="bold" text-decoration="none" x="992.022216796875" y="434.5">cjar</text></g></g><g transform="translate(-326,-14) scale(1,1)"><path fill="none" stroke="#000000" d="M 967 411 L 894 395" stroke-miterlimit="10"/></g><g transform="translate(-326,-14) scale(1,1)"><path fill="#FFFFFF" stroke="none" d="M 893.8376884899363 396.49867144984904 C 893.8376884899363 392.632677849849 896.9716948899363 389.49867144984904 900.8376884899363 389.49867144984904 C 904.7036820899364 389.49867144984904 907.8376884899363 392.632677849849 907.8376884899363 396.49867144984904 C 907.8376884899363 400.36466504984907 904.7036820899364 403.49867144984904 900.8376884899363 403.49867144984904 C 896.9716948899363 403.49867144984904 893.8376884899363 400.36466504984907 893.8376884899363 396.49867144984904 Z"/></g><g transform="translate(-326,-14) scale(1,1)"><path fill="none" stroke="#000000" d="M 893.8376884899363 396.49867144984904 C 893.8376884899363 392.632677849849 896.9716948899363 389.49867144984904 900.8376884899363 389.49867144984904 C 904.7036820899364 389.49867144984904 907.8376884899363 392.632677849849 907.8376884899363 396.49867144984904 C 907.8376884899363 400.36466504984907 904.7036820899364 403.49867144984904 900.8376884899363 403.49867144984904 C 896.9716948899363 403.49867144984904 893.8376884899363 400.36466504984907 893.8376884899363 396.49867144984904 Z" stroke-miterlimit="10"/></g><g transform="translate(-326,-14) scale(1,1)"><path fill="none" stroke="#000000" d="M 907.6753769798726 397.9973428996981 L 894 395" stroke-miterlimit="10"/></g><g transform="translate(-326,-14) scale(1,1)"><path fill="none" stroke="#000000" d="M 902.3363599397854 389.66098295991276 L 899.3390170400872 403.3363599397853" stroke-miterlimit="10"/></g><g transform="translate(-326,-14) scale(1,1)"><path fill="none" stroke="#000000" d="M 967 363 L 894 379" stroke-miterlimit="10"/></g><g transform="translate(-326,-14) scale(1,1)"><path fill="#FFFFFF" stroke="none" d="M 893.8376884899363 377.50132855015096 C 893.8376884899363 373.63533495015093 896.9716948899363 370.50132855015096 900.8376884899363 370.50132855015096 C 904.7036820899364 370.50132855015096 907.8376884899363 373.63533495015093 907.8376884899363 377.50132855015096 C 907.8376884899363 381.367322150151 904.7036820899364 384.50132855015096 900.8376884899363 384.50132855015096 C 896.9716948899363 384.50132855015096 893.8376884899363 381.367322150151 893.8376884899363 377.50132855015096 Z"/></g><g transform="translate(-326,-14) scale(1,1)"><path fill="none" stroke="#000000" d="M 893.8376884899363 377.50132855015096 C 893.8376884899363 373.63533495015093 896.9716948899363 370.50132855015096 900.8376884899363 370.50132855015096 C 904.7036820899364 370.50132855015096 907.8376884899363 373.63533495015093 907.8376884899363 377.50132855015096 C 907.8376884899363 381.367322150151 904.7036820899364 384.50132855015096 900.8376884899363 384.50132855015096 C 896.9716948899363 384.50132855015096 893.8376884899363 381.367322150151 893.8376884899363 377.50132855015096 Z" stroke-miterlimit="10"/></g><g transform="translate(-326,-14) scale(1,1)"><path fill="none" stroke="#000000" d="M 907.6753769798726 376.0026571003019 L 894 379" stroke-miterlimit="10"/></g><g transform="translate(-326,-14) scale(1,1)"><path fill="none" stroke="#000000" d="M 899.3390170400872 370.6636400602147 L 902.3363599397854 384.33901704008724" stroke-miterlimit="10"/></g><g transform="translate(-326,-14) scale(1,1)"><rect fill="#C0C0C0" stroke="none" x="495" y="559" width="27.5966796875" height="15" opacity="0.2"/></g><g transform="translate(-326,-14) scale(1,1)"><rect fill="#C0C0C0" stroke="none" x="495" y="573" width="68.99169921875" height="25" opacity="0.2"/></g><g transform="translate(-326,-14) scale(1,1)"><rect fill="#ffffff" stroke="none" x="488" y="567" width="68.99169921875" height="24"/></g><g transform="translate(-326,-14) scale(1,1)"><path fill="none" stroke="#000000" d="M 488 567 L 556.99169921875 567 L 556.99169921875 591 L 488 591 L 488 567 Z Z" stroke-miterlimit="10"/></g><g transform="translate(-326,-14) scale(1,1)"><rect fill="#ffffff" stroke="none" x="488" y="552" width="27.5966796875" height="15"/></g><g transform="translate(-326,-14) scale(1,1)"><path fill="none" stroke="#000000" d="M 488 552 L 515.5966796875 552 L 515.5966796875 567 L 488 567 L 488 552 Z Z" stroke-miterlimit="10"/></g><g transform="translate(-326,-14) scale(1,1)"><rect fill="#ffffff" stroke="none" x="488" y="566" width="68.99169921875" height="25"/></g><g transform="translate(-326,-14) scale(1,1)"><path fill="none" stroke="#000000" d="M 488 566 L 556.99169921875 566 L 556.99169921875 591 L 488 591 L 488 566 Z Z" stroke-miterlimit="10"/></g><g transform="translate(-326,-14) scale(1,1)"><g><path fill="none" stroke="none"/><text fill="#000000" stroke="none" font-family="Arial" font-size="13px" font-style="normal" font-weight="bold" text-decoration="none" x="500.818603515625" y="586.5">window</text></g></g><g transform="translate(-326,-14) scale(1,1)"><path fill="none" stroke="#000000" d="M 467 504 L 506 551" stroke-miterlimit="10"/></g><g transform="translate(-326,-14) scale(1,1)"><path fill="#FFFFFF" stroke="none" d="M 494.5299927128188 545.6130681410893 C 494.5299927128188 541.7470745410893 497.6639991128188 538.6130681410893 501.5299927128188 538.6130681410893 C 505.3959863128188 538.6130681410893 508.5299927128188 541.7470745410893 508.5299927128188 545.6130681410893 C 508.5299927128188 549.4790617410894 505.3959863128188 552.6130681410893 501.5299927128188 552.6130681410893 C 497.6639991128188 552.6130681410893 494.5299927128188 549.4790617410894 494.5299927128188 545.6130681410893 Z"/></g><g transform="translate(-326,-14) scale(1,1)"><path fill="none" stroke="#000000" d="M 494.5299927128188 545.6130681410893 C 494.5299927128188 541.7470745410893 497.6639991128188 538.6130681410893 501.5299927128188 538.6130681410893 C 505.3959863128188 538.6130681410893 508.5299927128188 541.7470745410893 508.5299927128188 545.6130681410893 C 508.5299927128188 549.4790617410894 505.3959863128188 552.6130681410893 501.5299927128188 552.6130681410893 C 497.6639991128188 552.6130681410893 494.5299927128188 549.4790617410894 494.5299927128188 545.6130681410893 Z" stroke-miterlimit="10"/></g><g transform="translate(-326,-14) scale(1,1)"><path fill="none" stroke="#000000" d="M 497.0599854256376 540.2261362821787 L 506 551" stroke-miterlimit="10"/></g><g transform="translate(-326,-14) scale(1,1)"><path fill="none" stroke="#000000" d="M 496.14306085390814 550.0830754282706 L 506.91692457172945 541.1430608539081" stroke-miterlimit="10"/></g><g transform="translate(-326,-14) scale(1,1)"><rect fill="#C0C0C0" stroke="none" x="575" y="703" width="27.5966796875" height="15" opacity="0.2"/></g><g transform="translate(-326,-14) scale(1,1)"><rect fill="#C0C0C0" stroke="none" x="575" y="717" width="68.99169921875" height="25" opacity="0.2"/></g><g transform="translate(-326,-14) scale(1,1)"><rect fill="#ffffff" stroke="none" x="568" y="711" width="68.99169921875" height="24"/></g><g transform="translate(-326,-14) scale(1,1)"><path fill="none" stroke="#000000" d="M 568 711 L 636.99169921875 711 L 636.99169921875 735 L 568 735 L 568 711 Z Z" stroke-miterlimit="10"/></g><g transform="translate(-326,-14) scale(1,1)"><rect fill="#ffffff" stroke="none" x="568" y="696" width="27.5966796875" height="15"/></g><g transform="translate(-326,-14) scale(1,1)"><path fill="none" stroke="#000000" d="M 568 696 L 595.5966796875 696 L 595.5966796875 711 L 568 711 L 568 696 Z Z" stroke-miterlimit="10"/></g><g transform="translate(-326,-14) scale(1,1)"><rect fill="#ffffff" stroke="none" x="568" y="710" width="68.99169921875" height="25"/></g><g transform="translate(-326,-14) scale(1,1)"><path fill="none" stroke="#000000" d="M 568 710 L 636.99169921875 710 L 636.99169921875 735 L 568 735 L 568 710 Z Z" stroke-miterlimit="10"/></g><g transform="translate(-326,-14) scale(1,1)"><g><path fill="none" stroke="none"/><text fill="#000000" stroke="none" font-family="Arial" font-size="13px" font-style="normal" font-weight="bold" text-decoration="none" x="584.0654296875" y="730.5">prefab</text></g></g><g transform="translate(-326,-14) scale(1,1)"><path fill="none" stroke="#000000" d="M 534 592 L 591 695" stroke-miterlimit="10"/></g><g transform="translate(-326,-14) scale(1,1)"><path fill="#FFFFFF" stroke="none" d="M 580.6106016227797 688.8752976692335 C 580.6106016227797 685.0093040692335 583.7446080227796 681.8752976692335 587.6106016227797 681.8752976692335 C 591.4765952227797 681.8752976692335 594.6106016227797 685.0093040692335 594.6106016227797 688.8752976692335 C 594.6106016227797 692.7412912692336 591.4765952227797 695.8752976692335 587.6106016227797 695.8752976692335 C 583.7446080227796 695.8752976692335 580.6106016227797 692.7412912692336 580.6106016227797 688.8752976692335 Z"/></g><g transform="translate(-326,-14) scale(1,1)"><path fill="none" stroke="#000000" d="M 580.6106016227797 688.8752976692335 C 580.6106016227797 685.0093040692335 583.7446080227796 681.8752976692335 587.6106016227797 681.8752976692335 C 591.4765952227797 681.8752976692335 594.6106016227797 685.0093040692335 594.6106016227797 688.8752976692335 C 594.6106016227797 692.7412912692336 591.4765952227797 695.8752976692335 587.6106016227797 695.8752976692335 C 583.7446080227796 695.8752976692335 580.6106016227797 692.7412912692336 580.6106016227797 688.8752976692335 Z" stroke-miterlimit="10"/></g><g transform="translate(-326,-14) scale(1,1)"><path fill="none" stroke="#000000" d="M 584.2212032455594 682.7505953384671 L 591 695" stroke-miterlimit="10"/></g><g transform="translate(-326,-14) scale(1,1)"><path fill="none" stroke="#000000" d="M 581.4858992920132 692.2646960464539 L 593.7353039535461 685.4858992920132" stroke-miterlimit="10"/></g><g transform="translate(-326,-14) scale(1,1)"><rect fill="#C0C0C0" stroke="none" x="583" y="639" width="27.5966796875" height="15" opacity="0.2"/></g><g transform="translate(-326,-14) scale(1,1)"><rect fill="#C0C0C0" stroke="none" x="583" y="653" width="68.99169921875" height="25" opacity="0.2"/></g><g transform="translate(-326,-14) scale(1,1)"><rect fill="#ffffff" stroke="none" x="576" y="647" width="68.99169921875" height="24"/></g><g transform="translate(-326,-14) scale(1,1)"><path fill="none" stroke="#000000" d="M 576 647 L 644.99169921875 647 L 644.99169921875 671 L 576 671 L 576 647 Z Z" stroke-miterlimit="10"/></g><g transform="translate(-326,-14) scale(1,1)"><rect fill="#ffffff" stroke="none" x="576" y="632" width="27.5966796875" height="15"/></g><g transform="translate(-326,-14) scale(1,1)"><path fill="none" stroke="#000000" d="M 576 632 L 603.5966796875 632 L 603.5966796875 647 L 576 647 L 576 632 Z Z" stroke-miterlimit="10"/></g><g transform="translate(-326,-14) scale(1,1)"><rect fill="#ffffff" stroke="none" x="576" y="646" width="68.99169921875" height="25"/></g><g transform="translate(-326,-14) scale(1,1)"><path fill="none" stroke="#000000" d="M 576 646 L 644.99169921875 646 L 644.99169921875 671 L 576 671 L 576 646 Z Z" stroke-miterlimit="10"/></g><g transform="translate(-326,-14) scale(1,1)"><g><path fill="none" stroke="none"/><text fill="#000000" stroke="none" font-family="Arial" font-size="13px" font-style="normal" font-weight="bold" text-decoration="none" x="583.03271484375" y="666.5">rendering</text></g></g><g transform="translate(-326,-14) scale(1,1)"><path fill="none" stroke="#000000" d="M 545 592 L 588 631" stroke-miterlimit="10"/></g><g transform="translate(-326,-14) scale(1,1)"><path fill="#FFFFFF" stroke="none" d="M 575.8149667568146 626.2972954305993 C 575.8149667568146 622.4313018305993 578.9489731568145 619.2972954305993 582.8149667568146 619.2972954305993 C 586.6809603568146 619.2972954305993 589.8149667568146 622.4313018305993 589.8149667568146 626.2972954305993 C 589.8149667568146 630.1632890305993 586.6809603568146 633.2972954305993 582.8149667568146 633.2972954305993 C 578.9489731568145 633.2972954305993 575.8149667568146 630.1632890305993 575.8149667568146 626.2972954305993 Z"/></g><g transform="translate(-326,-14) scale(1,1)"><path fill="none" stroke="#000000" d="M 575.8149667568146 626.2972954305993 C 575.8149667568146 622.4313018305993 578.9489731568145 619.2972954305993 582.8149667568146 619.2972954305993 C 586.6809603568146 619.2972954305993 589.8149667568146 622.4313018305993 589.8149667568146 626.2972954305993 C 589.8149667568146 630.1632890305993 586.6809603568146 633.2972954305993 582.8149667568146 633.2972954305993 C 578.9489731568145 633.2972954305993 575.8149667568146 630.1632890305993 575.8149667568146 626.2972954305993 Z" stroke-miterlimit="10"/></g><g transform="translate(-326,-14) scale(1,1)"><path fill="none" stroke="#000000" d="M 577.6299335136292 621.5945908611985 L 588 631" stroke-miterlimit="10"/></g><g transform="translate(-326,-14) scale(1,1)"><path fill="none" stroke="#000000" d="M 578.1122621874139 631.4823286737848 L 587.5176713262152 621.1122621874139" stroke-miterlimit="10"/></g><g transform="translate(-326,-14) scale(1,1)"><path fill="none" stroke="#000000" d="M 706 527 L 702 504" stroke-miterlimit="10"/></g><g transform="translate(-326,-14) scale(1,1)"><path fill="#FFFFFF" stroke="none" d="M 696.1993882232588 510.89648228373767 C 696.1993882232588 507.0304886837377 699.3333946232588 503.8964822837377 703.1993882232588 503.8964822837377 C 707.0653818232588 503.8964822837377 710.1993882232588 507.0304886837377 710.1993882232588 510.89648228373767 C 710.1993882232588 514.7624758837377 707.0653818232588 517.8964822837377 703.1993882232588 517.8964822837377 C 699.3333946232588 517.8964822837377 696.1993882232588 514.7624758837377 696.1993882232588 510.89648228373767 Z"/></g><g transform="translate(-326,-14) scale(1,1)"><path fill="none" stroke="#000000" d="M 696.1993882232588 510.89648228373767 C 696.1993882232588 507.0304886837377 699.3333946232588 503.8964822837377 703.1993882232588 503.8964822837377 C 707.0653818232588 503.8964822837377 710.1993882232588 507.0304886837377 710.1993882232588 510.89648228373767 C 710.1993882232588 514.7624758837377 707.0653818232588 517.8964822837377 703.1993882232588 517.8964822837377 C 699.3333946232588 517.8964822837377 696.1993882232588 514.7624758837377 696.1993882232588 510.89648228373767 Z" stroke-miterlimit="10"/></g><g transform="translate(-326,-14) scale(1,1)"><path fill="none" stroke="#000000" d="M 704.3987764465174 517.7929645674755 L 702 504" stroke-miterlimit="10"/></g><g transform="translate(-326,-14) scale(1,1)"><path fill="none" stroke="#000000" d="M 710.0958705069964 509.697094060479 L 696.3029059395211 512.0958705069964" stroke-miterlimit="10"/></g><g transform="translate(-326,-14) scale(1,1)"><path fill="none" stroke="#000000" d="M 431 551 L 444 504" stroke-miterlimit="10"/></g><g transform="translate(-326,-14) scale(1,1)"><path fill="#FFFFFF" stroke="none" d="M 435.13389761823123 510.7466778417794 C 435.13389761823123 506.88068424177936 438.2679040182312 503.7466778417794 442.13389761823123 503.7466778417794 C 445.99989121823126 503.7466778417794 449.13389761823123 506.88068424177936 449.13389761823123 510.7466778417794 C 449.13389761823123 514.6126714417794 445.99989121823126 517.7466778417794 442.13389761823123 517.7466778417794 C 438.2679040182312 517.7466778417794 435.13389761823123 514.6126714417794 435.13389761823123 510.7466778417794 Z"/></g><g transform="translate(-326,-14) scale(1,1)"><path fill="none" stroke="#000000" d="M 435.13389761823123 510.7466778417794 C 435.13389761823123 506.88068424177936 438.2679040182312 503.7466778417794 442.13389761823123 503.7466778417794 C 445.99989121823126 503.7466778417794 449.13389761823123 506.88068424177936 449.13389761823123 510.7466778417794 C 449.13389761823123 514.6126714417794 445.99989121823126 517.7466778417794 442.13389761823123 517.7466778417794 C 438.2679040182312 517.7466778417794 435.13389761823123 514.6126714417794 435.13389761823123 510.7466778417794 Z" stroke-miterlimit="10"/></g><g transform="translate(-326,-14) scale(1,1)"><path fill="none" stroke="#000000" d="M 440.26779523646246 517.4933556835588 L 444 504" stroke-miterlimit="10"/></g><g transform="translate(-326,-14) scale(1,1)"><path fill="none" stroke="#000000" d="M 448.8805754600106 512.6127802235482 L 435.38721977645184 508.8805754600106" stroke-miterlimit="10"/></g><g transform="translate(-326,-14) scale(1,1)"><rect fill="#C0C0C0" stroke="none" x="975" y="287" width="27.5966796875" height="15" opacity="0.2"/></g><g transform="translate(-326,-14) scale(1,1)"><rect fill="#C0C0C0" stroke="none" x="975" y="301" width="68.99169921875" height="25" opacity="0.2"/></g><g transform="translate(-326,-14) scale(1,1)"><rect fill="#ffffff" stroke="none" x="968" y="295" width="68.99169921875" height="24"/></g><g transform="translate(-326,-14) scale(1,1)"><path fill="none" stroke="#000000" d="M 968 295 L 1036.99169921875 295 L 1036.99169921875 319 L 968 319 L 968 295 Z Z" stroke-miterlimit="10"/></g><g transform="translate(-326,-14) scale(1,1)"><rect fill="#ffffff" stroke="none" x="968" y="280" width="27.5966796875" height="15"/></g><g transform="translate(-326,-14) scale(1,1)"><path fill="none" stroke="#000000" d="M 968 280 L 995.5966796875 280 L 995.5966796875 295 L 968 295 L 968 280 Z Z" stroke-miterlimit="10"/></g><g transform="translate(-326,-14) scale(1,1)"><rect fill="#ffffff" stroke="none" x="968" y="294" width="68.99169921875" height="25"/></g><g transform="translate(-326,-14) scale(1,1)"><path fill="none" stroke="#000000" d="M 968 294 L 1036.99169921875 294 L 1036.99169921875 319 L 968 319 L 968 294 Z Z" stroke-miterlimit="10"/></g><g transform="translate(-326,-14) scale(1,1)"><g><path fill="none" stroke="none"/><text fill="#000000" stroke="none" font-family="Arial" font-size="13px" font-style="normal" font-weight="bold" text-decoration="none" x="989.844970703125" y="314.5">data</text></g></g><g transform="translate(-326,-14) scale(1,1)"><path fill="none" stroke="#000000" d="M 968 320 L 891 367" stroke-miterlimit="10"/></g><g transform="translate(-326,-14) scale(1,1)"><path fill="#FFFFFF" stroke="none" d="M 889.9748901136538 363.3529891514061 C 889.9748901136538 359.4869955514061 893.1088965136538 356.3529891514061 896.9748901136538 356.3529891514061 C 900.8408837136539 356.3529891514061 903.9748901136538 359.4869955514061 903.9748901136538 363.3529891514061 C 903.9748901136538 367.21898275140614 900.8408837136539 370.3529891514061 896.9748901136538 370.3529891514061 C 893.1088965136538 370.3529891514061 889.9748901136538 367.21898275140614 889.9748901136538 363.3529891514061 Z"/></g><g transform="translate(-326,-14) scale(1,1)"><path fill="none" stroke="#000000" d="M 889.9748901136538 363.3529891514061 C 889.9748901136538 359.4869955514061 893.1088965136538 356.3529891514061 896.9748901136538 356.3529891514061 C 900.8408837136539 356.3529891514061 903.9748901136538 359.4869955514061 903.9748901136538 363.3529891514061 C 903.9748901136538 367.21898275140614 900.8408837136539 370.3529891514061 896.9748901136538 370.3529891514061 C 893.1088965136538 370.3529891514061 889.9748901136538 367.21898275140614 889.9748901136538 363.3529891514061 Z" stroke-miterlimit="10"/></g><g transform="translate(-326,-14) scale(1,1)"><path fill="none" stroke="#000000" d="M 902.9497802273077 359.7059783028122 L 891 367" stroke-miterlimit="10"/></g><g transform="translate(-326,-14) scale(1,1)"><path fill="none" stroke="#000000" d="M 893.3278792650599 357.3780990377523 L 900.6219009622478 369.32787926505995" stroke-miterlimit="10"/></g><g transform="translate(-326,-14) scale(1,1)"><rect fill="#C0C0C0" stroke="none" x="863" y="31" width="33.35781250000002" height="15" opacity="0.2"/></g><g transform="translate(-326,-14) scale(1,1)"><rect fill="#C0C0C0" stroke="none" x="863" y="45" width="83.39453125" height="25" opacity="0.2"/></g><g transform="translate(-326,-14) scale(1,1)"><rect fill="#ffffff" stroke="none" x="856" y="39" width="83.39453125" height="24"/></g><g transform="translate(-326,-14) scale(1,1)"><path fill="none" stroke="#000000" d="M 856 39 L 939.39453125 39 L 939.39453125 63 L 856 63 L 856 39 Z Z" stroke-miterlimit="10"/></g><g transform="translate(-326,-14) scale(1,1)"><rect fill="#ffffff" stroke="none" x="856" y="24" width="33.35781250000002" height="15"/></g><g transform="translate(-326,-14) scale(1,1)"><path fill="none" stroke="#000000" d="M 856 24 L 889.3578125 24 L 889.3578125 39 L 856 39 L 856 24 Z Z" stroke-miterlimit="10"/></g><g transform="translate(-326,-14) scale(1,1)"><rect fill="#ffffff" stroke="none" x="856" y="38" width="83.39453125" height="25"/></g><g transform="translate(-326,-14) scale(1,1)"><path fill="none" stroke="#000000" d="M 856 38 L 939.39453125 38 L 939.39453125 63 L 856 63 L 856 38 Z Z" stroke-miterlimit="10"/></g><g transform="translate(-326,-14) scale(1,1)"><g><path fill="none" stroke="none"/><text fill="#000000" stroke="none" font-family="Arial" font-size="13px" font-style="normal" font-weight="bold" text-decoration="none" x="864.82275390625" y="58.5">instructions</text></g></g><g transform="translate(-326,-14) scale(1,1)"><path fill="none" stroke="#000000" d="M 855 43 L 838 43" stroke-miterlimit="10"/></g><g transform="translate(-326,-14) scale(1,1)"><path fill="#FFFFFF" stroke="none" d="M 838 43 C 838 39.1340064 841.1340064 36 845 36 C 848.8659936 36 852 39.1340064 852 43 C 852 46.8659936 848.8659936 50 845 50 C 841.1340064 50 838 46.8659936 838 43 Z"/></g><g transform="translate(-326,-14) scale(1,1)"><path fill="none" stroke="#000000" d="M 838 43 C 838 39.1340064 841.1340064 36 845 36 C 848.8659936 36 852 39.1340064 852 43 C 852 46.8659936 848.8659936 50 845 50 C 841.1340064 50 838 46.8659936 838 43 Z" stroke-miterlimit="10"/></g><g transform="translate(-326,-14) scale(1,1)"><path fill="none" stroke="#000000" d="M 852 43 L 838 43" stroke-miterlimit="10"/></g><g transform="translate(-326,-14) scale(1,1)"><path fill="none" stroke="#000000" d="M 845 36 L 845 50" stroke-miterlimit="10"/></g><g transform="translate(-326,-14) scale(1,1)"><rect fill="#C0C0C0" stroke="none" x="343" y="31" width="30.76542968749999" height="15" opacity="0.2"/></g><g transform="translate(-326,-14) scale(1,1)"><rect fill="#C0C0C0" stroke="none" x="343" y="45" width="76.91357421875" height="25" opacity="0.2"/></g><g transform="translate(-326,-14) scale(1,1)"><rect fill="#ffffff" stroke="none" x="336" y="39" width="76.91357421875" height="24"/></g><g transform="translate(-326,-14) scale(1,1)"><path fill="none" stroke="#000000" d="M 336 39 L 412.91357421875 39 L 412.91357421875 63 L 336 63 L 336 39 Z Z" stroke-miterlimit="10"/></g><g transform="translate(-326,-14) scale(1,1)"><rect fill="#ffffff" stroke="none" x="336" y="24" width="30.76542968749999" height="15"/></g><g transform="translate(-326,-14) scale(1,1)"><path fill="none" stroke="#000000" d="M 336 24 L 366.7654296875 24 L 366.7654296875 39 L 336 39 L 336 24 Z Z" stroke-miterlimit="10"/></g><g transform="translate(-326,-14) scale(1,1)"><rect fill="#ffffff" stroke="none" x="336" y="38" width="76.91357421875" height="25"/></g><g transform="translate(-326,-14) scale(1,1)"><path fill="none" stroke="#000000" d="M 336 38 L 412.91357421875 38 L 412.91357421875 63 L 336 63 L 336 38 Z Z" stroke-miterlimit="10"/></g><g transform="translate(-326,-14) scale(1,1)"><g><path fill="none" stroke="none"/><text fill="#000000" stroke="none" font-family="Arial" font-size="13px" font-style="normal" font-weight="bold" text-decoration="none" x="343.3818359375" y="58.5">exceptions</text></g></g><g transform="translate(-326,-14) scale(1,1)"><path fill="none" stroke="#000000" d="M 447 43 L 414 43" stroke-miterlimit="10"/></g><g transform="translate(-326,-14) scale(1,1)"><path fill="#FFFFFF" stroke="none" d="M 414 43 C 414 39.1340064 417.1340064 36 421 36 C 424.8659936 36 428 39.1340064 428 43 C 428 46.8659936 424.8659936 50 421 50 C 417.1340064 50 414 46.8659936 414 43 Z"/></g><g transform="translate(-326,-14) scale(1,1)"><path fill="none" stroke="#000000" d="M 414 43 C 414 39.1340064 417.1340064 36 421 36 C 424.8659936 36 428 39.1340064 428 43 C 428 46.8659936 424.8659936 50 421 50 C 417.1340064 50 414 46.8659936 414 43 Z" stroke-miterlimit="10"/></g><g transform="translate(-326,-14) scale(1,1)"><path fill="none" stroke="#000000" d="M 428 43 L 414 43" stroke-miterlimit="10"/></g><g transform="translate(-326,-14) scale(1,1)"><path fill="none" stroke="#000000" d="M 421 36 L 421 50" stroke-miterlimit="10"/></g></g></svg>