<svg version="1.1" xmlns="http://www.w3.org/2000/svg" xmlns:xlink="http://www.w3.org/1999/xlink" width="364.97021484375" height="114"><defs/><g><text fill="#eeeeee" stroke="none" font-family="Arial" font-size="24px" font-style="normal" font-weight="normal" text-decoration="none" x="0" y="0">UNREGISTERED</text><text fill="#eeeeee" stroke="none" font-family="Arial" font-size="24px" font-style="normal" font-weight="normal" text-decoration="none" x="0" y="30">UNREGISTERED</text><text fill="#eeeeee" stroke="none" font-family="Arial" font-size="24px" font-style="normal" font-weight="normal" text-decoration="none" x="0" y="60">UNREGISTERED</text><text fill="#eeeeee" stroke="none" font-family="Arial" font-size="24px" font-style="normal" font-weight="normal" text-decoration="none" x="0" y="90">UNREGISTERED</text><text fill="#eeeeee" stroke="none" font-family="Arial" font-size="24px" font-style="normal" font-weight="normal" text-decoration="none" x="200" y="0">UNREGISTERED</text><text fill="#eeeeee" stroke="none" font-family="Arial" font-size="24px" font-style="normal" font-weight="normal" text-decoration="none" x="200" y="30">UNREGISTERED</text><text fill="#eeeeee" stroke="none" font-family="Arial" font-size="24px" font-style="normal" font-weight="normal" text-decoration="none" x="200" y="60">UNREGISTERED</text><text fill="#eeeeee" stroke="none" font-family="Arial" font-size="24px" font-style="normal" font-weight="normal" text-decoration="none" x="200" y="90">UNREGISTERED</text><g transform="translate(33,-10) scale(1,1)"><rect fill="#C0C0C0" stroke="none" x="47.22998046875" y="34.5" width="94.82666015625" height="24" opacity="0.2"/></g><g transform="translate(33,-10) scale(1,1)"><rect fill="#ffffff" stroke="none" x="40.22998046875" y="27.5" width="94.82666015625" height="24"/></g><g transform="translate(33,-10) scale(1,1)"><path fill="none" stroke="#000000" d="M 40.22998046875 27.5 L 135.056640625 27.5 L 135.056640625 51.5 L 40.22998046875 51.5 L 40.22998046875 27.5 Z Z" stroke-miterlimit="10"/></g><g transform="translate(33,-10) scale(1,1)"><g><path fill="none" stroke="none"/><text fill="#000000" stroke="none" font-family="Arial" font-size="13px" font-style="normal" font-weight="bold" text-decoration="none" x="46.462890625" y="47">OPEXWindow</text></g></g><g transform="translate(33,-10) scale(1,1)"><rect fill="#C0C0C0" stroke="none" x="27" y="97" width="135.28662109375" height="24" opacity="0.2"/></g><g transform="translate(33,-10) scale(1,1)"><rect fill="#ffffff" stroke="none" x="20" y="90" width="135.28662109375" height="24"/></g><g transform="translate(33,-10) scale(1,1)"><path fill="none" stroke="#000000" d="M 20 90 L 155.28662109375 90 L 155.28662109375 114 L 20 114 L 20 90 Z Z" stroke-miterlimit="10"/></g><g transform="translate(33,-10) scale(1,1)"><g><path fill="none" stroke="none"/><text fill="#000000" stroke="none" font-family="Arial" font-size="13px" font-style="normal" font-weight="bold" text-decoration="none" x="27.315185546875" y="109.5">OPEXWindowHelper</text></g></g><g transform="translate(33,-10) scale(1,1)"><rect fill="#C0C0C0" stroke="none" x="173.056640625" y="27" width="22.38398437500001" height="15" opacity="0.2"/></g><g transform="translate(33,-10) scale(1,1)"><rect fill="#C0C0C0" stroke="none" x="173.056640625" y="41" width="55.9599609375" height="25" opacity="0.2"/></g><g transform="translate(33,-10) scale(1,1)"><rect fill="#ffffff" stroke="none" x="166.056640625" y="35" width="55.9599609375" height="24"/></g><g transform="translate(33,-10) scale(1,1)"><path fill="none" stroke="#000000" d="M 166.056640625 35 L 222.0166015625 35 L 222.0166015625 59 L 166.056640625 59 L 166.056640625 35 Z Z" stroke-miterlimit="10"/></g><g transform="translate(33,-10) scale(1,1)"><rect fill="#ffffff" stroke="none" x="166.056640625" y="20" width="22.38398437500001" height="15"/></g><g transform="translate(33,-10) scale(1,1)"><path fill="none" stroke="#000000" d="M 166.056640625 20 L 188.440625 20 L 188.440625 35 L 166.056640625 35 L 166.056640625 20 Z Z" stroke-miterlimit="10"/></g><g transform="translate(33,-10) scale(1,1)"><rect fill="#ffffff" stroke="none" x="166.056640625" y="34" width="55.9599609375" height="25"/></g><g transform="translate(33,-10) scale(1,1)"><path fill="none" stroke="#000000" d="M 166.056640625 34 L 222.0166015625 34 L 222.0166015625 59 L 166.056640625 59 L 166.056640625 34 Z Z" stroke-miterlimit="10"/></g><g transform="translate(33,-10) scale(1,1)"><g><path fill="none" stroke="none"/><text fill="#000000" stroke="none" font-family="Arial" font-size="13px" font-style="normal" font-weight="bold" text-decoration="none" x="172.356201171875" y="54.5">prefabs</text></g></g><g transform="translate(33,-10) scale(1,1)"><rect fill="#C0C0C0" stroke="none" x="260.0166015625" y="27" width="27.581445312500023" height="15" opacity="0.2"/></g><g transform="translate(33,-10) scale(1,1)"><rect fill="#C0C0C0" stroke="none" x="260.0166015625" y="41" width="68.95361328125" height="25" opacity="0.2"/></g><g transform="translate(33,-10) scale(1,1)"><rect fill="#ffffff" stroke="none" x="253.0166015625" y="35" width="68.95361328125" height="24"/></g><g transform="translate(33,-10) scale(1,1)"><path fill="none" stroke="#000000" d="M 253.0166015625 35 L 321.97021484375 35 L 321.97021484375 59 L 253.0166015625 59 L 253.0166015625 35 Z Z" stroke-miterlimit="10"/></g><g transform="translate(33,-10) scale(1,1)"><rect fill="#ffffff" stroke="none" x="253.0166015625" y="20" width="27.581445312500023" height="15"/></g><g transform="translate(33,-10) scale(1,1)"><path fill="none" stroke="#000000" d="M 253.0166015625 20 L 280.598046875 20 L 280.598046875 35 L 253.0166015625 35 L 253.0166015625 20 Z Z" stroke-miterlimit="10"/></g><g transform="translate(33,-10) scale(1,1)"><rect fill="#ffffff" stroke="none" x="253.0166015625" y="34" width="68.95361328125" height="25"/></g><g transform="translate(33,-10) scale(1,1)"><path fill="none" stroke="#000000" d="M 253.0166015625 34 L 321.97021484375 34 L 321.97021484375 59 L 253.0166015625 59 L 253.0166015625 34 Z Z" stroke-miterlimit="10"/></g><g transform="translate(33,-10) scale(1,1)"><g><path fill="none" stroke="none"/><text fill="#000000" stroke="none" font-family="Arial" font-size="13px" font-style="normal" font-weight="bold" text-decoration="none" x="260.0302734375" y="54.5">rendering</text></g></g><g transform="translate(33,-10) scale(1,1)"><path fill="none" stroke="#000000" d="M 87 89 Q 88 75 87 53" stroke-miterlimit="10"/></g><g transform="translate(33,-10) scale(1,1)"><path fill="none" stroke="#000000" d="M 91.66663910167811 62.961048112256506 L 87 53 L 83.25628748624486 63.343336822048926" stroke-miterlimit="10"/></g><g transform="translate(33,-10) scale(1,1)"><g><path fill="none" stroke="none"/><text fill="#000000" stroke="none" font-family="Arial" font-size="13px" font-style="normal" font-weight="normal" text-decoration="none" x="24.5" y="85.5">+OPEXWindows</text></g></g><g transform="translate(33,-10) scale(1,1)"><g><path fill="none" stroke="none"/><text fill="#000000" stroke="none" font-family="Arial" font-size="13px" font-style="normal" font-weight="normal" text-decoration="none" x="-23.5" y="88.5">{collection="List", static=true}</text></g></g><g transform="translate(33,-10) scale(1,1)"><g><path fill="none" stroke="none"/><text fill="#000000" stroke="none" font-family="Arial" font-size="13px" font-style="normal" font-weight="normal" text-decoration="none" x="97.5" y="80.5">*</text></g></g></g></svg>