<svg version="1.1" xmlns="http://www.w3.org/2000/svg" xmlns:xlink="http://www.w3.org/1999/xlink" width="177.85888671875" height="68"><defs/><g><text fill="#eeeeee" stroke="none" font-family="Arial" font-size="24px" font-style="normal" font-weight="normal" text-decoration="none" x="0" y="0">UNREGISTERED</text><text fill="#eeeeee" stroke="none" font-family="Arial" font-size="24px" font-style="normal" font-weight="normal" text-decoration="none" x="0" y="30">UNREGISTERED</text><text fill="#eeeeee" stroke="none" font-family="Arial" font-size="24px" font-style="normal" font-weight="normal" text-decoration="none" x="0" y="60">UNREGISTERED</text><g transform="translate(-10,-10) scale(1,1)"><path fill="#C0C0C0" stroke="none" d="M 94.429443359375 38.5 C 94.429443359375 32.1487248 99.578168159375 27 105.929443359375 27 C 112.280718559375 27 117.429443359375 32.1487248 117.429443359375 38.5 C 117.429443359375 44.8512752 112.280718559375 50 105.929443359375 50 C 99.578168159375 50 94.429443359375 44.8512752 94.429443359375 38.5 Z" opacity="0.2"/></g><g transform="translate(-10,-10) scale(1,1)"><path fill="#ffffff" stroke="none" d="M 87.429443359375 31.5 C 87.429443359375 25.1487248 92.578168159375 20 98.929443359375 20 C 105.280718559375 20 110.429443359375 25.1487248 110.429443359375 31.5 C 110.429443359375 37.8512752 105.280718559375 43 98.929443359375 43 C 92.578168159375 43 87.429443359375 37.8512752 87.429443359375 31.5 Z"/></g><g transform="translate(-10,-10) scale(1,1)"><path fill="none" stroke="#000000" d="M 87.429443359375 31.5 C 87.429443359375 25.1487248 92.578168159375 20 98.929443359375 20 C 105.280718559375 20 110.429443359375 25.1487248 110.429443359375 31.5 C 110.429443359375 37.8512752 105.280718559375 43 98.929443359375 43 C 92.578168159375 43 87.429443359375 37.8512752 87.429443359375 31.5 Z" stroke-miterlimit="10"/></g><g transform="translate(-10,-10) scale(1,1)"><g><path fill="none" stroke="none"/><text fill="#000000" stroke="none" font-family="Arial" font-size="13px" font-style="normal" font-weight="bold" text-decoration="none" x="29.55908203125" y="62.5">JavaLangReflectAccess</text></g></g></g></svg>