<svg version="1.1" xmlns="http://www.w3.org/2000/svg" xmlns:xlink="http://www.w3.org/1999/xlink" width="199.46630859375" height="68"><defs/><g><text fill="#eeeeee" stroke="none" font-family="Arial" font-size="24px" font-style="normal" font-weight="normal" text-decoration="none" x="0" y="0">UNREGISTERED</text><text fill="#eeeeee" stroke="none" font-family="Arial" font-size="24px" font-style="normal" font-weight="normal" text-decoration="none" x="0" y="30">UNREGISTERED</text><text fill="#eeeeee" stroke="none" font-family="Arial" font-size="24px" font-style="normal" font-weight="normal" text-decoration="none" x="0" y="60">UNREGISTERED</text><g transform="translate(-10,-10) scale(1,1)"><path fill="#C0C0C0" stroke="none" d="M 105.233154296875 38.5 C 105.233154296875 32.1487248 110.381879096875 27 116.733154296875 27 C 123.084429496875 27 128.233154296875 32.1487248 128.233154296875 38.5 C 128.233154296875 44.8512752 123.084429496875 50 116.733154296875 50 C 110.381879096875 50 105.233154296875 44.8512752 105.233154296875 38.5 Z" opacity="0.2"/></g><g transform="translate(-10,-10) scale(1,1)"><path fill="#ffffff" stroke="none" d="M 98.233154296875 31.5 C 98.233154296875 25.1487248 103.381879096875 20 109.733154296875 20 C 116.084429496875 20 121.233154296875 25.1487248 121.233154296875 31.5 C 121.233154296875 37.8512752 116.084429496875 43 109.733154296875 43 C 103.381879096875 43 98.233154296875 37.8512752 98.233154296875 31.5 Z"/></g><g transform="translate(-10,-10) scale(1,1)"><path fill="none" stroke="#000000" d="M 98.233154296875 31.5 C 98.233154296875 25.1487248 103.381879096875 20 109.733154296875 20 C 116.084429496875 20 121.233154296875 25.1487248 121.233154296875 31.5 C 121.233154296875 37.8512752 116.084429496875 43 109.733154296875 43 C 103.381879096875 43 98.233154296875 37.8512752 98.233154296875 31.5 Z" stroke-miterlimit="10"/></g><g transform="translate(-10,-10) scale(1,1)"><g><path fill="none" stroke="none"/><text fill="#000000" stroke="none" font-family="Arial" font-size="13px" font-style="normal" font-weight="bold" text-decoration="none" x="30.60009765625" y="62.5">UncaughtExceptionHandler</text></g></g></g></svg>