<svg version="1.1" xmlns="http://www.w3.org/2000/svg" xmlns:xlink="http://www.w3.org/1999/xlink" width="1086.4052734375" height="479"><defs/><g><text fill="#eeeeee" stroke="none" font-family="Arial" font-size="24px" font-style="normal" font-weight="normal" text-decoration="none" x="0" y="0">UNREGISTERED</text><text fill="#eeeeee" stroke="none" font-family="Arial" font-size="24px" font-style="normal" font-weight="normal" text-decoration="none" x="0" y="30">UNREGISTERED</text><text fill="#eeeeee" stroke="none" font-family="Arial" font-size="24px" font-style="normal" font-weight="normal" text-decoration="none" x="0" y="60">UNREGISTERED</text><text fill="#eeeeee" stroke="none" font-family="Arial" font-size="24px" font-style="normal" font-weight="normal" text-decoration="none" x="0" y="90">UNREGISTERED</text><text fill="#eeeeee" stroke="none" font-family="Arial" font-size="24px" font-style="normal" font-weight="normal" text-decoration="none" x="0" y="120">UNREGISTERED</text><text fill="#eeeeee" stroke="none" font-family="Arial" font-size="24px" font-style="normal" font-weight="normal" text-decoration="none" x="0" y="150">UNREGISTERED</text><text fill="#eeeeee" stroke="none" font-family="Arial" font-size="24px" font-style="normal" font-weight="normal" text-decoration="none" x="0" y="180">UNREGISTERED</text><text fill="#eeeeee" stroke="none" font-family="Arial" font-size="24px" font-style="normal" font-weight="normal" text-decoration="none" x="0" y="210">UNREGISTERED</text><text fill="#eeeeee" stroke="none" font-family="Arial" font-size="24px" font-style="normal" font-weight="normal" text-decoration="none" x="0" y="240">UNREGISTERED</text><text fill="#eeeeee" stroke="none" font-family="Arial" font-size="24px" font-style="normal" font-weight="normal" text-decoration="none" x="0" y="270">UNREGISTERED</text><text fill="#eeeeee" stroke="none" font-family="Arial" font-size="24px" font-style="normal" font-weight="normal" text-decoration="none" x="0" y="300">UNREGISTERED</text><text fill="#eeeeee" stroke="none" font-family="Arial" font-size="24px" font-style="normal" font-weight="normal" text-decoration="none" x="0" y="330">UNREGISTERED</text><text fill="#eeeeee" stroke="none" font-family="Arial" font-size="24px" font-style="normal" font-weight="normal" text-decoration="none" x="0" y="360">UNREGISTERED</text><text fill="#eeeeee" stroke="none" font-family="Arial" font-size="24px" font-style="normal" font-weight="normal" text-decoration="none" x="0" y="390">UNREGISTERED</text><text fill="#eeeeee" stroke="none" font-family="Arial" font-size="24px" font-style="normal" font-weight="normal" text-decoration="none" x="0" y="420">UNREGISTERED</text><text fill="#eeeeee" stroke="none" font-family="Arial" font-size="24px" font-style="normal" font-weight="normal" text-decoration="none" x="0" y="450">UNREGISTERED</text><text fill="#eeeeee" stroke="none" font-family="Arial" font-size="24px" font-style="normal" font-weight="normal" text-decoration="none" x="200" y="0">UNREGISTERED</text><text fill="#eeeeee" stroke="none" font-family="Arial" font-size="24px" font-style="normal" font-weight="normal" text-decoration="none" x="200" y="30">UNREGISTERED</text><text fill="#eeeeee" stroke="none" font-family="Arial" font-size="24px" font-style="normal" font-weight="normal" text-decoration="none" x="200" y="60">UNREGISTERED</text><text fill="#eeeeee" stroke="none" font-family="Arial" font-size="24px" font-style="normal" font-weight="normal" text-decoration="none" x="200" y="90">UNREGISTERED</text><text fill="#eeeeee" stroke="none" font-family="Arial" font-size="24px" font-style="normal" font-weight="normal" text-decoration="none" x="200" y="120">UNREGISTERED</text><text fill="#eeeeee" stroke="none" font-family="Arial" font-size="24px" font-style="normal" font-weight="normal" text-decoration="none" x="200" y="150">UNREGISTERED</text><text fill="#eeeeee" stroke="none" font-family="Arial" font-size="24px" font-style="normal" font-weight="normal" text-decoration="none" x="200" y="180">UNREGISTERED</text><text fill="#eeeeee" stroke="none" font-family="Arial" font-size="24px" font-style="normal" font-weight="normal" text-decoration="none" x="200" y="210">UNREGISTERED</text><text fill="#eeeeee" stroke="none" font-family="Arial" font-size="24px" font-style="normal" font-weight="normal" text-decoration="none" x="200" y="240">UNREGISTERED</text><text fill="#eeeeee" stroke="none" font-family="Arial" font-size="24px" font-style="normal" font-weight="normal" text-decoration="none" x="200" y="270">UNREGISTERED</text><text fill="#eeeeee" stroke="none" font-family="Arial" font-size="24px" font-style="normal" font-weight="normal" text-decoration="none" x="200" y="300">UNREGISTERED</text><text fill="#eeeeee" stroke="none" font-family="Arial" font-size="24px" font-style="normal" font-weight="normal" text-decoration="none" x="200" y="330">UNREGISTERED</text><text fill="#eeeeee" stroke="none" font-family="Arial" font-size="24px" font-style="normal" font-weight="normal" text-decoration="none" x="200" y="360">UNREGISTERED</text><text fill="#eeeeee" stroke="none" font-family="Arial" font-size="24px" font-style="normal" font-weight="normal" text-decoration="none" x="200" y="390">UNREGISTERED</text><text fill="#eeeeee" stroke="none" font-family="Arial" font-size="24px" font-style="normal" font-weight="normal" text-decoration="none" x="200" y="420">UNREGISTERED</text><text fill="#eeeeee" stroke="none" font-family="Arial" font-size="24px" font-style="normal" font-weight="normal" text-decoration="none" x="200" y="450">UNREGISTERED</text><text fill="#eeeeee" stroke="none" font-family="Arial" font-size="24px" font-style="normal" font-weight="normal" text-decoration="none" x="400" y="0">UNREGISTERED</text><text fill="#eeeeee" stroke="none" font-family="Arial" font-size="24px" font-style="normal" font-weight="normal" text-decoration="none" x="400" y="30">UNREGISTERED</text><text fill="#eeeeee" stroke="none" font-family="Arial" font-size="24px" font-style="normal" font-weight="normal" text-decoration="none" x="400" y="60">UNREGISTERED</text><text fill="#eeeeee" stroke="none" font-family="Arial" font-size="24px" font-style="normal" font-weight="normal" text-decoration="none" x="400" y="90">UNREGISTERED</text><text fill="#eeeeee" stroke="none" font-family="Arial" font-size="24px" font-style="normal" font-weight="normal" text-decoration="none" x="400" y="120">UNREGISTERED</text><text fill="#eeeeee" stroke="none" font-family="Arial" font-size="24px" font-style="normal" font-weight="normal" text-decoration="none" x="400" y="150">UNREGISTERED</text><text fill="#eeeeee" stroke="none" font-family="Arial" font-size="24px" font-style="normal" font-weight="normal" text-decoration="none" x="400" y="180">UNREGISTERED</text><text fill="#eeeeee" stroke="none" font-family="Arial" font-size="24px" font-style="normal" font-weight="normal" text-decoration="none" x="400" y="210">UNREGISTERED</text><text fill="#eeeeee" stroke="none" font-family="Arial" font-size="24px" font-style="normal" font-weight="normal" text-decoration="none" x="400" y="240">UNREGISTERED</text><text fill="#eeeeee" stroke="none" font-family="Arial" font-size="24px" font-style="normal" font-weight="normal" text-decoration="none" x="400" y="270">UNREGISTERED</text><text fill="#eeeeee" stroke="none" font-family="Arial" font-size="24px" font-style="normal" font-weight="normal" text-decoration="none" x="400" y="300">UNREGISTERED</text><text fill="#eeeeee" stroke="none" font-family="Arial" font-size="24px" font-style="normal" font-weight="normal" text-decoration="none" x="400" y="330">UNREGISTERED</text><text fill="#eeeeee" stroke="none" font-family="Arial" font-size="24px" font-style="normal" font-weight="normal" text-decoration="none" x="400" y="360">UNREGISTERED</text><text fill="#eeeeee" stroke="none" font-family="Arial" font-size="24px" font-style="normal" font-weight="normal" text-decoration="none" x="400" y="390">UNREGISTERED</text><text fill="#eeeeee" stroke="none" font-family="Arial" font-size="24px" font-style="normal" font-weight="normal" text-decoration="none" x="400" y="420">UNREGISTERED</text><text fill="#eeeeee" stroke="none" font-family="Arial" font-size="24px" font-style="normal" font-weight="normal" text-decoration="none" x="400" y="450">UNREGISTERED</text><text fill="#eeeeee" stroke="none" font-family="Arial" font-size="24px" font-style="normal" font-weight="normal" text-decoration="none" x="600" y="0">UNREGISTERED</text><text fill="#eeeeee" stroke="none" font-family="Arial" font-size="24px" font-style="normal" font-weight="normal" text-decoration="none" x="600" y="30">UNREGISTERED</text><text fill="#eeeeee" stroke="none" font-family="Arial" font-size="24px" font-style="normal" font-weight="normal" text-decoration="none" x="600" y="60">UNREGISTERED</text><text fill="#eeeeee" stroke="none" font-family="Arial" font-size="24px" font-style="normal" font-weight="normal" text-decoration="none" x="600" y="90">UNREGISTERED</text><text fill="#eeeeee" stroke="none" font-family="Arial" font-size="24px" font-style="normal" font-weight="normal" text-decoration="none" x="600" y="120">UNREGISTERED</text><text fill="#eeeeee" stroke="none" font-family="Arial" font-size="24px" font-style="normal" font-weight="normal" text-decoration="none" x="600" y="150">UNREGISTERED</text><text fill="#eeeeee" stroke="none" font-family="Arial" font-size="24px" font-style="normal" font-weight="normal" text-decoration="none" x="600" y="180">UNREGISTERED</text><text fill="#eeeeee" stroke="none" font-family="Arial" font-size="24px" font-style="normal" font-weight="normal" text-decoration="none" x="600" y="210">UNREGISTERED</text><text fill="#eeeeee" stroke="none" font-family="Arial" font-size="24px" font-style="normal" font-weight="normal" text-decoration="none" x="600" y="240">UNREGISTERED</text><text fill="#eeeeee" stroke="none" font-family="Arial" font-size="24px" font-style="normal" font-weight="normal" text-decoration="none" x="600" y="270">UNREGISTERED</text><text fill="#eeeeee" stroke="none" font-family="Arial" font-size="24px" font-style="normal" font-weight="normal" text-decoration="none" x="600" y="300">UNREGISTERED</text><text fill="#eeeeee" stroke="none" font-family="Arial" font-size="24px" font-style="normal" font-weight="normal" text-decoration="none" x="600" y="330">UNREGISTERED</text><text fill="#eeeeee" stroke="none" font-family="Arial" font-size="24px" font-style="normal" font-weight="normal" text-decoration="none" x="600" y="360">UNREGISTERED</text><text fill="#eeeeee" stroke="none" font-family="Arial" font-size="24px" font-style="normal" font-weight="normal" text-decoration="none" x="600" y="390">UNREGISTERED</text><text fill="#eeeeee" stroke="none" font-family="Arial" font-size="24px" font-style="normal" font-weight="normal" text-decoration="none" x="600" y="420">UNREGISTERED</text><text fill="#eeeeee" stroke="none" font-family="Arial" font-size="24px" font-style="normal" font-weight="normal" text-decoration="none" x="600" y="450">UNREGISTERED</text><text fill="#eeeeee" stroke="none" font-family="Arial" font-size="24px" font-style="normal" font-weight="normal" text-decoration="none" x="800" y="0">UNREGISTERED</text><text fill="#eeeeee" stroke="none" font-family="Arial" font-size="24px" font-style="normal" font-weight="normal" text-decoration="none" x="800" y="30">UNREGISTERED</text><text fill="#eeeeee" stroke="none" font-family="Arial" font-size="24px" font-style="normal" font-weight="normal" text-decoration="none" x="800" y="60">UNREGISTERED</text><text fill="#eeeeee" stroke="none" font-family="Arial" font-size="24px" font-style="normal" font-weight="normal" text-decoration="none" x="800" y="90">UNREGISTERED</text><text fill="#eeeeee" stroke="none" font-family="Arial" font-size="24px" font-style="normal" font-weight="normal" text-decoration="none" x="800" y="120">UNREGISTERED</text><text fill="#eeeeee" stroke="none" font-family="Arial" font-size="24px" font-style="normal" font-weight="normal" text-decoration="none" x="800" y="150">UNREGISTERED</text><text fill="#eeeeee" stroke="none" font-family="Arial" font-size="24px" font-style="normal" font-weight="normal" text-decoration="none" x="800" y="180">UNREGISTERED</text><text fill="#eeeeee" stroke="none" font-family="Arial" font-size="24px" font-style="normal" font-weight="normal" text-decoration="none" x="800" y="210">UNREGISTERED</text><text fill="#eeeeee" stroke="none" font-family="Arial" font-size="24px" font-style="normal" font-weight="normal" text-decoration="none" x="800" y="240">UNREGISTERED</text><text fill="#eeeeee" stroke="none" font-family="Arial" font-size="24px" font-style="normal" font-weight="normal" text-decoration="none" x="800" y="270">UNREGISTERED</text><text fill="#eeeeee" stroke="none" font-family="Arial" font-size="24px" font-style="normal" font-weight="normal" text-decoration="none" x="800" y="300">UNREGISTERED</text><text fill="#eeeeee" stroke="none" font-family="Arial" font-size="24px" font-style="normal" font-weight="normal" text-decoration="none" x="800" y="330">UNREGISTERED</text><text fill="#eeeeee" stroke="none" font-family="Arial" font-size="24px" font-style="normal" font-weight="normal" text-decoration="none" x="800" y="360">UNREGISTERED</text><text fill="#eeeeee" stroke="none" font-family="Arial" font-size="24px" font-style="normal" font-weight="normal" text-decoration="none" x="800" y="390">UNREGISTERED</text><text fill="#eeeeee" stroke="none" font-family="Arial" font-size="24px" font-style="normal" font-weight="normal" text-decoration="none" x="800" y="420">UNREGISTERED</text><text fill="#eeeeee" stroke="none" font-family="Arial" font-size="24px" font-style="normal" font-weight="normal" text-decoration="none" x="800" y="450">UNREGISTERED</text><text fill="#eeeeee" stroke="none" font-family="Arial" font-size="24px" font-style="normal" font-weight="normal" text-decoration="none" x="1000" y="0">UNREGISTERED</text><text fill="#eeeeee" stroke="none" font-family="Arial" font-size="24px" font-style="normal" font-weight="normal" text-decoration="none" x="1000" y="30">UNREGISTERED</text><text fill="#eeeeee" stroke="none" font-family="Arial" font-size="24px" font-style="normal" font-weight="normal" text-decoration="none" x="1000" y="60">UNREGISTERED</text><text fill="#eeeeee" stroke="none" font-family="Arial" font-size="24px" font-style="normal" font-weight="normal" text-decoration="none" x="1000" y="90">UNREGISTERED</text><text fill="#eeeeee" stroke="none" font-family="Arial" font-size="24px" font-style="normal" font-weight="normal" text-decoration="none" x="1000" y="120">UNREGISTERED</text><text fill="#eeeeee" stroke="none" font-family="Arial" font-size="24px" font-style="normal" font-weight="normal" text-decoration="none" x="1000" y="150">UNREGISTERED</text><text fill="#eeeeee" stroke="none" font-family="Arial" font-size="24px" font-style="normal" font-weight="normal" text-decoration="none" x="1000" y="180">UNREGISTERED</text><text fill="#eeeeee" stroke="none" font-family="Arial" font-size="24px" font-style="normal" font-weight="normal" text-decoration="none" x="1000" y="210">UNREGISTERED</text><text fill="#eeeeee" stroke="none" font-family="Arial" font-size="24px" font-style="normal" font-weight="normal" text-decoration="none" x="1000" y="240">UNREGISTERED</text><text fill="#eeeeee" stroke="none" font-family="Arial" font-size="24px" font-style="normal" font-weight="normal" text-decoration="none" x="1000" y="270">UNREGISTERED</text><text fill="#eeeeee" stroke="none" font-family="Arial" font-size="24px" font-style="normal" font-weight="normal" text-decoration="none" x="1000" y="300">UNREGISTERED</text><text fill="#eeeeee" stroke="none" font-family="Arial" font-size="24px" font-style="normal" font-weight="normal" text-decoration="none" x="1000" y="330">UNREGISTERED</text><text fill="#eeeeee" stroke="none" font-family="Arial" font-size="24px" font-style="normal" font-weight="normal" text-decoration="none" x="1000" y="360">UNREGISTERED</text><text fill="#eeeeee" stroke="none" font-family="Arial" font-size="24px" font-style="normal" font-weight="normal" text-decoration="none" x="1000" y="390">UNREGISTERED</text><text fill="#eeeeee" stroke="none" font-family="Arial" font-size="24px" font-style="normal" font-weight="normal" text-decoration="none" x="1000" y="420">UNREGISTERED</text><text fill="#eeeeee" stroke="none" font-family="Arial" font-size="24px" font-style="normal" font-weight="normal" text-decoration="none" x="1000" y="450">UNREGISTERED</text><g transform="translate(-10,-10) scale(1,1)"><rect fill="#C0C0C0" stroke="none" x="530.7142333984375" y="27" width="19.600000000000023" height="15" opacity="0.2"/></g><g transform="translate(-10,-10) scale(1,1)"><rect fill="#C0C0C0" stroke="none" x="530.7142333984375" y="41" width="49" height="25" opacity="0.2"/></g><g transform="translate(-10,-10) scale(1,1)"><rect fill="#ffffff" stroke="none" x="523.7142333984375" y="35" width="49" height="24"/></g><g transform="translate(-10,-10) scale(1,1)"><path fill="none" stroke="#000000" d="M 523.7142333984375 35 L 572.7142333984375 35 L 572.7142333984375 59 L 523.7142333984375 59 L 523.7142333984375 35 Z Z" stroke-miterlimit="10"/></g><g transform="translate(-10,-10) scale(1,1)"><rect fill="#ffffff" stroke="none" x="523.7142333984375" y="20" width="19.600000000000023" height="15"/></g><g transform="translate(-10,-10) scale(1,1)"><path fill="none" stroke="#000000" d="M 523.7142333984375 20 L 543.3142333984375 20 L 543.3142333984375 35 L 523.7142333984375 35 L 523.7142333984375 20 Z Z" stroke-miterlimit="10"/></g><g transform="translate(-10,-10) scale(1,1)"><rect fill="#ffffff" stroke="none" x="523.7142333984375" y="34" width="49" height="25"/></g><g transform="translate(-10,-10) scale(1,1)"><path fill="none" stroke="#000000" d="M 523.7142333984375 34 L 572.7142333984375 34 L 572.7142333984375 59 L 523.7142333984375 59 L 523.7142333984375 34 Z Z" stroke-miterlimit="10"/></g><g transform="translate(-10,-10) scale(1,1)"><g><path fill="none" stroke="none"/><text fill="#000000" stroke="none" font-family="Arial" font-size="13px" font-style="normal" font-weight="bold" text-decoration="none" x="535.9346923828125" y="54.5">com</text></g></g><g transform="translate(-10,-10) scale(1,1)"><rect fill="#C0C0C0" stroke="none" x="234.0665283203125" y="97" width="19.599999999999994" height="15" opacity="0.2"/></g><g transform="translate(-10,-10) scale(1,1)"><rect fill="#C0C0C0" stroke="none" x="234.0665283203125" y="111" width="49" height="25" opacity="0.2"/></g><g transform="translate(-10,-10) scale(1,1)"><rect fill="#ffffff" stroke="none" x="227.0665283203125" y="105" width="49" height="24"/></g><g transform="translate(-10,-10) scale(1,1)"><path fill="none" stroke="#000000" d="M 227.0665283203125 105 L 276.0665283203125 105 L 276.0665283203125 129 L 227.0665283203125 129 L 227.0665283203125 105 Z Z" stroke-miterlimit="10"/></g><g transform="translate(-10,-10) scale(1,1)"><rect fill="#ffffff" stroke="none" x="227.0665283203125" y="90" width="19.599999999999994" height="15"/></g><g transform="translate(-10,-10) scale(1,1)"><path fill="none" stroke="#000000" d="M 227.0665283203125 90 L 246.6665283203125 90 L 246.6665283203125 105 L 227.0665283203125 105 L 227.0665283203125 90 Z Z" stroke-miterlimit="10"/></g><g transform="translate(-10,-10) scale(1,1)"><rect fill="#ffffff" stroke="none" x="227.0665283203125" y="104" width="49" height="25"/></g><g transform="translate(-10,-10) scale(1,1)"><path fill="none" stroke="#000000" d="M 227.0665283203125 104 L 276.0665283203125 104 L 276.0665283203125 129 L 227.0665283203125 129 L 227.0665283203125 104 Z Z" stroke-miterlimit="10"/></g><g transform="translate(-10,-10) scale(1,1)"><g><path fill="none" stroke="none"/><text fill="#000000" stroke="none" font-family="Arial" font-size="13px" font-style="normal" font-weight="bold" text-decoration="none" x="238.1983642578125" y="124.5">jcabi</text></g></g><g transform="translate(-10,-10) scale(1,1)"><rect fill="#C0C0C0" stroke="none" x="229.8565673828125" y="167" width="22.96796875000001" height="15" opacity="0.2"/></g><g transform="translate(-10,-10) scale(1,1)"><rect fill="#C0C0C0" stroke="none" x="229.8565673828125" y="181" width="57.419921875" height="25" opacity="0.2"/></g><g transform="translate(-10,-10) scale(1,1)"><rect fill="#ffffff" stroke="none" x="222.8565673828125" y="175" width="57.419921875" height="24"/></g><g transform="translate(-10,-10) scale(1,1)"><path fill="none" stroke="#000000" d="M 222.8565673828125 175 L 280.2764892578125 175 L 280.2764892578125 199 L 222.8565673828125 199 L 222.8565673828125 175 Z Z" stroke-miterlimit="10"/></g><g transform="translate(-10,-10) scale(1,1)"><rect fill="#ffffff" stroke="none" x="222.8565673828125" y="160" width="22.96796875000001" height="15"/></g><g transform="translate(-10,-10) scale(1,1)"><path fill="none" stroke="#000000" d="M 222.8565673828125 160 L 245.8245361328125 160 L 245.8245361328125 175 L 222.8565673828125 175 L 222.8565673828125 160 Z Z" stroke-miterlimit="10"/></g><g transform="translate(-10,-10) scale(1,1)"><rect fill="#ffffff" stroke="none" x="222.8565673828125" y="174" width="57.419921875" height="25"/></g><g transform="translate(-10,-10) scale(1,1)"><path fill="none" stroke="#000000" d="M 222.8565673828125 174 L 280.2764892578125 174 L 280.2764892578125 199 L 222.8565673828125 199 L 222.8565673828125 174 Z Z" stroke-miterlimit="10"/></g><g transform="translate(-10,-10) scale(1,1)"><g><path fill="none" stroke="none"/><text fill="#000000" stroke="none" font-family="Arial" font-size="13px" font-style="normal" font-weight="bold" text-decoration="none" x="229.1656494140625" y="194.5">aspects</text></g></g><g transform="translate(-10,-10) scale(1,1)"><rect fill="#C0C0C0" stroke="none" x="234.0665283203125" y="237" width="19.599999999999994" height="15" opacity="0.2"/></g><g transform="translate(-10,-10) scale(1,1)"><rect fill="#C0C0C0" stroke="none" x="234.0665283203125" y="251" width="49" height="25" opacity="0.2"/></g><g transform="translate(-10,-10) scale(1,1)"><rect fill="#ffffff" stroke="none" x="227.0665283203125" y="245" width="49" height="24"/></g><g transform="translate(-10,-10) scale(1,1)"><path fill="none" stroke="#000000" d="M 227.0665283203125 245 L 276.0665283203125 245 L 276.0665283203125 269 L 227.0665283203125 269 L 227.0665283203125 245 Z Z" stroke-miterlimit="10"/></g><g transform="translate(-10,-10) scale(1,1)"><rect fill="#ffffff" stroke="none" x="227.0665283203125" y="230" width="19.599999999999994" height="15"/></g><g transform="translate(-10,-10) scale(1,1)"><path fill="none" stroke="#000000" d="M 227.0665283203125 230 L 246.6665283203125 230 L 246.6665283203125 245 L 227.0665283203125 245 L 227.0665283203125 230 Z Z" stroke-miterlimit="10"/></g><g transform="translate(-10,-10) scale(1,1)"><rect fill="#ffffff" stroke="none" x="227.0665283203125" y="244" width="49" height="25"/></g><g transform="translate(-10,-10) scale(1,1)"><path fill="none" stroke="#000000" d="M 227.0665283203125 244 L 276.0665283203125 244 L 276.0665283203125 269 L 227.0665283203125 269 L 227.0665283203125 244 Z Z" stroke-miterlimit="10"/></g><g transform="translate(-10,-10) scale(1,1)"><g><path fill="none" stroke="none"/><text fill="#000000" stroke="none" font-family="Arial" font-size="13px" font-style="normal" font-weight="bold" text-decoration="none" x="246.5074462890625" y="264.5">aj</text></g></g><g transform="translate(-10,-10) scale(1,1)"><rect fill="#C0C0C0" stroke="none" x="428.298583984375" y="237" width="19.600000000000023" height="15" opacity="0.2"/></g><g transform="translate(-10,-10) scale(1,1)"><rect fill="#C0C0C0" stroke="none" x="428.298583984375" y="251" width="49" height="25" opacity="0.2"/></g><g transform="translate(-10,-10) scale(1,1)"><rect fill="#ffffff" stroke="none" x="421.298583984375" y="245" width="49" height="24"/></g><g transform="translate(-10,-10) scale(1,1)"><path fill="none" stroke="#000000" d="M 421.298583984375 245 L 470.298583984375 245 L 470.298583984375 269 L 421.298583984375 269 L 421.298583984375 245 Z Z" stroke-miterlimit="10"/></g><g transform="translate(-10,-10) scale(1,1)"><rect fill="#ffffff" stroke="none" x="421.298583984375" y="230" width="19.600000000000023" height="15"/></g><g transform="translate(-10,-10) scale(1,1)"><path fill="none" stroke="#000000" d="M 421.298583984375 230 L 440.898583984375 230 L 440.898583984375 245 L 421.298583984375 245 L 421.298583984375 230 Z Z" stroke-miterlimit="10"/></g><g transform="translate(-10,-10) scale(1,1)"><rect fill="#ffffff" stroke="none" x="421.298583984375" y="244" width="49" height="25"/></g><g transform="translate(-10,-10) scale(1,1)"><path fill="none" stroke="#000000" d="M 421.298583984375 244 L 470.298583984375 244 L 470.298583984375 269 L 421.298583984375 269 L 421.298583984375 244 Z Z" stroke-miterlimit="10"/></g><g transform="translate(-10,-10) scale(1,1)"><g><path fill="none" stroke="none"/><text fill="#000000" stroke="none" font-family="Arial" font-size="13px" font-style="normal" font-weight="bold" text-decoration="none" x="436.7626953125" y="264.5">apt</text></g></g><g transform="translate(-10,-10) scale(1,1)"><rect fill="#C0C0C0" stroke="none" x="756.1546630859375" y="97" width="32.210156249999955" height="15" opacity="0.2"/></g><g transform="translate(-10,-10) scale(1,1)"><rect fill="#C0C0C0" stroke="none" x="756.1546630859375" y="111" width="80.525390625" height="25" opacity="0.2"/></g><g transform="translate(-10,-10) scale(1,1)"><rect fill="#ffffff" stroke="none" x="749.1546630859375" y="105" width="80.525390625" height="24"/></g><g transform="translate(-10,-10) scale(1,1)"><path fill="none" stroke="#000000" d="M 749.1546630859375 105 L 829.6800537109375 105 L 829.6800537109375 129 L 749.1546630859375 129 L 749.1546630859375 105 Z Z" stroke-miterlimit="10"/></g><g transform="translate(-10,-10) scale(1,1)"><rect fill="#ffffff" stroke="none" x="749.1546630859375" y="90" width="32.210156249999955" height="15"/></g><g transform="translate(-10,-10) scale(1,1)"><path fill="none" stroke="#000000" d="M 749.1546630859375 90 L 781.3648193359375 90 L 781.3648193359375 105 L 749.1546630859375 105 L 749.1546630859375 90 Z Z" stroke-miterlimit="10"/></g><g transform="translate(-10,-10) scale(1,1)"><rect fill="#ffffff" stroke="none" x="749.1546630859375" y="104" width="80.525390625" height="25"/></g><g transform="translate(-10,-10) scale(1,1)"><path fill="none" stroke="#000000" d="M 749.1546630859375 104 L 829.6800537109375 104 L 829.6800537109375 129 L 749.1546630859375 129 L 749.1546630859375 104 Z Z" stroke-miterlimit="10"/></g><g transform="translate(-10,-10) scale(1,1)"><g><path fill="none" stroke="none"/><text fill="#000000" stroke="none" font-family="Arial" font-size="13px" font-style="normal" font-weight="bold" text-decoration="none" x="756.5333251953125" y="124.5">shinkson47</text></g></g><g transform="translate(-10,-10) scale(1,1)"><rect fill="#C0C0C0" stroke="none" x="771.9173583984375" y="167" width="19.600000000000023" height="15" opacity="0.2"/></g><g transform="translate(-10,-10) scale(1,1)"><rect fill="#C0C0C0" stroke="none" x="771.9173583984375" y="181" width="49" height="25" opacity="0.2"/></g><g transform="translate(-10,-10) scale(1,1)"><rect fill="#ffffff" stroke="none" x="764.9173583984375" y="175" width="49" height="24"/></g><g transform="translate(-10,-10) scale(1,1)"><path fill="none" stroke="#000000" d="M 764.9173583984375 175 L 813.9173583984375 175 L 813.9173583984375 199 L 764.9173583984375 199 L 764.9173583984375 175 Z Z" stroke-miterlimit="10"/></g><g transform="translate(-10,-10) scale(1,1)"><rect fill="#ffffff" stroke="none" x="764.9173583984375" y="160" width="19.600000000000023" height="15"/></g><g transform="translate(-10,-10) scale(1,1)"><path fill="none" stroke="#000000" d="M 764.9173583984375 160 L 784.5173583984375 160 L 784.5173583984375 175 L 764.9173583984375 175 L 764.9173583984375 160 Z Z" stroke-miterlimit="10"/></g><g transform="translate(-10,-10) scale(1,1)"><rect fill="#ffffff" stroke="none" x="764.9173583984375" y="174" width="49" height="25"/></g><g transform="translate(-10,-10) scale(1,1)"><path fill="none" stroke="#000000" d="M 764.9173583984375 174 L 813.9173583984375 174 L 813.9173583984375 199 L 764.9173583984375 199 L 764.9173583984375 174 Z Z" stroke-miterlimit="10"/></g><g transform="translate(-10,-10) scale(1,1)"><g><path fill="none" stroke="none"/><text fill="#000000" stroke="none" font-family="Arial" font-size="13px" font-style="normal" font-weight="bold" text-decoration="none" x="775.3223876953125" y="194.5">opex</text></g></g><g transform="translate(-10,-10) scale(1,1)"><rect fill="#C0C0C0" stroke="none" x="508.298583984375" y="237" width="24.697070312500045" height="15" opacity="0.2"/></g><g transform="translate(-10,-10) scale(1,1)"><rect fill="#C0C0C0" stroke="none" x="508.298583984375" y="251" width="61.74267578125" height="25" opacity="0.2"/></g><g transform="translate(-10,-10) scale(1,1)"><rect fill="#ffffff" stroke="none" x="501.298583984375" y="245" width="61.74267578125" height="24"/></g><g transform="translate(-10,-10) scale(1,1)"><path fill="none" stroke="#000000" d="M 501.298583984375 245 L 563.041259765625 245 L 563.041259765625 269 L 501.298583984375 269 L 501.298583984375 245 Z Z" stroke-miterlimit="10"/></g><g transform="translate(-10,-10) scale(1,1)"><rect fill="#ffffff" stroke="none" x="501.298583984375" y="230" width="24.697070312500045" height="15"/></g><g transform="translate(-10,-10) scale(1,1)"><path fill="none" stroke="#000000" d="M 501.298583984375 230 L 525.995654296875 230 L 525.995654296875 245 L 501.298583984375 245 L 501.298583984375 230 Z Z" stroke-miterlimit="10"/></g><g transform="translate(-10,-10) scale(1,1)"><rect fill="#ffffff" stroke="none" x="501.298583984375" y="244" width="61.74267578125" height="25"/></g><g transform="translate(-10,-10) scale(1,1)"><path fill="none" stroke="#000000" d="M 501.298583984375 244 L 563.041259765625 244 L 563.041259765625 269 L 501.298583984375 269 L 501.298583984375 244 Z Z" stroke-miterlimit="10"/></g><g transform="translate(-10,-10) scale(1,1)"><g><path fill="none" stroke="none"/><text fill="#000000" stroke="none" font-family="Arial" font-size="13px" font-style="normal" font-weight="bold" text-decoration="none" x="507.594970703125" y="264.5">backend</text></g></g><g transform="translate(-10,-10) scale(1,1)"><rect fill="#C0C0C0" stroke="none" x="147" y="307" width="19.599999999999994" height="15" opacity="0.2"/></g><g transform="translate(-10,-10) scale(1,1)"><rect fill="#C0C0C0" stroke="none" x="147" y="321" width="49" height="25" opacity="0.2"/></g><g transform="translate(-10,-10) scale(1,1)"><rect fill="#ffffff" stroke="none" x="140" y="315" width="49" height="24"/></g><g transform="translate(-10,-10) scale(1,1)"><path fill="none" stroke="#000000" d="M 140 315 L 189 315 L 189 339 L 140 339 L 140 315 Z Z" stroke-miterlimit="10"/></g><g transform="translate(-10,-10) scale(1,1)"><rect fill="#ffffff" stroke="none" x="140" y="300" width="19.599999999999994" height="15"/></g><g transform="translate(-10,-10) scale(1,1)"><path fill="none" stroke="#000000" d="M 140 300 L 159.6 300 L 159.6 315 L 140 315 L 140 300 Z Z" stroke-miterlimit="10"/></g><g transform="translate(-10,-10) scale(1,1)"><rect fill="#ffffff" stroke="none" x="140" y="314" width="49" height="25"/></g><g transform="translate(-10,-10) scale(1,1)"><path fill="none" stroke="#000000" d="M 140 314 L 189 314 L 189 339 L 140 339 L 140 314 Z Z" stroke-miterlimit="10"/></g><g transform="translate(-10,-10) scale(1,1)"><g><path fill="none" stroke="none"/><text fill="#000000" stroke="none" font-family="Arial" font-size="13px" font-style="normal" font-weight="bold" text-decoration="none" x="159.44091796875" y="334.5">io</text></g></g><g transform="translate(-10,-10) scale(1,1)"><rect fill="#C0C0C0" stroke="none" x="27" y="377" width="19.6" height="15" opacity="0.2"/></g><g transform="translate(-10,-10) scale(1,1)"><rect fill="#C0C0C0" stroke="none" x="27" y="391" width="49" height="25" opacity="0.2"/></g><g transform="translate(-10,-10) scale(1,1)"><rect fill="#ffffff" stroke="none" x="20" y="385" width="49" height="24"/></g><g transform="translate(-10,-10) scale(1,1)"><path fill="none" stroke="#000000" d="M 20 385 L 69 385 L 69 409 L 20 409 L 20 385 Z Z" stroke-miterlimit="10"/></g><g transform="translate(-10,-10) scale(1,1)"><rect fill="#ffffff" stroke="none" x="20" y="370" width="19.6" height="15"/></g><g transform="translate(-10,-10) scale(1,1)"><path fill="none" stroke="#000000" d="M 20 370 L 39.6 370 L 39.6 385 L 20 385 L 20 370 Z Z" stroke-miterlimit="10"/></g><g transform="translate(-10,-10) scale(1,1)"><rect fill="#ffffff" stroke="none" x="20" y="384" width="49" height="25"/></g><g transform="translate(-10,-10) scale(1,1)"><path fill="none" stroke="#000000" d="M 20 384 L 69 384 L 69 409 L 20 409 L 20 384 Z Z" stroke-miterlimit="10"/></g><g transform="translate(-10,-10) scale(1,1)"><g><path fill="none" stroke="none"/><text fill="#000000" stroke="none" font-family="Arial" font-size="13px" font-style="normal" font-weight="bold" text-decoration="none" x="34.0263671875" y="404.5">cjar</text></g></g><g transform="translate(-10,-10) scale(1,1)"><rect fill="#C0C0C0" stroke="none" x="107" y="377" width="19.599999999999994" height="15" opacity="0.2"/></g><g transform="translate(-10,-10) scale(1,1)"><rect fill="#C0C0C0" stroke="none" x="107" y="391" width="49" height="25" opacity="0.2"/></g><g transform="translate(-10,-10) scale(1,1)"><rect fill="#ffffff" stroke="none" x="100" y="385" width="49" height="24"/></g><g transform="translate(-10,-10) scale(1,1)"><path fill="none" stroke="#000000" d="M 100 385 L 149 385 L 149 409 L 100 409 L 100 385 Z Z" stroke-miterlimit="10"/></g><g transform="translate(-10,-10) scale(1,1)"><rect fill="#ffffff" stroke="none" x="100" y="370" width="19.599999999999994" height="15"/></g><g transform="translate(-10,-10) scale(1,1)"><path fill="none" stroke="#000000" d="M 100 370 L 119.6 370 L 119.6 385 L 100 385 L 100 370 Z Z" stroke-miterlimit="10"/></g><g transform="translate(-10,-10) scale(1,1)"><rect fill="#ffffff" stroke="none" x="100" y="384" width="49" height="25"/></g><g transform="translate(-10,-10) scale(1,1)"><path fill="none" stroke="#000000" d="M 100 384 L 149 384 L 149 409 L 100 409 L 100 384 Z Z" stroke-miterlimit="10"/></g><g transform="translate(-10,-10) scale(1,1)"><g><path fill="none" stroke="none"/><text fill="#000000" stroke="none" font-family="Arial" font-size="13px" font-style="normal" font-weight="bold" text-decoration="none" x="111.84912109375" y="404.5">data</text></g></g><g transform="translate(-10,-10) scale(1,1)"><rect fill="#C0C0C0" stroke="none" x="187" y="377" width="19.599999999999994" height="15" opacity="0.2"/></g><g transform="translate(-10,-10) scale(1,1)"><rect fill="#C0C0C0" stroke="none" x="187" y="391" width="49" height="25" opacity="0.2"/></g><g transform="translate(-10,-10) scale(1,1)"><rect fill="#ffffff" stroke="none" x="180" y="385" width="49" height="24"/></g><g transform="translate(-10,-10) scale(1,1)"><path fill="none" stroke="#000000" d="M 180 385 L 229 385 L 229 409 L 180 409 L 180 385 Z Z" stroke-miterlimit="10"/></g><g transform="translate(-10,-10) scale(1,1)"><rect fill="#ffffff" stroke="none" x="180" y="370" width="19.599999999999994" height="15"/></g><g transform="translate(-10,-10) scale(1,1)"><path fill="none" stroke="#000000" d="M 180 370 L 199.6 370 L 199.6 385 L 180 385 L 180 370 Z Z" stroke-miterlimit="10"/></g><g transform="translate(-10,-10) scale(1,1)"><rect fill="#ffffff" stroke="none" x="180" y="384" width="49" height="25"/></g><g transform="translate(-10,-10) scale(1,1)"><path fill="none" stroke="#000000" d="M 180 384 L 229 384 L 229 409 L 180 409 L 180 384 Z Z" stroke-miterlimit="10"/></g><g transform="translate(-10,-10) scale(1,1)"><g><path fill="none" stroke="none"/><text fill="#000000" stroke="none" font-family="Arial" font-size="13px" font-style="normal" font-weight="bold" text-decoration="none" x="190.405029296875" y="404.5">input</text></g></g><g transform="translate(-10,-10) scale(1,1)"><rect fill="#C0C0C0" stroke="none" x="577.548095703125" y="307" width="22.668359375000023" height="15" opacity="0.2"/></g><g transform="translate(-10,-10) scale(1,1)"><rect fill="#C0C0C0" stroke="none" x="577.548095703125" y="321" width="56.6708984375" height="25" opacity="0.2"/></g><g transform="translate(-10,-10) scale(1,1)"><rect fill="#ffffff" stroke="none" x="570.548095703125" y="315" width="56.6708984375" height="24"/></g><g transform="translate(-10,-10) scale(1,1)"><path fill="none" stroke="#000000" d="M 570.548095703125 315 L 627.218994140625 315 L 627.218994140625 339 L 570.548095703125 339 L 570.548095703125 315 Z Z" stroke-miterlimit="10"/></g><g transform="translate(-10,-10) scale(1,1)"><rect fill="#ffffff" stroke="none" x="570.548095703125" y="300" width="22.668359375000023" height="15"/></g><g transform="translate(-10,-10) scale(1,1)"><path fill="none" stroke="#000000" d="M 570.548095703125 300 L 593.216455078125 300 L 593.216455078125 315 L 570.548095703125 315 L 570.548095703125 300 Z Z" stroke-miterlimit="10"/></g><g transform="translate(-10,-10) scale(1,1)"><rect fill="#ffffff" stroke="none" x="570.548095703125" y="314" width="56.6708984375" height="25"/></g><g transform="translate(-10,-10) scale(1,1)"><path fill="none" stroke="#000000" d="M 570.548095703125 314 L 627.218994140625 314 L 627.218994140625 339 L 570.548095703125 339 L 570.548095703125 314 Z Z" stroke-miterlimit="10"/></g><g transform="translate(-10,-10) scale(1,1)"><g><path fill="none" stroke="none"/><text fill="#000000" stroke="none" font-family="Arial" font-size="13px" font-style="normal" font-weight="bold" text-decoration="none" x="577.20947265625" y="334.5">runtime</text></g></g><g transform="translate(-10,-10) scale(1,1)"><rect fill="#C0C0C0" stroke="none" x="267" y="377" width="23.24980468749999" height="15" opacity="0.2"/></g><g transform="translate(-10,-10) scale(1,1)"><rect fill="#C0C0C0" stroke="none" x="267" y="391" width="58.12451171875" height="25" opacity="0.2"/></g><g transform="translate(-10,-10) scale(1,1)"><rect fill="#ffffff" stroke="none" x="260" y="385" width="58.12451171875" height="24"/></g><g transform="translate(-10,-10) scale(1,1)"><path fill="none" stroke="#000000" d="M 260 385 L 318.12451171875 385 L 318.12451171875 409 L 260 409 L 260 385 Z Z" stroke-miterlimit="10"/></g><g transform="translate(-10,-10) scale(1,1)"><rect fill="#ffffff" stroke="none" x="260" y="370" width="23.24980468749999" height="15"/></g><g transform="translate(-10,-10) scale(1,1)"><path fill="none" stroke="#000000" d="M 260 370 L 283.2498046875 370 L 283.2498046875 385 L 260 385 L 260 370 Z Z" stroke-miterlimit="10"/></g><g transform="translate(-10,-10) scale(1,1)"><rect fill="#ffffff" stroke="none" x="260" y="384" width="58.12451171875" height="25"/></g><g transform="translate(-10,-10) scale(1,1)"><path fill="none" stroke="#000000" d="M 260 384 L 318.12451171875 384 L 318.12451171875 409 L 260 409 L 260 384 Z Z" stroke-miterlimit="10"/></g><g transform="translate(-10,-10) scale(1,1)"><g><path fill="none" stroke="none"/><text fill="#000000" stroke="none" font-family="Arial" font-size="13px" font-style="normal" font-weight="bold" text-decoration="none" x="266.658203125" y="404.5">console</text></g></g><g transform="translate(-10,-10) scale(1,1)"><rect fill="#C0C0C0" stroke="none" x="254.364990234375" y="447" width="33.35781250000002" height="15" opacity="0.2"/></g><g transform="translate(-10,-10) scale(1,1)"><rect fill="#C0C0C0" stroke="none" x="254.364990234375" y="461" width="83.39453125" height="25" opacity="0.2"/></g><g transform="translate(-10,-10) scale(1,1)"><rect fill="#ffffff" stroke="none" x="247.364990234375" y="455" width="83.39453125" height="24"/></g><g transform="translate(-10,-10) scale(1,1)"><path fill="none" stroke="#000000" d="M 247.364990234375 455 L 330.759521484375 455 L 330.759521484375 479 L 247.364990234375 479 L 247.364990234375 455 Z Z" stroke-miterlimit="10"/></g><g transform="translate(-10,-10) scale(1,1)"><rect fill="#ffffff" stroke="none" x="247.364990234375" y="440" width="33.35781250000002" height="15"/></g><g transform="translate(-10,-10) scale(1,1)"><path fill="none" stroke="#000000" d="M 247.364990234375 440 L 280.722802734375 440 L 280.722802734375 455 L 247.364990234375 455 L 247.364990234375 440 Z Z" stroke-miterlimit="10"/></g><g transform="translate(-10,-10) scale(1,1)"><rect fill="#ffffff" stroke="none" x="247.364990234375" y="454" width="83.39453125" height="25"/></g><g transform="translate(-10,-10) scale(1,1)"><path fill="none" stroke="#000000" d="M 247.364990234375 454 L 330.759521484375 454 L 330.759521484375 479 L 247.364990234375 479 L 247.364990234375 454 Z Z" stroke-miterlimit="10"/></g><g transform="translate(-10,-10) scale(1,1)"><g><path fill="none" stroke="none"/><text fill="#000000" stroke="none" font-family="Arial" font-size="13px" font-style="normal" font-weight="bold" text-decoration="none" x="256.187744140625" y="474.5">instructions</text></g></g><g transform="translate(-10,-10) scale(1,1)"><rect fill="#C0C0C0" stroke="none" x="356.12451171875" y="377" width="34.80507812500002" height="15" opacity="0.2"/></g><g transform="translate(-10,-10) scale(1,1)"><rect fill="#C0C0C0" stroke="none" x="356.12451171875" y="391" width="87.0126953125" height="25" opacity="0.2"/></g><g transform="translate(-10,-10) scale(1,1)"><rect fill="#ffffff" stroke="none" x="349.12451171875" y="385" width="87.0126953125" height="24"/></g><g transform="translate(-10,-10) scale(1,1)"><path fill="none" stroke="#000000" d="M 349.12451171875 385 L 436.13720703125 385 L 436.13720703125 409 L 349.12451171875 409 L 349.12451171875 385 Z Z" stroke-miterlimit="10"/></g><g transform="translate(-10,-10) scale(1,1)"><rect fill="#ffffff" stroke="none" x="349.12451171875" y="370" width="34.80507812500002" height="15"/></g><g transform="translate(-10,-10) scale(1,1)"><path fill="none" stroke="#000000" d="M 349.12451171875 370 L 383.92958984375 370 L 383.92958984375 385 L 349.12451171875 385 L 349.12451171875 370 Z Z" stroke-miterlimit="10"/></g><g transform="translate(-10,-10) scale(1,1)"><rect fill="#ffffff" stroke="none" x="349.12451171875" y="384" width="87.0126953125" height="25"/></g><g transform="translate(-10,-10) scale(1,1)"><path fill="none" stroke="#000000" d="M 349.12451171875 384 L 436.13720703125 384 L 436.13720703125 409 L 349.12451171875 409 L 349.12451171875 384 Z Z" stroke-miterlimit="10"/></g><g transform="translate(-10,-10) scale(1,1)"><g><path fill="none" stroke="none"/><text fill="#000000" stroke="none" font-family="Arial" font-size="13px" font-style="normal" font-weight="bold" text-decoration="none" x="356.86181640625" y="404.5">environment</text></g></g><g transform="translate(-10,-10) scale(1,1)"><rect fill="#C0C0C0" stroke="none" x="474.13720703125" y="377" width="47.815234375000045" height="15" opacity="0.2"/></g><g transform="translate(-10,-10) scale(1,1)"><rect fill="#C0C0C0" stroke="none" x="474.13720703125" y="391" width="119.5380859375" height="25" opacity="0.2"/></g><g transform="translate(-10,-10) scale(1,1)"><rect fill="#ffffff" stroke="none" x="467.13720703125" y="385" width="119.5380859375" height="24"/></g><g transform="translate(-10,-10) scale(1,1)"><path fill="none" stroke="#000000" d="M 467.13720703125 385 L 586.67529296875 385 L 586.67529296875 409 L 467.13720703125 409 L 467.13720703125 385 Z Z" stroke-miterlimit="10"/></g><g transform="translate(-10,-10) scale(1,1)"><rect fill="#ffffff" stroke="none" x="467.13720703125" y="370" width="47.815234375000045" height="15"/></g><g transform="translate(-10,-10) scale(1,1)"><path fill="none" stroke="#000000" d="M 467.13720703125 370 L 514.95244140625 370 L 514.95244140625 385 L 467.13720703125 385 L 467.13720703125 370 Z Z" stroke-miterlimit="10"/></g><g transform="translate(-10,-10) scale(1,1)"><rect fill="#ffffff" stroke="none" x="467.13720703125" y="384" width="119.5380859375" height="25"/></g><g transform="translate(-10,-10) scale(1,1)"><path fill="none" stroke="#000000" d="M 467.13720703125 384 L 586.67529296875 384 L 586.67529296875 409 L 467.13720703125 409 L 467.13720703125 384 Z Z" stroke-miterlimit="10"/></g><g transform="translate(-10,-10) scale(1,1)"><g><path fill="none" stroke="none"/><text fill="#000000" stroke="none" font-family="Arial" font-size="13px" font-style="normal" font-weight="bold" text-decoration="none" x="475.24267578125" y="404.5">errormanagement</text></g></g><g transform="translate(-10,-10) scale(1,1)"><rect fill="#C0C0C0" stroke="none" x="624.67529296875" y="377" width="23.818554687499955" height="15" opacity="0.2"/></g><g transform="translate(-10,-10) scale(1,1)"><rect fill="#C0C0C0" stroke="none" x="624.67529296875" y="391" width="59.54638671875" height="25" opacity="0.2"/></g><g transform="translate(-10,-10) scale(1,1)"><rect fill="#ffffff" stroke="none" x="617.67529296875" y="385" width="59.54638671875" height="24"/></g><g transform="translate(-10,-10) scale(1,1)"><path fill="none" stroke="#000000" d="M 617.67529296875 385 L 677.2216796875 385 L 677.2216796875 409 L 617.67529296875 409 L 617.67529296875 385 Z Z" stroke-miterlimit="10"/></g><g transform="translate(-10,-10) scale(1,1)"><rect fill="#ffffff" stroke="none" x="617.67529296875" y="370" width="23.818554687499955" height="15"/></g><g transform="translate(-10,-10) scale(1,1)"><path fill="none" stroke="#000000" d="M 617.67529296875 370 L 641.49384765625 370 L 641.49384765625 385 L 617.67529296875 385 L 617.67529296875 370 Z Z" stroke-miterlimit="10"/></g><g transform="translate(-10,-10) scale(1,1)"><rect fill="#ffffff" stroke="none" x="617.67529296875" y="384" width="59.54638671875" height="25"/></g><g transform="translate(-10,-10) scale(1,1)"><path fill="none" stroke="#000000" d="M 617.67529296875 384 L 677.2216796875 384 L 677.2216796875 409 L 617.67529296875 409 L 617.67529296875 384 Z Z" stroke-miterlimit="10"/></g><g transform="translate(-10,-10) scale(1,1)"><g><path fill="none" stroke="none"/><text fill="#000000" stroke="none" font-family="Arial" font-size="13px" font-style="normal" font-weight="bold" text-decoration="none" x="624.679443359375" y="404.5">hooking</text></g></g><g transform="translate(-10,-10) scale(1,1)"><rect fill="#C0C0C0" stroke="none" x="715.2216796875" y="377" width="27.289453125000023" height="15" opacity="0.2"/></g><g transform="translate(-10,-10) scale(1,1)"><rect fill="#C0C0C0" stroke="none" x="715.2216796875" y="391" width="68.2236328125" height="25" opacity="0.2"/></g><g transform="translate(-10,-10) scale(1,1)"><rect fill="#ffffff" stroke="none" x="708.2216796875" y="385" width="68.2236328125" height="24"/></g><g transform="translate(-10,-10) scale(1,1)"><path fill="none" stroke="#000000" d="M 708.2216796875 385 L 776.4453125 385 L 776.4453125 409 L 708.2216796875 409 L 708.2216796875 385 Z Z" stroke-miterlimit="10"/></g><g transform="translate(-10,-10) scale(1,1)"><rect fill="#ffffff" stroke="none" x="708.2216796875" y="370" width="27.289453125000023" height="15"/></g><g transform="translate(-10,-10) scale(1,1)"><path fill="none" stroke="#000000" d="M 708.2216796875 370 L 735.5111328125 370 L 735.5111328125 385 L 708.2216796875 385 L 708.2216796875 370 Z Z" stroke-miterlimit="10"/></g><g transform="translate(-10,-10) scale(1,1)"><rect fill="#ffffff" stroke="none" x="708.2216796875" y="384" width="68.2236328125" height="25"/></g><g transform="translate(-10,-10) scale(1,1)"><path fill="none" stroke="#000000" d="M 708.2216796875 384 L 776.4453125 384 L 776.4453125 409 L 708.2216796875 409 L 708.2216796875 384 Z Z" stroke-miterlimit="10"/></g><g transform="translate(-10,-10) scale(1,1)"><g><path fill="none" stroke="none"/><text fill="#000000" stroke="none" font-family="Arial" font-size="13px" font-style="normal" font-weight="bold" text-decoration="none" x="715.22900390625" y="404.5">threading</text></g></g><g transform="translate(-10,-10) scale(1,1)"><rect fill="#C0C0C0" stroke="none" x="832.501220703125" y="307" width="22.373828125000045" height="15" opacity="0.2"/></g><g transform="translate(-10,-10) scale(1,1)"><rect fill="#C0C0C0" stroke="none" x="832.501220703125" y="321" width="55.9345703125" height="25" opacity="0.2"/></g><g transform="translate(-10,-10) scale(1,1)"><rect fill="#ffffff" stroke="none" x="825.501220703125" y="315" width="55.9345703125" height="24"/></g><g transform="translate(-10,-10) scale(1,1)"><path fill="none" stroke="#000000" d="M 825.501220703125 315 L 881.435791015625 315 L 881.435791015625 339 L 825.501220703125 339 L 825.501220703125 315 Z Z" stroke-miterlimit="10"/></g><g transform="translate(-10,-10) scale(1,1)"><rect fill="#ffffff" stroke="none" x="825.501220703125" y="300" width="22.373828125000045" height="15"/></g><g transform="translate(-10,-10) scale(1,1)"><path fill="none" stroke="#000000" d="M 825.501220703125 300 L 847.875048828125 300 L 847.875048828125 315 L 825.501220703125 315 L 825.501220703125 300 Z Z" stroke-miterlimit="10"/></g><g transform="translate(-10,-10) scale(1,1)"><rect fill="#ffffff" stroke="none" x="825.501220703125" y="314" width="55.9345703125" height="25"/></g><g transform="translate(-10,-10) scale(1,1)"><path fill="none" stroke="#000000" d="M 825.501220703125 314 L 881.435791015625 314 L 881.435791015625 339 L 825.501220703125 339 L 825.501220703125 314 Z Z" stroke-miterlimit="10"/></g><g transform="translate(-10,-10) scale(1,1)"><g><path fill="none" stroke="none"/><text fill="#000000" stroke="none" font-family="Arial" font-size="13px" font-style="normal" font-weight="bold" text-decoration="none" x="832.508544921875" y="334.5">toolbox</text></g></g><g transform="translate(-10,-10) scale(1,1)"><rect fill="#C0C0C0" stroke="none" x="814.4453125" y="377" width="36.818554687499955" height="15" opacity="0.2"/></g><g transform="translate(-10,-10) scale(1,1)"><rect fill="#C0C0C0" stroke="none" x="814.4453125" y="391" width="92.04638671875" height="25" opacity="0.2"/></g><g transform="translate(-10,-10) scale(1,1)"><rect fill="#ffffff" stroke="none" x="807.4453125" y="385" width="92.04638671875" height="24"/></g><g transform="translate(-10,-10) scale(1,1)"><path fill="none" stroke="#000000" d="M 807.4453125 385 L 899.49169921875 385 L 899.49169921875 409 L 807.4453125 409 L 807.4453125 385 Z Z" stroke-miterlimit="10"/></g><g transform="translate(-10,-10) scale(1,1)"><rect fill="#ffffff" stroke="none" x="807.4453125" y="370" width="36.818554687499955" height="15"/></g><g transform="translate(-10,-10) scale(1,1)"><path fill="none" stroke="#000000" d="M 807.4453125 370 L 844.2638671875 370 L 844.2638671875 385 L 807.4453125 385 L 807.4453125 370 Z Z" stroke-miterlimit="10"/></g><g transform="translate(-10,-10) scale(1,1)"><rect fill="#ffffff" stroke="none" x="807.4453125" y="384" width="92.04638671875" height="25"/></g><g transform="translate(-10,-10) scale(1,1)"><path fill="none" stroke="#000000" d="M 807.4453125 384 L 899.49169921875 384 L 899.49169921875 409 L 807.4453125 409 L 807.4453125 384 Z Z" stroke-miterlimit="10"/></g><g transform="translate(-10,-10) scale(1,1)"><g><path fill="none" stroke="none"/><text fill="#000000" stroke="none" font-family="Arial" font-size="13px" font-style="normal" font-weight="bold" text-decoration="none" x="816.2490234375" y="404.5">configuration</text></g></g><g transform="translate(-10,-10) scale(1,1)"><rect fill="#C0C0C0" stroke="none" x="981.3446044921875" y="237" width="24.684375000000045" height="15" opacity="0.2"/></g><g transform="translate(-10,-10) scale(1,1)"><rect fill="#C0C0C0" stroke="none" x="981.3446044921875" y="251" width="61.7109375" height="25" opacity="0.2"/></g><g transform="translate(-10,-10) scale(1,1)"><rect fill="#ffffff" stroke="none" x="974.3446044921875" y="245" width="61.7109375" height="24"/></g><g transform="translate(-10,-10) scale(1,1)"><path fill="none" stroke="#000000" d="M 974.3446044921875 245 L 1036.0555419921875 245 L 1036.0555419921875 269 L 974.3446044921875 269 L 974.3446044921875 245 Z Z" stroke-miterlimit="10"/></g><g transform="translate(-10,-10) scale(1,1)"><rect fill="#ffffff" stroke="none" x="974.3446044921875" y="230" width="24.684375000000045" height="15"/></g><g transform="translate(-10,-10) scale(1,1)"><path fill="none" stroke="#000000" d="M 974.3446044921875 230 L 999.0289794921875 230 L 999.0289794921875 245 L 974.3446044921875 245 L 974.3446044921875 230 Z Z" stroke-miterlimit="10"/></g><g transform="translate(-10,-10) scale(1,1)"><rect fill="#ffffff" stroke="none" x="974.3446044921875" y="244" width="61.7109375" height="25"/></g><g transform="translate(-10,-10) scale(1,1)"><path fill="none" stroke="#000000" d="M 974.3446044921875 244 L 1036.0555419921875 244 L 1036.0555419921875 269 L 974.3446044921875 269 L 974.3446044921875 244 Z Z" stroke-miterlimit="10"/></g><g transform="translate(-10,-10) scale(1,1)"><g><path fill="none" stroke="none"/><text fill="#000000" stroke="none" font-family="Arial" font-size="13px" font-style="normal" font-weight="bold" text-decoration="none" x="981.3487548828125" y="264.5">frontend</text></g></g><g transform="translate(-10,-10) scale(1,1)"><rect fill="#C0C0C0" stroke="none" x="983.8709716796875" y="307" width="22.663281249999955" height="15" opacity="0.2"/></g><g transform="translate(-10,-10) scale(1,1)"><rect fill="#C0C0C0" stroke="none" x="983.8709716796875" y="321" width="56.658203125" height="25" opacity="0.2"/></g><g transform="translate(-10,-10) scale(1,1)"><rect fill="#ffffff" stroke="none" x="976.8709716796875" y="315" width="56.658203125" height="24"/></g><g transform="translate(-10,-10) scale(1,1)"><path fill="none" stroke="#000000" d="M 976.8709716796875 315 L 1033.5291748046875 315 L 1033.5291748046875 339 L 976.8709716796875 339 L 976.8709716796875 315 Z Z" stroke-miterlimit="10"/></g><g transform="translate(-10,-10) scale(1,1)"><rect fill="#ffffff" stroke="none" x="976.8709716796875" y="300" width="22.663281249999955" height="15"/></g><g transform="translate(-10,-10) scale(1,1)"><path fill="none" stroke="#000000" d="M 976.8709716796875 300 L 999.5342529296875 300 L 999.5342529296875 315 L 976.8709716796875 315 L 976.8709716796875 300 Z Z" stroke-miterlimit="10"/></g><g transform="translate(-10,-10) scale(1,1)"><rect fill="#ffffff" stroke="none" x="976.8709716796875" y="314" width="56.658203125" height="25"/></g><g transform="translate(-10,-10) scale(1,1)"><path fill="none" stroke="#000000" d="M 976.8709716796875 314 L 1033.5291748046875 314 L 1033.5291748046875 339 L 976.8709716796875 339 L 976.8709716796875 314 Z Z" stroke-miterlimit="10"/></g><g transform="translate(-10,-10) scale(1,1)"><g><path fill="none" stroke="none"/><text fill="#000000" stroke="none" font-family="Arial" font-size="13px" font-style="normal" font-weight="bold" text-decoration="none" x="983.5228271484375" y="334.5">window</text></g></g><g transform="translate(-10,-10) scale(1,1)"><rect fill="#C0C0C0" stroke="none" x="937.49169921875" y="377" width="22.383984374999955" height="15" opacity="0.2"/></g><g transform="translate(-10,-10) scale(1,1)"><rect fill="#C0C0C0" stroke="none" x="937.49169921875" y="391" width="55.9599609375" height="25" opacity="0.2"/></g><g transform="translate(-10,-10) scale(1,1)"><rect fill="#ffffff" stroke="none" x="930.49169921875" y="385" width="55.9599609375" height="24"/></g><g transform="translate(-10,-10) scale(1,1)"><path fill="none" stroke="#000000" d="M 930.49169921875 385 L 986.45166015625 385 L 986.45166015625 409 L 930.49169921875 409 L 930.49169921875 385 Z Z" stroke-miterlimit="10"/></g><g transform="translate(-10,-10) scale(1,1)"><rect fill="#ffffff" stroke="none" x="930.49169921875" y="370" width="22.383984374999955" height="15"/></g><g transform="translate(-10,-10) scale(1,1)"><path fill="none" stroke="#000000" d="M 930.49169921875 370 L 952.87568359375 370 L 952.87568359375 385 L 930.49169921875 385 L 930.49169921875 370 Z Z" stroke-miterlimit="10"/></g><g transform="translate(-10,-10) scale(1,1)"><rect fill="#ffffff" stroke="none" x="930.49169921875" y="384" width="55.9599609375" height="25"/></g><g transform="translate(-10,-10) scale(1,1)"><path fill="none" stroke="#000000" d="M 930.49169921875 384 L 986.45166015625 384 L 986.45166015625 409 L 930.49169921875 409 L 930.49169921875 384 Z Z" stroke-miterlimit="10"/></g><g transform="translate(-10,-10) scale(1,1)"><g><path fill="none" stroke="none"/><text fill="#000000" stroke="none" font-family="Arial" font-size="13px" font-style="normal" font-weight="bold" text-decoration="none" x="936.791259765625" y="404.5">prefabs</text></g></g><g transform="translate(-10,-10) scale(1,1)"><rect fill="#C0C0C0" stroke="none" x="1024.45166015625" y="377" width="27.58144531249991" height="15" opacity="0.2"/></g><g transform="translate(-10,-10) scale(1,1)"><rect fill="#C0C0C0" stroke="none" x="1024.45166015625" y="391" width="68.95361328125" height="25" opacity="0.2"/></g><g transform="translate(-10,-10) scale(1,1)"><rect fill="#ffffff" stroke="none" x="1017.45166015625" y="385" width="68.95361328125" height="24"/></g><g transform="translate(-10,-10) scale(1,1)"><path fill="none" stroke="#000000" d="M 1017.45166015625 385 L 1086.4052734375 385 L 1086.4052734375 409 L 1017.45166015625 409 L 1017.45166015625 385 Z Z" stroke-miterlimit="10"/></g><g transform="translate(-10,-10) scale(1,1)"><rect fill="#ffffff" stroke="none" x="1017.45166015625" y="370" width="27.58144531249991" height="15"/></g><g transform="translate(-10,-10) scale(1,1)"><path fill="none" stroke="#000000" d="M 1017.45166015625 370 L 1045.03310546875 370 L 1045.03310546875 385 L 1017.45166015625 385 L 1017.45166015625 370 Z Z" stroke-miterlimit="10"/></g><g transform="translate(-10,-10) scale(1,1)"><rect fill="#ffffff" stroke="none" x="1017.45166015625" y="384" width="68.95361328125" height="25"/></g><g transform="translate(-10,-10) scale(1,1)"><path fill="none" stroke="#000000" d="M 1017.45166015625 384 L 1086.4052734375 384 L 1086.4052734375 409 L 1017.45166015625 409 L 1017.45166015625 384 Z Z" stroke-miterlimit="10"/></g><g transform="translate(-10,-10) scale(1,1)"><g><path fill="none" stroke="none"/><text fill="#000000" stroke="none" font-family="Arial" font-size="13px" font-style="normal" font-weight="bold" text-decoration="none" x="1024.46533203125" y="404.5">rendering</text></g></g><g transform="translate(-10,-10) scale(1,1)"><rect fill="#C0C0C0" stroke="none" x="610.7142333984375" y="27" width="54.74941406250002" height="15" opacity="0.2"/></g><g transform="translate(-10,-10) scale(1,1)"><rect fill="#C0C0C0" stroke="none" x="610.7142333984375" y="41" width="136.87353515625" height="25" opacity="0.2"/></g><g transform="translate(-10,-10) scale(1,1)"><rect fill="#ffffff" stroke="none" x="603.7142333984375" y="35" width="136.87353515625" height="24"/></g><g transform="translate(-10,-10) scale(1,1)"><path fill="none" stroke="#000000" d="M 603.7142333984375 35 L 740.5877685546875 35 L 740.5877685546875 59 L 603.7142333984375 59 L 603.7142333984375 35 Z Z" stroke-miterlimit="10"/></g><g transform="translate(-10,-10) scale(1,1)"><rect fill="#ffffff" stroke="none" x="603.7142333984375" y="20" width="54.74941406250002" height="15"/></g><g transform="translate(-10,-10) scale(1,1)"><path fill="none" stroke="#000000" d="M 603.7142333984375 20 L 658.4636474609375 20 L 658.4636474609375 35 L 603.7142333984375 35 L 603.7142333984375 20 Z Z" stroke-miterlimit="10"/></g><g transform="translate(-10,-10) scale(1,1)"><rect fill="#ffffff" stroke="none" x="603.7142333984375" y="34" width="136.87353515625" height="25"/></g><g transform="translate(-10,-10) scale(1,1)"><path fill="none" stroke="#000000" d="M 603.7142333984375 34 L 740.5877685546875 34 L 740.5877685546875 59 L 603.7142333984375 59 L 603.7142333984375 34 Z Z" stroke-miterlimit="10"/></g><g transform="translate(-10,-10) scale(1,1)"><g><path fill="none" stroke="none"/><text fill="#000000" stroke="none" font-family="Arial" font-size="13px" font-style="normal" font-weight="bold" text-decoration="none" x="613.2733154296875" y="54.5">ImmutabilityChecker</text></g></g><g transform="translate(-10,-10) scale(1,1)"><rect fill="#C0C0C0" stroke="none" x="778.5877685546875" y="27" width="39.715625000000045" height="15" opacity="0.2"/></g><g transform="translate(-10,-10) scale(1,1)"><rect fill="#C0C0C0" stroke="none" x="778.5877685546875" y="41" width="99.2890625" height="25" opacity="0.2"/></g><g transform="translate(-10,-10) scale(1,1)"><rect fill="#ffffff" stroke="none" x="771.5877685546875" y="35" width="99.2890625" height="24"/></g><g transform="translate(-10,-10) scale(1,1)"><path fill="none" stroke="#000000" d="M 771.5877685546875 35 L 870.8768310546875 35 L 870.8768310546875 59 L 771.5877685546875 59 L 771.5877685546875 35 Z Z" stroke-miterlimit="10"/></g><g transform="translate(-10,-10) scale(1,1)"><rect fill="#ffffff" stroke="none" x="771.5877685546875" y="20" width="39.715625000000045" height="15"/></g><g transform="translate(-10,-10) scale(1,1)"><path fill="none" stroke="#000000" d="M 771.5877685546875 20 L 811.3033935546875 20 L 811.3033935546875 35 L 771.5877685546875 35 L 771.5877685546875 20 Z Z" stroke-miterlimit="10"/></g><g transform="translate(-10,-10) scale(1,1)"><rect fill="#ffffff" stroke="none" x="771.5877685546875" y="34" width="99.2890625" height="25"/></g><g transform="translate(-10,-10) scale(1,1)"><path fill="none" stroke="#000000" d="M 771.5877685546875 34 L 870.8768310546875 34 L 870.8768310546875 59 L 771.5877685546875 59 L 771.5877685546875 34 Z Z" stroke-miterlimit="10"/></g><g transform="translate(-10,-10) scale(1,1)"><g><path fill="none" stroke="none"/><text fill="#000000" stroke="none" font-family="Arial" font-size="13px" font-style="normal" font-weight="bold" text-decoration="none" x="778.5982666015625" y="54.5">MethodCacher</text></g></g><g transform="translate(-10,-10) scale(1,1)"><rect fill="#C0C0C0" stroke="none" x="908.8768310546875" y="27" width="48.37636718750002" height="15" opacity="0.2"/></g><g transform="translate(-10,-10) scale(1,1)"><rect fill="#C0C0C0" stroke="none" x="908.8768310546875" y="41" width="120.94091796875" height="25" opacity="0.2"/></g><g transform="translate(-10,-10) scale(1,1)"><rect fill="#ffffff" stroke="none" x="901.8768310546875" y="35" width="120.94091796875" height="24"/></g><g transform="translate(-10,-10) scale(1,1)"><path fill="none" stroke="#000000" d="M 901.8768310546875 35 L 1022.8177490234375 35 L 1022.8177490234375 59 L 901.8768310546875 59 L 901.8768310546875 35 Z Z" stroke-miterlimit="10"/></g><g transform="translate(-10,-10) scale(1,1)"><rect fill="#ffffff" stroke="none" x="901.8768310546875" y="20" width="48.37636718750002" height="15"/></g><g transform="translate(-10,-10) scale(1,1)"><path fill="none" stroke="#000000" d="M 901.8768310546875 20 L 950.2531982421875 20 L 950.2531982421875 35 L 901.8768310546875 35 L 901.8768310546875 20 Z Z" stroke-miterlimit="10"/></g><g transform="translate(-10,-10) scale(1,1)"><rect fill="#ffffff" stroke="none" x="901.8768310546875" y="34" width="120.94091796875" height="25"/></g><g transform="translate(-10,-10) scale(1,1)"><path fill="none" stroke="#000000" d="M 901.8768310546875 34 L 1022.8177490234375 34 L 1022.8177490234375 59 L 901.8768310546875 59 L 901.8768310546875 34 Z Z" stroke-miterlimit="10"/></g><g transform="translate(-10,-10) scale(1,1)"><g><path fill="none" stroke="none"/><text fill="#000000" stroke="none" font-family="Arial" font-size="13px" font-style="normal" font-weight="bold" text-decoration="none" x="910.6805419921875" y="54.5">MethodInterrupter</text></g></g><g transform="translate(-10,-10) scale(1,1)"><path fill="none" stroke="#000000" d="M 252 89 Q 252 75 523 42" stroke-miterlimit="10"/></g><g transform="translate(-10,-10) scale(1,1)"><path fill="#FFFFFF" stroke="none" d="M 509.0513286683574 42.84614816953581 C 509.0513286683574 38.980154569535806 512.1853350683574 35.84614816953581 516.0513286683574 35.84614816953581 C 519.9173222683575 35.84614816953581 523.0513286683574 38.980154569535806 523.0513286683574 42.84614816953581 C 523.0513286683574 46.71214176953581 519.9173222683575 49.84614816953581 516.0513286683574 49.84614816953581 C 512.1853350683574 49.84614816953581 509.0513286683574 46.71214176953581 509.0513286683574 42.84614816953581 Z"/></g><g transform="translate(-10,-10) scale(1,1)"><path fill="none" stroke="#000000" d="M 509.0513286683574 42.84614816953581 C 509.0513286683574 38.980154569535806 512.1853350683574 35.84614816953581 516.0513286683574 35.84614816953581 C 519.9173222683575 35.84614816953581 523.0513286683574 38.980154569535806 523.0513286683574 42.84614816953581 C 523.0513286683574 46.71214176953581 519.9173222683575 49.84614816953581 516.0513286683574 49.84614816953581 C 512.1853350683574 49.84614816953581 509.0513286683574 46.71214176953581 509.0513286683574 42.84614816953581 Z" stroke-miterlimit="10"/></g><g transform="translate(-10,-10) scale(1,1)"><path fill="none" stroke="#000000" d="M 509.10265733671486 43.69229633907162 L 523 42" stroke-miterlimit="10"/></g><g transform="translate(-10,-10) scale(1,1)"><path fill="none" stroke="#000000" d="M 516.8974768378932 49.79481950117837 L 515.2051804988216 35.89747683789325" stroke-miterlimit="10"/></g><g transform="translate(-10,-10) scale(1,1)"><path fill="none" stroke="#000000" d="M 252 159 Q 252 145 252 130" stroke-miterlimit="10"/></g><g transform="translate(-10,-10) scale(1,1)"><path fill="#FFFFFF" stroke="none" d="M 245 137 C 245 133.1340064 248.1340064 130 252 130 C 255.8659936 130 259 133.1340064 259 137 C 259 140.8659936 255.8659936 144 252 144 C 248.1340064 144 245 140.8659936 245 137 Z"/></g><g transform="translate(-10,-10) scale(1,1)"><path fill="none" stroke="#000000" d="M 245 137 C 245 133.1340064 248.1340064 130 252 130 C 255.8659936 130 259 133.1340064 259 137 C 259 140.8659936 255.8659936 144 252 144 C 248.1340064 144 245 140.8659936 245 137 Z" stroke-miterlimit="10"/></g><g transform="translate(-10,-10) scale(1,1)"><path fill="none" stroke="#000000" d="M 252 144 L 252 130" stroke-miterlimit="10"/></g><g transform="translate(-10,-10) scale(1,1)"><path fill="none" stroke="#000000" d="M 259 137 L 245 137" stroke-miterlimit="10"/></g><g transform="translate(-10,-10) scale(1,1)"><path fill="none" stroke="#000000" d="M 252 229 Q 252 215 252 200" stroke-miterlimit="10"/></g><g transform="translate(-10,-10) scale(1,1)"><path fill="#FFFFFF" stroke="none" d="M 245 207 C 245 203.1340064 248.1340064 200 252 200 C 255.8659936 200 259 203.1340064 259 207 C 259 210.8659936 255.8659936 214 252 214 C 248.1340064 214 245 210.8659936 245 207 Z"/></g><g transform="translate(-10,-10) scale(1,1)"><path fill="none" stroke="#000000" d="M 245 207 C 245 203.1340064 248.1340064 200 252 200 C 255.8659936 200 259 203.1340064 259 207 C 259 210.8659936 255.8659936 214 252 214 C 248.1340064 214 245 210.8659936 245 207 Z" stroke-miterlimit="10"/></g><g transform="translate(-10,-10) scale(1,1)"><path fill="none" stroke="#000000" d="M 252 214 L 252 200" stroke-miterlimit="10"/></g><g transform="translate(-10,-10) scale(1,1)"><path fill="none" stroke="#000000" d="M 259 207 L 245 207" stroke-miterlimit="10"/></g><g transform="translate(-10,-10) scale(1,1)"><path fill="none" stroke="#000000" d="M 446 229 Q 446 215 281 185" stroke-miterlimit="10"/></g><g transform="translate(-10,-10) scale(1,1)"><path fill="#FFFFFF" stroke="none" d="M 280.88708937069936 186.2521980673999 C 280.88708937069936 182.3862044673999 284.02109577069933 179.2521980673999 287.88708937069936 179.2521980673999 C 291.7530829706994 179.2521980673999 294.88708937069936 182.3862044673999 294.88708937069936 186.2521980673999 C 294.88708937069936 190.11819166739988 291.7530829706994 193.2521980673999 287.88708937069936 193.2521980673999 C 284.02109577069933 193.2521980673999 280.88708937069936 190.11819166739988 280.88708937069936 186.2521980673999 Z"/></g><g transform="translate(-10,-10) scale(1,1)"><path fill="none" stroke="#000000" d="M 280.88708937069936 186.2521980673999 C 280.88708937069936 182.3862044673999 284.02109577069933 179.2521980673999 287.88708937069936 179.2521980673999 C 291.7530829706994 179.2521980673999 294.88708937069936 182.3862044673999 294.88708937069936 186.2521980673999 C 294.88708937069936 190.11819166739988 291.7530829706994 193.2521980673999 287.88708937069936 193.2521980673999 C 284.02109577069933 193.2521980673999 280.88708937069936 190.11819166739988 280.88708937069936 186.2521980673999 Z" stroke-miterlimit="10"/></g><g transform="translate(-10,-10) scale(1,1)"><path fill="none" stroke="#000000" d="M 294.7741787413987 187.50439613479978 L 281 185" stroke-miterlimit="10"/></g><g transform="translate(-10,-10) scale(1,1)"><path fill="none" stroke="#000000" d="M 289.13928743809925 179.36510869670053 L 286.63489130329947 193.13928743809925" stroke-miterlimit="10"/></g><g transform="translate(-10,-10) scale(1,1)"><path fill="none" stroke="#000000" d="M 790 89 Q 790 75 574 43" stroke-miterlimit="10"/></g><g transform="translate(-10,-10) scale(1,1)"><path fill="#FFFFFF" stroke="none" d="M 573.9244242364771 44.02584062762624 C 573.9244242364771 40.159847027626235 577.058430636477 37.02584062762624 580.9244242364771 37.02584062762624 C 584.7904178364771 37.02584062762624 587.9244242364771 40.159847027626235 587.9244242364771 44.02584062762624 C 587.9244242364771 47.89183422762624 584.7904178364771 51.02584062762624 580.9244242364771 51.02584062762624 C 577.058430636477 51.02584062762624 573.9244242364771 47.89183422762624 573.9244242364771 44.02584062762624 Z"/></g><g transform="translate(-10,-10) scale(1,1)"><path fill="none" stroke="#000000" d="M 573.9244242364771 44.02584062762624 C 573.9244242364771 40.159847027626235 577.058430636477 37.02584062762624 580.9244242364771 37.02584062762624 C 584.7904178364771 37.02584062762624 587.9244242364771 40.159847027626235 587.9244242364771 44.02584062762624 C 587.9244242364771 47.89183422762624 584.7904178364771 51.02584062762624 580.9244242364771 51.02584062762624 C 577.058430636477 51.02584062762624 573.9244242364771 47.89183422762624 573.9244242364771 44.02584062762624 Z" stroke-miterlimit="10"/></g><g transform="translate(-10,-10) scale(1,1)"><path fill="none" stroke="#000000" d="M 587.8488484729542 45.051681255252475 L 574 43" stroke-miterlimit="10"/></g><g transform="translate(-10,-10) scale(1,1)"><path fill="none" stroke="#000000" d="M 581.9502648641034 37.101416391149144 L 579.8985836088508 50.95026486410333" stroke-miterlimit="10"/></g><g transform="translate(-10,-10) scale(1,1)"><path fill="none" stroke="#000000" d="M 790 159 Q 790 145 790 130" stroke-miterlimit="10"/></g><g transform="translate(-10,-10) scale(1,1)"><path fill="#FFFFFF" stroke="none" d="M 783 137 C 783 133.1340064 786.1340064 130 790 130 C 793.8659936 130 797 133.1340064 797 137 C 797 140.8659936 793.8659936 144 790 144 C 786.1340064 144 783 140.8659936 783 137 Z"/></g><g transform="translate(-10,-10) scale(1,1)"><path fill="none" stroke="#000000" d="M 783 137 C 783 133.1340064 786.1340064 130 790 130 C 793.8659936 130 797 133.1340064 797 137 C 797 140.8659936 793.8659936 144 790 144 C 786.1340064 144 783 140.8659936 783 137 Z" stroke-miterlimit="10"/></g><g transform="translate(-10,-10) scale(1,1)"><path fill="none" stroke="#000000" d="M 790 144 L 790 130" stroke-miterlimit="10"/></g><g transform="translate(-10,-10) scale(1,1)"><path fill="none" stroke="#000000" d="M 797 137 L 783 137" stroke-miterlimit="10"/></g><g transform="translate(-10,-10) scale(1,1)"><path fill="none" stroke="#000000" d="M 533 229 Q 533 215 764 183" stroke-miterlimit="10"/></g><g transform="translate(-10,-10) scale(1,1)"><path fill="#FFFFFF" stroke="none" d="M 750.0662136849036 183.9605245111822 C 750.0662136849036 180.0945309111822 753.2002200849035 176.9605245111822 757.0662136849036 176.9605245111822 C 760.9322072849036 176.9605245111822 764.0662136849036 180.0945309111822 764.0662136849036 183.9605245111822 C 764.0662136849036 187.8265181111822 760.9322072849036 190.9605245111822 757.0662136849036 190.9605245111822 C 753.2002200849035 190.9605245111822 750.0662136849036 187.8265181111822 750.0662136849036 183.9605245111822 Z"/></g><g transform="translate(-10,-10) scale(1,1)"><path fill="none" stroke="#000000" d="M 750.0662136849036 183.9605245111822 C 750.0662136849036 180.0945309111822 753.2002200849035 176.9605245111822 757.0662136849036 176.9605245111822 C 760.9322072849036 176.9605245111822 764.0662136849036 180.0945309111822 764.0662136849036 183.9605245111822 C 764.0662136849036 187.8265181111822 760.9322072849036 190.9605245111822 757.0662136849036 190.9605245111822 C 753.2002200849035 190.9605245111822 750.0662136849036 187.8265181111822 750.0662136849036 183.9605245111822 Z" stroke-miterlimit="10"/></g><g transform="translate(-10,-10) scale(1,1)"><path fill="none" stroke="#000000" d="M 750.1324273698071 184.92104902236437 L 764 183" stroke-miterlimit="10"/></g><g transform="translate(-10,-10) scale(1,1)"><path fill="none" stroke="#000000" d="M 758.0267381960857 190.8943108262786 L 756.1056891737214 177.0267381960858" stroke-miterlimit="10"/></g><g transform="translate(-10,-10) scale(1,1)"><path fill="none" stroke="#000000" d="M 165 299 Q 165 285 500 252" stroke-miterlimit="10"/></g><g transform="translate(-10,-10) scale(1,1)"><path fill="#FFFFFF" stroke="none" d="M 486.03371782692557 252.68623078122823 C 486.03371782692557 248.82023718122824 489.16772422692554 245.68623078122823 493.03371782692557 245.68623078122823 C 496.8997114269256 245.68623078122823 500.03371782692557 248.82023718122824 500.03371782692557 252.68623078122823 C 500.03371782692557 256.55222438122826 496.8997114269256 259.68623078122823 493.03371782692557 259.68623078122823 C 489.16772422692554 259.68623078122823 486.03371782692557 256.55222438122826 486.03371782692557 252.68623078122823 Z"/></g><g transform="translate(-10,-10) scale(1,1)"><path fill="none" stroke="#000000" d="M 486.03371782692557 252.68623078122823 C 486.03371782692557 248.82023718122824 489.16772422692554 245.68623078122823 493.03371782692557 245.68623078122823 C 496.8997114269256 245.68623078122823 500.03371782692557 248.82023718122824 500.03371782692557 252.68623078122823 C 500.03371782692557 256.55222438122826 496.8997114269256 259.68623078122823 493.03371782692557 259.68623078122823 C 489.16772422692554 259.68623078122823 486.03371782692557 256.55222438122826 486.03371782692557 252.68623078122823 Z" stroke-miterlimit="10"/></g><g transform="translate(-10,-10) scale(1,1)"><path fill="none" stroke="#000000" d="M 486.0674356538511 253.37246156245646 L 500 252" stroke-miterlimit="10"/></g><g transform="translate(-10,-10) scale(1,1)"><path fill="none" stroke="#000000" d="M 493.7199486081538 259.65251295430267 L 492.34748704569733 245.71994860815377" stroke-miterlimit="10"/></g><g transform="translate(-10,-10) scale(1,1)"><path fill="none" stroke="#000000" d="M 45 369 Q 45 355 139 327" stroke-miterlimit="10"/></g><g transform="translate(-10,-10) scale(1,1)"><path fill="#FFFFFF" stroke="none" d="M 125.29130021489613 328.9983361062012 C 125.29130021489613 325.13234250620116 128.42530661489613 321.9983361062012 132.29130021489613 321.9983361062012 C 136.15729381489612 321.9983361062012 139.29130021489613 325.13234250620116 139.29130021489613 328.9983361062012 C 139.29130021489613 332.8643297062012 136.15729381489612 335.9983361062012 132.29130021489613 335.9983361062012 C 128.42530661489613 335.9983361062012 125.29130021489613 332.8643297062012 125.29130021489613 328.9983361062012 Z"/></g><g transform="translate(-10,-10) scale(1,1)"><path fill="none" stroke="#000000" d="M 125.29130021489613 328.9983361062012 C 125.29130021489613 325.13234250620116 128.42530661489613 321.9983361062012 132.29130021489613 321.9983361062012 C 136.15729381489612 321.9983361062012 139.29130021489613 325.13234250620116 139.29130021489613 328.9983361062012 C 139.29130021489613 332.8643297062012 136.15729381489612 335.9983361062012 132.29130021489613 335.9983361062012 C 128.42530661489613 335.9983361062012 125.29130021489613 332.8643297062012 125.29130021489613 328.9983361062012 Z" stroke-miterlimit="10"/></g><g transform="translate(-10,-10) scale(1,1)"><path fill="none" stroke="#000000" d="M 125.58260042979225 330.9966722124023 L 139 327" stroke-miterlimit="10"/></g><g transform="translate(-10,-10) scale(1,1)"><path fill="none" stroke="#000000" d="M 134.28963632109728 335.70703589130505 L 130.29296410869497 322.2896363210973" stroke-miterlimit="10"/></g><g transform="translate(-10,-10) scale(1,1)"><path fill="none" stroke="#000000" d="M 125 369 Q 125 355 141 340" stroke-miterlimit="10"/></g><g transform="translate(-10,-10) scale(1,1)"><path fill="#FFFFFF" stroke="none" d="M 128.8932395710194 344.7875879021693 C 128.8932395710194 340.9215943021693 132.0272459710194 337.7875879021693 135.8932395710194 337.7875879021693 C 139.7592331710194 337.7875879021693 142.8932395710194 340.9215943021693 142.8932395710194 344.7875879021693 C 142.8932395710194 348.65358150216935 139.7592331710194 351.7875879021693 135.8932395710194 351.7875879021693 C 132.0272459710194 351.7875879021693 128.8932395710194 348.65358150216935 128.8932395710194 344.7875879021693 Z"/></g><g transform="translate(-10,-10) scale(1,1)"><path fill="none" stroke="#000000" d="M 128.8932395710194 344.7875879021693 C 128.8932395710194 340.9215943021693 132.0272459710194 337.7875879021693 135.8932395710194 337.7875879021693 C 139.7592331710194 337.7875879021693 142.8932395710194 340.9215943021693 142.8932395710194 344.7875879021693 C 142.8932395710194 348.65358150216935 139.7592331710194 351.7875879021693 135.8932395710194 351.7875879021693 C 132.0272459710194 351.7875879021693 128.8932395710194 348.65358150216935 128.8932395710194 344.7875879021693 Z" stroke-miterlimit="10"/></g><g transform="translate(-10,-10) scale(1,1)"><path fill="none" stroke="#000000" d="M 130.78647914203881 349.57517580433864 L 141 340" stroke-miterlimit="10"/></g><g transform="translate(-10,-10) scale(1,1)"><path fill="none" stroke="#000000" d="M 140.6808274731887 349.8943483311499 L 131.10565166885007 339.68082747318874" stroke-miterlimit="10"/></g><g transform="translate(-10,-10) scale(1,1)"><path fill="none" stroke="#000000" d="M 205 369 Q 205 355 188 340" stroke-miterlimit="10"/></g><g transform="translate(-10,-10) scale(1,1)"><path fill="#FFFFFF" stroke="none" d="M 186.24886498755563 344.6313514596079 C 186.24886498755563 340.7653578596079 189.38287138755564 337.6313514596079 193.24886498755563 337.6313514596079 C 197.11485858755563 337.6313514596079 200.24886498755563 340.7653578596079 200.24886498755563 344.6313514596079 C 200.24886498755563 348.49734505960794 197.11485858755563 351.6313514596079 193.24886498755563 351.6313514596079 C 189.38287138755564 351.6313514596079 186.24886498755563 348.49734505960794 186.24886498755563 344.6313514596079 Z"/></g><g transform="translate(-10,-10) scale(1,1)"><path fill="none" stroke="#000000" d="M 186.24886498755563 344.6313514596079 C 186.24886498755563 340.7653578596079 189.38287138755564 337.6313514596079 193.24886498755563 337.6313514596079 C 197.11485858755563 337.6313514596079 200.24886498755563 340.7653578596079 200.24886498755563 344.6313514596079 C 200.24886498755563 348.49734505960794 197.11485858755563 351.6313514596079 193.24886498755563 351.6313514596079 C 189.38287138755564 351.6313514596079 186.24886498755563 348.49734505960794 186.24886498755563 344.6313514596079 Z" stroke-miterlimit="10"/></g><g transform="translate(-10,-10) scale(1,1)"><path fill="none" stroke="#000000" d="M 198.4977299751113 349.2627029192158 L 188 340" stroke-miterlimit="10"/></g><g transform="translate(-10,-10) scale(1,1)"><path fill="none" stroke="#000000" d="M 197.88021644716355 339.3824864720523 L 188.61751352794772 349.88021644716355" stroke-miterlimit="10"/></g><g transform="translate(-10,-10) scale(1,1)"><path fill="none" stroke="#000000" d="M 599 299 Q 599 285 564 266" stroke-miterlimit="10"/></g><g transform="translate(-10,-10) scale(1,1)"><path fill="#FFFFFF" stroke="none" d="M 563.1519740216598 269.33964304032963 C 563.1519740216598 265.4736494403296 566.2859804216598 262.33964304032963 570.1519740216598 262.33964304032963 C 574.0179676216599 262.33964304032963 577.1519740216598 265.4736494403296 577.1519740216598 269.33964304032963 C 577.1519740216598 273.20563664032966 574.0179676216599 276.33964304032963 570.1519740216598 276.33964304032963 C 566.2859804216598 276.33964304032963 563.1519740216598 273.20563664032966 563.1519740216598 269.33964304032963 Z"/></g><g transform="translate(-10,-10) scale(1,1)"><path fill="none" stroke="#000000" d="M 563.1519740216598 269.33964304032963 C 563.1519740216598 265.4736494403296 566.2859804216598 262.33964304032963 570.1519740216598 262.33964304032963 C 574.0179676216599 262.33964304032963 577.1519740216598 265.4736494403296 577.1519740216598 269.33964304032963 C 577.1519740216598 273.20563664032966 574.0179676216599 276.33964304032963 570.1519740216598 276.33964304032963 C 566.2859804216598 276.33964304032963 563.1519740216598 273.20563664032966 563.1519740216598 269.33964304032963 Z" stroke-miterlimit="10"/></g><g transform="translate(-10,-10) scale(1,1)"><path fill="none" stroke="#000000" d="M 576.3039480433197 272.67928608065927 L 564 266" stroke-miterlimit="10"/></g><g transform="translate(-10,-10) scale(1,1)"><path fill="none" stroke="#000000" d="M 573.4916170619895 263.1876690186698 L 566.8123309813302 275.4916170619895" stroke-miterlimit="10"/></g><g transform="translate(-10,-10) scale(1,1)"><path fill="none" stroke="#000000" d="M 290 369 Q 290 355 570 322" stroke-miterlimit="10"/></g><g transform="translate(-10,-10) scale(1,1)"><path fill="#FFFFFF" stroke="none" d="M 556.048115394478 322.8193292570794 C 556.048115394478 318.9533356570794 559.182121794478 315.8193292570794 563.048115394478 315.8193292570794 C 566.914108994478 315.8193292570794 570.048115394478 318.9533356570794 570.048115394478 322.8193292570794 C 570.048115394478 326.6853228570794 566.914108994478 329.8193292570794 563.048115394478 329.8193292570794 C 559.182121794478 329.8193292570794 556.048115394478 326.6853228570794 556.048115394478 322.8193292570794 Z"/></g><g transform="translate(-10,-10) scale(1,1)"><path fill="none" stroke="#000000" d="M 556.048115394478 322.8193292570794 C 556.048115394478 318.9533356570794 559.182121794478 315.8193292570794 563.048115394478 315.8193292570794 C 566.914108994478 315.8193292570794 570.048115394478 318.9533356570794 570.048115394478 322.8193292570794 C 570.048115394478 326.6853228570794 566.914108994478 329.8193292570794 563.048115394478 329.8193292570794 C 559.182121794478 329.8193292570794 556.048115394478 326.6853228570794 556.048115394478 322.8193292570794 Z" stroke-miterlimit="10"/></g><g transform="translate(-10,-10) scale(1,1)"><path fill="none" stroke="#000000" d="M 556.096230788956 323.63865851415875 L 570 322" stroke-miterlimit="10"/></g><g transform="translate(-10,-10) scale(1,1)"><path fill="none" stroke="#000000" d="M 563.8674446515574 329.7712138626014 L 562.2287861373986 315.8674446515574" stroke-miterlimit="10"/></g><g transform="translate(-10,-10) scale(1,1)"><path fill="none" stroke="#000000" d="M 290 439 Q 290 425 290 410" stroke-miterlimit="10"/></g><g transform="translate(-10,-10) scale(1,1)"><path fill="#FFFFFF" stroke="none" d="M 283 417 C 283 413.1340064 286.1340064 410 290 410 C 293.8659936 410 297 413.1340064 297 417 C 297 420.8659936 293.8659936 424 290 424 C 286.1340064 424 283 420.8659936 283 417 Z"/></g><g transform="translate(-10,-10) scale(1,1)"><path fill="none" stroke="#000000" d="M 283 417 C 283 413.1340064 286.1340064 410 290 410 C 293.8659936 410 297 413.1340064 297 417 C 297 420.8659936 293.8659936 424 290 424 C 286.1340064 424 283 420.8659936 283 417 Z" stroke-miterlimit="10"/></g><g transform="translate(-10,-10) scale(1,1)"><path fill="none" stroke="#000000" d="M 290 424 L 290 410" stroke-miterlimit="10"/></g><g transform="translate(-10,-10) scale(1,1)"><path fill="none" stroke="#000000" d="M 297 417 L 283 417" stroke-miterlimit="10"/></g><g transform="translate(-10,-10) scale(1,1)"><path fill="none" stroke="#000000" d="M 393 369 Q 393 355 570 324" stroke-miterlimit="10"/></g><g transform="translate(-10,-10) scale(1,1)"><path fill="#FFFFFF" stroke="none" d="M 556.1049521588233 325.20760724901965 C 556.1049521588233 321.3416136490196 559.2389585588232 318.20760724901965 563.1049521588233 318.20760724901965 C 566.9709457588233 318.20760724901965 570.1049521588233 321.3416136490196 570.1049521588233 325.20760724901965 C 570.1049521588233 329.07360084901967 566.9709457588233 332.20760724901965 563.1049521588233 332.20760724901965 C 559.2389585588232 332.20760724901965 556.1049521588233 329.07360084901967 556.1049521588233 325.20760724901965 Z"/></g><g transform="translate(-10,-10) scale(1,1)"><path fill="none" stroke="#000000" d="M 556.1049521588233 325.20760724901965 C 556.1049521588233 321.3416136490196 559.2389585588232 318.20760724901965 563.1049521588233 318.20760724901965 C 566.9709457588233 318.20760724901965 570.1049521588233 321.3416136490196 570.1049521588233 325.20760724901965 C 570.1049521588233 329.07360084901967 566.9709457588233 332.20760724901965 563.1049521588233 332.20760724901965 C 559.2389585588232 332.20760724901965 556.1049521588233 329.07360084901967 556.1049521588233 325.20760724901965 Z" stroke-miterlimit="10"/></g><g transform="translate(-10,-10) scale(1,1)"><path fill="none" stroke="#000000" d="M 556.2099043176466 326.4152144980393 L 570 324" stroke-miterlimit="10"/></g><g transform="translate(-10,-10) scale(1,1)"><path fill="none" stroke="#000000" d="M 564.3125594078429 332.1026550901963 L 561.8973449098037 318.31255940784297" stroke-miterlimit="10"/></g><g transform="translate(-10,-10) scale(1,1)"><path fill="none" stroke="#000000" d="M 527 369 Q 527 355 570 333" stroke-miterlimit="10"/></g><g transform="translate(-10,-10) scale(1,1)"><path fill="#FFFFFF" stroke="none" d="M 556.7682628591587 336.1883306301979 C 556.7682628591587 332.3223370301979 559.9022692591586 329.1883306301979 563.7682628591587 329.1883306301979 C 567.6342564591587 329.1883306301979 570.7682628591587 332.3223370301979 570.7682628591587 336.1883306301979 C 570.7682628591587 340.05432423019795 567.6342564591587 343.1883306301979 563.7682628591587 343.1883306301979 C 559.9022692591586 343.1883306301979 556.7682628591587 340.05432423019795 556.7682628591587 336.1883306301979 Z"/></g><g transform="translate(-10,-10) scale(1,1)"><path fill="none" stroke="#000000" d="M 556.7682628591587 336.1883306301979 C 556.7682628591587 332.3223370301979 559.9022692591586 329.1883306301979 563.7682628591587 329.1883306301979 C 567.6342564591587 329.1883306301979 570.7682628591587 332.3223370301979 570.7682628591587 336.1883306301979 C 570.7682628591587 340.05432423019795 567.6342564591587 343.1883306301979 563.7682628591587 343.1883306301979 C 559.9022692591586 343.1883306301979 556.7682628591587 340.05432423019795 556.7682628591587 336.1883306301979 Z" stroke-miterlimit="10"/></g><g transform="translate(-10,-10) scale(1,1)"><path fill="none" stroke="#000000" d="M 557.5365257183173 339.37666126039585 L 570 333" stroke-miterlimit="10"/></g><g transform="translate(-10,-10) scale(1,1)"><path fill="none" stroke="#000000" d="M 566.9565934893566 342.42006777103927 L 560.5799322289607 329.9565934893566" stroke-miterlimit="10"/></g><g transform="translate(-10,-10) scale(1,1)"><path fill="none" stroke="#000000" d="M 648 369 Q 648 355 627 340" stroke-miterlimit="10"/></g><g transform="translate(-10,-10) scale(1,1)"><path fill="#FFFFFF" stroke="none" d="M 625.6961342984472 344.0686673560337 C 625.6961342984472 340.2026737560337 628.8301406984472 337.0686673560337 632.6961342984472 337.0686673560337 C 636.5621278984472 337.0686673560337 639.6961342984472 340.2026737560337 639.6961342984472 344.0686673560337 C 639.6961342984472 347.9346609560337 636.5621278984472 351.0686673560337 632.6961342984472 351.0686673560337 C 628.8301406984472 351.0686673560337 625.6961342984472 347.9346609560337 625.6961342984472 344.0686673560337 Z"/></g><g transform="translate(-10,-10) scale(1,1)"><path fill="none" stroke="#000000" d="M 625.6961342984472 344.0686673560337 C 625.6961342984472 340.2026737560337 628.8301406984472 337.0686673560337 632.6961342984472 337.0686673560337 C 636.5621278984472 337.0686673560337 639.6961342984472 340.2026737560337 639.6961342984472 344.0686673560337 C 639.6961342984472 347.9346609560337 636.5621278984472 351.0686673560337 632.6961342984472 351.0686673560337 C 628.8301406984472 351.0686673560337 625.6961342984472 347.9346609560337 625.6961342984472 344.0686673560337 Z" stroke-miterlimit="10"/></g><g transform="translate(-10,-10) scale(1,1)"><path fill="none" stroke="#000000" d="M 638.3922685968943 348.13733471206734 L 627 340" stroke-miterlimit="10"/></g><g transform="translate(-10,-10) scale(1,1)"><path fill="none" stroke="#000000" d="M 636.7648016544808 338.37253305758657 L 628.6274669424135 349.76480165448083" stroke-miterlimit="10"/></g><g transform="translate(-10,-10) scale(1,1)"><path fill="none" stroke="#000000" d="M 743 369 Q 743 355 628 327" stroke-miterlimit="10"/></g><g transform="translate(-10,-10) scale(1,1)"><path fill="#FFFFFF" stroke="none" d="M 627.8013059677336 328.6559701486656 C 627.8013059677336 324.78997654866555 630.9353123677336 321.6559701486656 634.8013059677336 321.6559701486656 C 638.6672995677336 321.6559701486656 641.8013059677336 324.78997654866555 641.8013059677336 328.6559701486656 C 641.8013059677336 332.5219637486656 638.6672995677336 335.6559701486656 634.8013059677336 335.6559701486656 C 630.9353123677336 335.6559701486656 627.8013059677336 332.5219637486656 627.8013059677336 328.6559701486656 Z"/></g><g transform="translate(-10,-10) scale(1,1)"><path fill="none" stroke="#000000" d="M 627.8013059677336 328.6559701486656 C 627.8013059677336 324.78997654866555 630.9353123677336 321.6559701486656 634.8013059677336 321.6559701486656 C 638.6672995677336 321.6559701486656 641.8013059677336 324.78997654866555 641.8013059677336 328.6559701486656 C 641.8013059677336 332.5219637486656 638.6672995677336 335.6559701486656 634.8013059677336 335.6559701486656 C 630.9353123677336 335.6559701486656 627.8013059677336 332.5219637486656 627.8013059677336 328.6559701486656 Z" stroke-miterlimit="10"/></g><g transform="translate(-10,-10) scale(1,1)"><path fill="none" stroke="#000000" d="M 641.6026119354672 330.31194029733115 L 628 327" stroke-miterlimit="10"/></g><g transform="translate(-10,-10) scale(1,1)"><path fill="none" stroke="#000000" d="M 636.4572761163992 321.854664180932 L 633.145335819068 335.45727611639916" stroke-miterlimit="10"/></g><g transform="translate(-10,-10) scale(1,1)"><path fill="none" stroke="#000000" d="M 854 299 Q 854 285 564 253" stroke-miterlimit="10"/></g><g transform="translate(-10,-10) scale(1,1)"><path fill="#FFFFFF" stroke="none" d="M 563.9577693275445 253.76775385683248 C 563.9577693275445 249.9017602568325 567.0917757275445 246.76775385683248 570.9577693275445 246.76775385683248 C 574.8237629275445 246.76775385683248 577.9577693275445 249.9017602568325 577.9577693275445 253.76775385683248 C 577.9577693275445 257.6337474568325 574.8237629275445 260.7677538568325 570.9577693275445 260.7677538568325 C 567.0917757275445 260.7677538568325 563.9577693275445 257.6337474568325 563.9577693275445 253.76775385683248 Z"/></g><g transform="translate(-10,-10) scale(1,1)"><path fill="none" stroke="#000000" d="M 563.9577693275445 253.76775385683248 C 563.9577693275445 249.9017602568325 567.0917757275445 246.76775385683248 570.9577693275445 246.76775385683248 C 574.8237629275445 246.76775385683248 577.9577693275445 249.9017602568325 577.9577693275445 253.76775385683248 C 577.9577693275445 257.6337474568325 574.8237629275445 260.7677538568325 570.9577693275445 260.7677538568325 C 567.0917757275445 260.7677538568325 563.9577693275445 257.6337474568325 563.9577693275445 253.76775385683248 Z" stroke-miterlimit="10"/></g><g transform="translate(-10,-10) scale(1,1)"><path fill="none" stroke="#000000" d="M 577.915538655089 254.535507713665 L 564 253" stroke-miterlimit="10"/></g><g transform="translate(-10,-10) scale(1,1)"><path fill="none" stroke="#000000" d="M 571.725523184377 246.809984529288 L 570.190015470712 260.725523184377" stroke-miterlimit="10"/></g><g transform="translate(-10,-10) scale(1,1)"><path fill="none" stroke="#000000" d="M 854 369 Q 854 355 854 340" stroke-miterlimit="10"/></g><g transform="translate(-10,-10) scale(1,1)"><path fill="#FFFFFF" stroke="none" d="M 847 347 C 847 343.1340064 850.1340064 340 854 340 C 857.8659936 340 861 343.1340064 861 347 C 861 350.8659936 857.8659936 354 854 354 C 850.1340064 354 847 350.8659936 847 347 Z"/></g><g transform="translate(-10,-10) scale(1,1)"><path fill="none" stroke="#000000" d="M 847 347 C 847 343.1340064 850.1340064 340 854 340 C 857.8659936 340 861 343.1340064 861 347 C 861 350.8659936 857.8659936 354 854 354 C 850.1340064 354 847 350.8659936 847 347 Z" stroke-miterlimit="10"/></g><g transform="translate(-10,-10) scale(1,1)"><path fill="none" stroke="#000000" d="M 854 354 L 854 340" stroke-miterlimit="10"/></g><g transform="translate(-10,-10) scale(1,1)"><path fill="none" stroke="#000000" d="M 861 347 L 847 347" stroke-miterlimit="10"/></g><g transform="translate(-10,-10) scale(1,1)"><path fill="none" stroke="#000000" d="M 1006 229 Q 1006 215 815 183" stroke-miterlimit="10"/></g><g transform="translate(-10,-10) scale(1,1)"><path fill="#FFFFFF" stroke="none" d="M 814.9037780753081 184.15665391837624 C 814.9037780753081 180.29066031837624 818.0377844753081 177.15665391837624 821.9037780753081 177.15665391837624 C 825.7697716753081 177.15665391837624 828.9037780753081 180.29066031837624 828.9037780753081 184.15665391837624 C 828.9037780753081 188.02264751837623 825.7697716753081 191.15665391837624 821.9037780753081 191.15665391837624 C 818.0377844753081 191.15665391837624 814.9037780753081 188.02264751837623 814.9037780753081 184.15665391837624 Z"/></g><g transform="translate(-10,-10) scale(1,1)"><path fill="none" stroke="#000000" d="M 814.9037780753081 184.15665391837624 C 814.9037780753081 180.29066031837624 818.0377844753081 177.15665391837624 821.9037780753081 177.15665391837624 C 825.7697716753081 177.15665391837624 828.9037780753081 180.29066031837624 828.9037780753081 184.15665391837624 C 828.9037780753081 188.02264751837623 825.7697716753081 191.15665391837624 821.9037780753081 191.15665391837624 C 818.0377844753081 191.15665391837624 814.9037780753081 188.02264751837623 814.9037780753081 184.15665391837624 Z" stroke-miterlimit="10"/></g><g transform="translate(-10,-10) scale(1,1)"><path fill="none" stroke="#000000" d="M 828.8075561506162 185.31330783675244 L 815 183" stroke-miterlimit="10"/></g><g transform="translate(-10,-10) scale(1,1)"><path fill="none" stroke="#000000" d="M 823.0604319936843 177.25287584306813 L 820.7471241569318 191.06043199368435" stroke-miterlimit="10"/></g><g transform="translate(-10,-10) scale(1,1)"><path fill="none" stroke="#000000" d="M 1006 299 Q 1006 285 1006 270" stroke-miterlimit="10"/></g><g transform="translate(-10,-10) scale(1,1)"><path fill="#FFFFFF" stroke="none" d="M 999 277 C 999 273.1340064 1002.1340064 270 1006 270 C 1009.8659936 270 1013 273.1340064 1013 277 C 1013 280.8659936 1009.8659936 284 1006 284 C 1002.1340064 284 999 280.8659936 999 277 Z"/></g><g transform="translate(-10,-10) scale(1,1)"><path fill="none" stroke="#000000" d="M 999 277 C 999 273.1340064 1002.1340064 270 1006 270 C 1009.8659936 270 1013 273.1340064 1013 277 C 1013 280.8659936 1009.8659936 284 1006 284 C 1002.1340064 284 999 280.8659936 999 277 Z" stroke-miterlimit="10"/></g><g transform="translate(-10,-10) scale(1,1)"><path fill="none" stroke="#000000" d="M 1006 284 L 1006 270" stroke-miterlimit="10"/></g><g transform="translate(-10,-10) scale(1,1)"><path fill="none" stroke="#000000" d="M 1013 277 L 999 277" stroke-miterlimit="10"/></g><g transform="translate(-10,-10) scale(1,1)"><path fill="none" stroke="#000000" d="M 959 369 Q 959 355 978 340" stroke-miterlimit="10"/></g><g transform="translate(-10,-10) scale(1,1)"><path fill="#FFFFFF" stroke="none" d="M 965.505820641266 344.3375100200532 C 965.505820641266 340.47151642005315 968.639827041266 337.3375100200532 972.505820641266 337.3375100200532 C 976.3718142412661 337.3375100200532 979.505820641266 340.47151642005315 979.505820641266 344.3375100200532 C 979.505820641266 348.2035036200532 976.3718142412661 351.3375100200532 972.505820641266 351.3375100200532 C 968.639827041266 351.3375100200532 965.505820641266 348.2035036200532 965.505820641266 344.3375100200532 Z"/></g><g transform="translate(-10,-10) scale(1,1)"><path fill="none" stroke="#000000" d="M 965.505820641266 344.3375100200532 C 965.505820641266 340.47151642005315 968.639827041266 337.3375100200532 972.505820641266 337.3375100200532 C 976.3718142412661 337.3375100200532 979.505820641266 340.47151642005315 979.505820641266 344.3375100200532 C 979.505820641266 348.2035036200532 976.3718142412661 351.3375100200532 972.505820641266 351.3375100200532 C 968.639827041266 351.3375100200532 965.505820641266 348.2035036200532 965.505820641266 344.3375100200532 Z" stroke-miterlimit="10"/></g><g transform="translate(-10,-10) scale(1,1)"><path fill="none" stroke="#000000" d="M 967.0116412825321 348.6750200401063 L 978 340" stroke-miterlimit="10"/></g><g transform="translate(-10,-10) scale(1,1)"><path fill="none" stroke="#000000" d="M 976.8433306613192 349.83168937878713 L 968.1683106212129 338.8433306613192" stroke-miterlimit="10"/></g><g transform="translate(-10,-10) scale(1,1)"><path fill="none" stroke="#000000" d="M 1052 369 Q 1052 355 1032 340" stroke-miterlimit="10"/></g><g transform="translate(-10,-10) scale(1,1)"><path fill="#FFFFFF" stroke="none" d="M 1030.6 344.2 C 1030.6 340.33400639999996 1033.7340064 337.2 1037.6 337.2 C 1041.4659935999998 337.2 1044.6 340.33400639999996 1044.6 344.2 C 1044.6 348.0659936 1041.4659935999998 351.2 1037.6 351.2 C 1033.7340064 351.2 1030.6 348.0659936 1030.6 344.2 Z"/></g><g transform="translate(-10,-10) scale(1,1)"><path fill="none" stroke="#000000" d="M 1030.6 344.2 C 1030.6 340.33400639999996 1033.7340064 337.2 1037.6 337.2 C 1041.4659935999998 337.2 1044.6 340.33400639999996 1044.6 344.2 C 1044.6 348.0659936 1041.4659935999998 351.2 1037.6 351.2 C 1033.7340064 351.2 1030.6 348.0659936 1030.6 344.2 Z" stroke-miterlimit="10"/></g><g transform="translate(-10,-10) scale(1,1)"><path fill="none" stroke="#000000" d="M 1043.2 348.4 L 1032 340" stroke-miterlimit="10"/></g><g transform="translate(-10,-10) scale(1,1)"><path fill="none" stroke="#000000" d="M 1041.8 338.59999999999997 L 1033.3999999999999 349.8" stroke-miterlimit="10"/></g></g></svg>